<mxfile host="Electron" modified="2024-09-05T04:06:17.247Z" agent="Mozilla/5.0 (X11; Linux x86_64) AppleWebKit/537.36 (KHTML, like Gecko) draw.io/24.1.0 Chrome/120.0.6099.109 Electron/28.1.0 Safari/537.36" etag="sFIQ8VDthpSOfxFC4or-" version="24.1.0" type="device" pages="5">
  <diagram id="rSyPeMkIq_EpVIt4MTMk" name="ruta-metodologica">
    <mxGraphModel dx="1320" dy="1820" grid="1" gridSize="10" guides="1" tooltips="1" connect="1" arrows="1" fold="1" page="1" pageScale="1" pageWidth="1100" pageHeight="850" math="0" shadow="0">
      <root>
        <mxCell id="0" />
        <mxCell id="1" parent="0" />
        <mxCell id="kacv7cCOfO1hGNgQOQGf-1" value="" style="shape=image;verticalLabelPosition=bottom;labelBackgroundColor=default;verticalAlign=top;aspect=fixed;imageAspect=0;image=data:image/png,iVBORw0KGgoAAAANSUhEUgAAA2QAAAVtCAMAAACr6X0IAAAC/VBMVEUAAABrhsRqh8WV0ePk6fMOE3uvx+EjMmTP3uzEz+amuNuZ1eUqP5TJ1OeQptObrtZriMUXIW+Y1OUcKGsjM2R4ksqY1OUjM2R4lcpwjcd+l8yc0uMAAICY1OZvjMaJodAjMmQjMmQkMmQAAIEkNGUjMmQjMmQjM2QjMmSW0+UjMmQhISSIn9B2kcgAAIIAAP+Ww10AAP8AAP9LoMuVxnGMi4tsbW8AAP8AAP8AAP9mmboBAf/dtqoAAP9SpMVzSUVWTkZNochKISI/UmUAAP8AAIFWUUBuYFeZzJlkqqWZztB0u9iY0Lt7tIYzKierkkSAai5yd2XTjHQ/Yo1LoM0CAoGkZoUFB75GfaplhVx/uNGY1OYAAIBKn8yaxVMjMmQAAP////8mMWjz3FhIm8jV5f/r6+4AAQIqO24NDYcnN2qRy96YzKK2alUuP3KBs8yKwNaFutEvRXafw+lLViuNxdrz8/mttrlKZpBGX4tBWYZbfqN8rcdfhKc9U4LiW1E5Tn14p8I1SHlOa5TKyuUAANxUc5pmja+oqNQnKJQWF4y8vN5rdXwfIJCbnM55waR0ob5BQaFXeJ4rO2NlZ7UxWopjiauChIRpkrJslrUvMJhvmrits95xnrs3OJ19f8JRb5fg4e4yXZnnY3A3a5p2db/jh2NjgVtdX7GIiMRwkVmRk8stT4DX1+sit9IyRWJEW19ucLqTvVRNT6k+fq2r2udVVq1ZdFzE0/U7T2CCqFbwzLR6nVg7daNBiLZPaF6IsFdGlsNEj7xXWl3Ozs9HSaYDmbK1w+yPt1WaptzmNEAXFvfVXVXou1hMUFRdY2iCjM5mbHCFOTYDA7rc02f301lBREcWFBZESi2orrKcRkI1OD4tLy3Pl1bEWVN4ydu1T0g6QChuKyrWuqV4e33aqFkOGzmgpqnT1XwrKuyXnaCozY6LkJTNely80oHEqZYwL8+rmIVYTOC3sm36vxMwMLaZjXqCc2rAxcAbGFgGVmTAcVgGeo2VZaLHeXp5162wAAAAW3RSTlMAmH76Ch419RUqQ9MQH1lNj0V4Mut9keBicXBVaKqHZdTHWVV8ariaqryL/HqLiCni7Enoy2CEZZitOdZ1fcD8s9P+38Kp/v3JwvSw2sjF+/q1ucia1f7Bv+nnFi2V4AABWwNJREFUeNrs0zENACAABDGE4l8H8wtguKT10HOBrySDJRnUSAZLMqiRDJZkUCMZLMmgRjJYkkGNZLAkgxrJYEkGNZLBkgxqJIMlGdRIBksyqJEMlmRQIxksyaBGMliSQY1ksCSDGslgSQY1ksGSDGokgyUZ1Ej22DeXFFeBKIBu9E7uRHADtYIaGEVBcCSiOAgowYEI7iD7et2a5Hrr8xLzWmM/6gw7Wt97rG87HBwnmcPx23CSORwcJ5nD8dtwkjkcHCeZw/HbcJI5HBwnmcPx23CSORwcJ5nD8dtwkv3H+PEMOD6Ik+xAjMnMCV4mmTmDmQgnBKyiSWa2dbNPZnz4AGUyk8IOOMkOxAVnVvQ8zkgwEuBMD6tIcCaHDUlx5gIfocOJeg/Fd5AsbHWqczbm4GD8uGQVTogrrGEfyfzaFuXtnR50MlMoNaWuytD+hRNAiTMJbM8Okp3QgpC9Dw7ihyXLcKI7wSr2kazFmSsoDPggBI0IzdSXVKuDnStr7M3ZXTKOuKzXrDl/EcKxOH/Rwz/x05JdcaJY28K7SBYLnIhApcAHZ9CI0Eo3APFcslBQ023N/pJx6hTWEeI3JzgUA37hwT/xw5LlcxBVsJZdJAtsWYRioQ1o2CXjU7/nksEZZxrYmo9LhmKlZdkRJQsOJ1lcT407whuEm2/821dEGRK6gnbJ+Lj4gmS0KoSt+bxkKNZ1ZnRAyXxxNMn8boqfo24uFYiWbpS4oDX3vp0eZl6RDPq9hrI9JasJTyARwApiPKBkIx5Nslx+ERxt5aqGRGD7RZgHGZJMJg+CDh8IHyZIMk8aKOEb36NZ6absKZkPC/LKY7OCV+mPKFlxOMmOzd2AElQqnEikZe8xMu2JhC3eGdUsErBT0cC2KbtLRvgR3qjgdeQBJfOFk2xde1lLXePEUFmGOpKMkSE/2n5NspgG1E35oGTge3y9GmczORBjNtFMCWVZ1t+9zL4YgRjaqPOEqGXS+GCFUkynEmSRh6Iu6JU06QR6sjVI7F+nLGpZnBe/pl9pJTgh7gkTpyyQnfh+pzKa4w+B9IQnLymAVTI//cq4Fl4ngyYGhk2ysEnkd1m7qL36xnyT7rvmQeYv2qSkOk2EwMirQtbflbmMviHJRw9cqDnNjNaLKOl91pfT9I9BknE67guTzE5EuWzJJyWDFtnUezAMbN3i8l2DBJ+yhxfBDt9CsCOpNwZPOUiII1Q/ieYsohxuJH/ZR846ZMWKQaGnKbMsqT24p4nABV0GhEWyUeKSIAeFjPL1GgDwWJ3NW/hNZ27i9T0AhX7YzHMuAGrTpoRdsoR/r1+ULNtn6+Ojkg24UOgfJBsFcrwUrESP3sjUg4STZ92OaSgL3st2ycoOFYQSGgUuaYySVQIVOop9o2SxRBXlyD/gP4KvbOaRZPZEBQXmuh6g2WJk/WUEuJiesUvWvjWShXiXelM+KlmKN2DiXcn6VYdv0T0sUx4VPvhkhVqMCgk21Nkly5CjX78IkHPVJfMj1BEDPNAlSwXqyBAItchVzGpskiz3kOBPr++B1LoUH2n6VhpHO/tIxtPkktmRFF4b8h+MZCkaECFYKG7v+p0aMxfL+R0LIsHOZOySNWikAJYow9PWZL60nfPM6JKRY5yOGl8v2fhMspg7pgb6FQ141h5orXuLxWI4qg022SWreZo2yexF2ZJDrMkkTDyTbKjrWizP3CIAoPatszLOz4IGGjMBTng9IopakLEnnP5i+FSXeCMoAfzm9og4TXVQC9XyV7C+9Fkl9URDQXJlTdWRwCQZjXVRlfWJp/qvS0Y6eMk5qyJ99utTKsGtZDWPXF0y+XC1zfpAIIXm+h6wDh80exsWwdEBg0lmjSR4VbIrJbchh9hdnLrjmWQzF+2qQMO/nDk+2TEKEG82id4HyATekIhdChAmytU5irEMvqDxpVB+9/Ryo7i9U9bIS07jZjCXtMcHKfAGQXl7qVIGRF2yQpH5JJEil6chZ1NHdWzWJeuRNUAo7+Ybe6B81gPWDfyeXqRkciAskpWFqv2rkoW7bOJ/UrKANc27khWWuc4AZgIllkdtThUgXw+UvCfoCnkMM7pkvbYyiWslFU/dDzsrBSNTpU/psibTJEu5DrCYcXZKonUIMyPyl3TJ1JEu9FgpIksPXMFIbA1/yVqo1q9WUV5d9KATiNouIZfMjrfHOePnJEslsgh5VzKPRSbFTAtmAlQekOrNk5gFu+nGeMKDTpes1gsx8tXiFbWadEq+g+FyZ8RiR5Os0G/KnriXuXY3Aoonko2KpuT65Z0euNpOyU7889iarlZFr/1Dx8uSRXvsfOwpWbIg8hB576+VjPDjU5kOd4XLJ60b8GCniFGmf/Rh1C/SpSzqdMlKyoPoWKoXXYdGk1uvyRV5Xlwyn5qUKFjM96jVpnwiWaFZEZJ263sgI5c4Le/rnFqDsEomihGIhWS+Af2xEDbkALfwb069LxknJmWMBGp059pko2VRlevzdp+NzbpkZ8qDaFnsGRYXoSJZbZp2CS4Al+xKBhENe8b0ha//Lpmnt3nWjNcyj8N3eqCy7ejVSsk6fb1kl8yLWpZggnYCU2E25POStTDzU5KFFOBGAh7dZAzGcCNjj9DciPCYDYpkzCBiYJ9/mmMRkv3NPM2OmBBMMuYxcWIbEbSJQwQ2yfj7wHm3BxJqbkaqflMqKjervpW6gRsvS0bD6oZ8WjKPBvl/ksxPx+x8rtq2TV6UjJpVCyI6N1pm6UlCsAmUJllNeRjaAYCZTQTGHZkaliRMeSaZWW42+JnlPv9VMlqScd7tgYKawVQzT2swUsciGRHdhHxZspHy2I7PStb9Ye9cUiQFgjA8B42NGyEvkCfIhQ8sEFyJKLUoUMSFCN7Aew3TVk/Mb6SPkS6d6fLbtV1qmpGf+VQfipjdkkVF4zDrkmEDQfa5BkjIbaUWFpJBsWbUnzVTxMYxFQiQWC+kwIKCkhkY1Bhh5WNOGmZgOSsZpgPZG4HQLpnSohY2cBzY2et/UybVuBUGYjdKNvClv45TJfMI2CmZqhxkXTIUQDy7h+t+spWXSgjJsJpieOtMG6wAyR7Wrk0LW0EyqEExD3mrLWndomQPjhawMwL2AT2uU7LqN0aMSsxNRgc1lqk1yUSoW3ohR0pmPmlsg2B7JVPGea1k4Uq0pGSB7Z1mWL/lNskeIFllK9xYr6Bk9rYgDpYqmbQlyTAdyN4IyAmPpWxGA1AyzBdI9FbJcg716zhlnkzdLc38fZJBcNzGmDA8oiaDc2yvyTjt6XpNVthrsgXJ7OOR9prMJ6ZflKyYkWxvBOyrqgJnHiPP9ZhNRYXXkMUSDj3lR6yrOkUyGhzpk10yd0UynlwKh/H4wddKxuGqIsFYHQjJbCUZKxF7n6w+sE+WEpMsSoZaS2QE9jQXW8cKJnZJsgSyYttk9DdsLirelsnsY8kqYvSaZGaamdFXS1bDXxIhmbXZhqOL9halfXSxIWbj6GJLDIx12Ltt9aJkOM8maUQE9owumi3TPEuSxTBNv02ybzjwoXhbpEXkWLIb7LssWSTWVuRfLVm7Ei4pmb2w4zyZtnRLG5DM1qJcmSer1+bJ7KU0XJQs5nQAOyIAAVAykRIc+F2SbIBkbpPsGw7hK2Ielk5tLIOTrEk2CFmTr5Ysh1NIhGT2sQKcKZaTwmLFh9VDBdUSSmat/LAmsi7nUnpRMmVp/D68W1092kQRdSJ7ZtuXGMLIljnGAxrMkSXJWhByq2TJES+sOksyasTqV9szEkZKhoqUIqBfPvChIFkS2ZW33/zv0GHyhIdi7SIvOmS6xbWLgRhxEYdJoOKBTVIyDEIir0XZbmpmKQKwkkke0CegR1WWJDO7+mTVEV+JOk2yWA70RmIRYe8IyeDOwyFuxHEN2dghGYWiSRFVj3JII3pixPCpK8tlD67aCrthyeAnLmfc/Cp8PERtyf6cMxnUVfdFyeQTkVC5ywgMEFlJaRmdiWeCpjRk2oJkrQOXvk2yb7hAGGuCm1CKXAe/WeW7UjJoZYqiS8HdgaALdkjWc7Ke1CiIEYesxDP4wR2jHogX7yQOSsaqsjKlg6diyfD/mquJUHqI96nMWZaMveynx3zsiUAMnuAZWxEtKCQLk9GYee/7qAtKFriiIGb4JHDvOs50CL+YvLMixRtzOkYYTgfskYzusDJONmJCEdBAf6YzemaCmTaPw0mvtNfioc12OtORiOlUNIhb4e7TsiCbHpRdrgLix/oWJCNv8ghq9adXuYwAaodYn0ZWeq5C6bhWhFzLkt+0xc2IObWtkunv/dCmKDHwkLLxsl/RampnROxkkqGsIh4dcMJySLKP/Mf7P7JHMq4/7kmkgtjjuwMe0vHKIalwF13HftrdNCvFJ3kS9qnfZb9+O+2FG77aPMoT40zOLCXLeVlD5/tD5YoKc/Rw5N7ojwSsSBbp30cZ/LQ0ICVHwJtGoCBgNr+xZ424qF/oLKPHNG+VLOJfvZATJSPx+glynQlxMdk3hX/nY8sNuKvPo+imIcEeyeSiD2w9tRBm+qBeW9Ejy4tbTQ8cuWtfm7IPrkqMgqsDTL8iGZXzb95ajIBrjUAoygNYDmBDcl2ykkY2StYdMhd9nmQsDHd2OgepqZ22IxqUjBtm3Bu5cbElwS7JcHWe6BZEFsnotuKYNKiT3/Lx7zbHBvpESkYPZ/m9i8JDN1qVjIqFx0oiGQFvKQLyOw84M4/EYrpdIt9IuVWy+pDBxTMlo1q0ZappkUymY9LdRDIaxE0+/XLJSHkiniUxlUUyavXKG4Rz/EFLpWXuLHT+9g3CnRa73DDrE+0wxqd1yajU4ph8wr+MQI7jm/C8geQOiVmU7MaSbpSs4VS+kFMlU+6kVw7x1wUR9WL+pJ1IRvEdSgz/5AskY7oG/ffxoBbJyPccsQ/gG/6n280spCvxxHf4p00yCmo0IsxpQuRpPhzNSwa7YNUYExO7f5xsNQJitAHefiKoQcl5yZpHRMwWyQ77rMsBkkXeExJ03hMuzkFhxjyrPvIs9UYi3in13LHH9fn9FtWG+iOg3kAjuXfXjmtuJUlaccTbuKGiET5pDzvGlXlqFD4icSVjErSpOmKiNnSfhdlLApL02bhbmCgiCryRjoC4Np/FshoI8T7TDqgkuz8Ledb6ZEH1j7quElydWNJIwlkEF5Np53mROTEQgXgSgZ4seHjnDLwnigAMRk2/KDzJra6SmPfFa0hogZY7wa/lB/1rqCj1FS0RRIEiIErTgF5P4Kd+MJ8o+3ZImu3fEa2ifM6T7WkNtuzCZW3YEhpO7e4I8JPnJ2O+zaeTLv51uHl4EJ/VO51LetAA/iXZexJYVv9rRQdR8dzNmdwO+tzEJdm70RW38K65HwKPphxEoHec8X9OxSXZeyGW+yrDg5pHwXXIiRRH1aeXZO9G7jzJAvpFFPKSgMPwnfOrMv48/Ku5JHs7Mv4+WdUWmeaViAfCrzM5jYrHVF/MJdnbMbMg0qMjCbgaOYnouB7ZJdn7kbqnO8ZLqUo6Ce+4eYtLsjckyJwJuqejMfzUzhl0B06IX5K9JbmnHaZJFB0Of5HqePidCw0dwCXZuxIntZdlXl10Z9UljxFFJ5A+RlI6gEuyi4spl2QXF/8bl2QXF8gl2cXF/8Yl2cUFckn2k306pgEAAGAY5N/17kloAh6AGsngSQY1ksGTDGokgycZ1EgGTzKokQyeZFAjGTzJoEYyeJJBjWTwJIMayWDsm8uqnEAURX90T8+gPkXBgOCoKeyRIDgSQeoHpHBWnxRq7zK2Sd8k5MXtJGuQ9lF16nWW1d4mV/5L9okqVsDoAaR8RFJs8BWaOONP4PpfEcRP+d80XsY84g2GWOP9McYKP8Qw4C3c7h2qmPAyvK5k0TZUZg6NWQLR0dsMufgfYLIRP81qdgNGswd5kkU8x5mNeH9E+zEXWrP+KxMzYM8FXoWXlWyz6JBs5oJ4kNZsx1eYzBr8AdiNn2U2W4B0SabdDM9pcua9P350JjqzFW8wmHlEsxmvwstKNmVfgkfWzSLIQt3eZjer8Ptx7MbPMjDP5stz4W3JKrM73h8/Ktli1uIpFDDCv8/xPuOFJYseqGzA+5Qs4qeRZG4fcPAPSYYp4S3qYBHL+xzvM15YMgszWov9Xy7ZI/+SZF+jDh7Y/n9d/O04M6sWs/hfMgD/mGSWgNVavAqvKhnMbG3NzD2TbPTB4uxAmimY34BPkqXIO+0ewocGpL5HC/sGlvKuj3GBcD4BQwyDyydxQqYLN2Q2b2EqIRYfQqoYyywMG9CGFSl8qHPBPVi81yCMuqONkQ2u3kIqt5oULOw9cEhWx4RM6/PlQ7IuWogdiBtiTO5Rsnus0fr4JKbzE5YQ83F1XhVDbFg6Dhxgg96HvYJQVZdinshq5w3OFGchLAAm77DGMNUoXYxTI8k0OefwWaVFv+fCueAMsUYLyZX5OcJwoJcpm2xDHczhVXhZybzZ0rwh2QcjWqcq8GSGJGOpBcBomVAyy8gI4GbW5io9yGbWTPleUh1mV+AZZoWoj2PVSkYcdvOjsUuDEcpNWrM+GKOlh1t9MNLikKzTHz4WXZZkbjci4Xnib6dkzmxuz47dSsxNYfp83FxaIq4EuOeeI9i9P6cHqlp51qhCid1rIuHNA7XZ1uX7Ei+pttmuoBlaLLztjB8xHHN7mYlN8++8FvIyZYuFLNr/38l+P6uFnMYTvpRM+pS8ctFEWyRzgcc3I6q6mwhOQcyUcgqWjNyAocRUO70RHldG1ClSI2831E0Fi+lHVK8Li4kPABDPThXJErPNUQmG0x1xQ7aQ7KdktdkUdPHzmHNpdnTx7LuoSvGdVpvtKpFA2M6uOPq4A2sZULDA+Uznk6o1sivoemlMVWKJb6R5KDWptRXSjo09TllnG+DDe/zt/SkvLBluNeBaR8lCIrvWMZrt2+KVIdxLpvxPkWzIJvA4bvnmAjRmNrRdoELrVQg9nfdcArizOGq14808n94tE39wPSP0PteYz/R2k5lfNvXuiCpGdrbN2lQaSdfOTLpTslbbpE80B0AwS9sazQadWNqViaKhjykqZquYOhlMbLmlkc02IKdkLMgQezALKMyUJpg+6Oz4KFlfBFSY/PnhA8tqQcJ911yLwPiSNk9XB2gm7urSTFebfPvueemcMncDUL2QYy8s2Sc2O2Eaf9pbIrh0d6VAzQRqTO86vICRWbBolWezQZLtzZIcSGeUNbHgRbJGtnZ89u5Mx5W54diyJNuqYUVkQSdFzqjNmvImFx0D3+lAC37bXa6SebZ+k2QNG0TLa70cT59JFmo4jXzW5jsx2qBm7/mgB13YIK6SKURFNcVMR2oqyil3X0rmHVZ66eRNJ8laBsOdJyJw2IPxY+cMtzxG4iJIsuHTw2w4p+x1XsUKf6VkTqmqta+ZDly7GxOI32DoVYK+hwELJUDLa6senAedVMoyfCbZqLx2TKtIybBbdZFsgg5GgMlSn1HZLQzyuymvbr7c7C6SuZLsSZLpRK10Go67SMaa2BhzVsxRMTWYx5ZGkC8lGzWCFmLmMLl7g/frLyW7qSMOmwojMmhSOd0SgZduFDfHmTi3o/rhJRmr91oXz76+0N86HvgrJcOwIxPNeJNndXlbmvVUxV2JqFcQt3cA13yCnsUnJYvrLyVLZRvwZZOcHOBqXCRTCo/eHW2dUSN4jakJBOrjW0DvOhfJqlK6pWRICRleTKWN/SqZYzcUk51cuBsMGsxjSx3I55KpqxOHSGbdL+2EfP8q2elVjU6PsNKeZ0jW7SECAzd0FQtLqWFFk2ROIfUk1JS9Jn+HZGEgD2899RitLM2MTHvTm0JZqg9acO1wpLoHLvaqIAddyV6zcJVMWaFQFb9NhTsdepSsxYFbvbECkboqQwF9/iR9MglxStbS/qKNqOdgFs7EnS+ShSN2/RDzzpgJQleP2XkiWZmdBWJW1YlSP5fMl0absisd+gQF01UR2EqtZrajlCsBimSVQspSTdlr8ndI9vnvZOtupKTqQbna6jBkTJLVc7SMJJtwIkufSebPEA3qYJnkcJGsgtgmIzo/1UU4gwDF9C8kW47SpZQbNZLATtDs8SJZ2SV1rxk0Nkk2Q6iltyULQBmvKBZPms/4RDLWV4e0yeuigpUQHYgklWR6u7zOhCTrtRJlu+/e58/t3+bvlEy/euXlgpb74OH3JW+i/NmeCRcPyRIOnkumN6hoQjnUh2LpRbIaGedV7CLZAIUVqjLr6HPJVpU+9oQqMJokUxvyUKh3UG6yKcWUZB3I0dL3S6Y+pCeSWZHsA3BKxj38loMe06HyIrDbTs1IMiuc72StVoJmt+je5/8z+DZ/p2T8E/r6kZ0r1m0bBqI/elM3Lh26NUN3CmCAAJ4EQ+4SwICmwEDAHzAIb/ykmu/xciBYpe7kWNAbEloijxTFxyPvjnJYdxxaTUbHzIDk/lKQp2r0nqeAcfLezpi0QiyQrIrAgnPI6iXqSFbupJ17bkjG8VaWqEAO3HPF7M+fajKy+3KSeIMm8zJB5viiMrFg05pOPcn2SyRj1swrJBlkMrOqnds1mWtI1vZEr8km2T3S4RaCWCXJyhZ8FE77NnefDvSNuQuu4L0RNC47kfEGkpkFTPfzBgd3lpLM9luDLVGDEBwxloegLZuGj+U92bnGTtyyJwuQCRe7kqyrieAz/SfJWGdPMp3azst7sp5k1hMkGXmvbdpIdkf0JOOEibemiz9YqCa5QC2YnbBg8B/q4EVJZsuSnmRvzLiv478ghGupa0nyuyfZmW0wVppUi1n2A+pwuNlqMtVN0Eo6zjFCzbo4t9bFQUhJHbsghMrUp1GuA2rBjDeTTPs2dCRDmAwKLVkXe5KxoPaEWRc1N7vsMbFCktW1isdYG204nSysajLypVjpyKCjT0mmJrYDMuomwUWIwOiNPclsL6IBkSbVZvcQ97UcCJNbZzRMJvQlw5o5Chmn3nQ8lJEMMjmbqMxsMkUdEmLUpLpFr91OsrNGsXUk42SjTvTMh3UkP9CRjLs9Nv9ifjJ90iQbye6IjmSqbg4cLhGva4jqjK7jbYDWwA8HMyCjHNPnJDuilOeq0FcRz+VOVD2QNG9DMg3wOrVSMcBQcE9CRMe2XlqS0YMeYHlTA98Md5jXqK6WZMlpxAdytTLloyZYgQjH1l3+g2RTtat2JNOIjxMtQWfWxjmM6EmmlHV7c0YfzDe3key+aElGJnjsjzTgKL8l3cB4qgCHcRuGXEog7QJsj5+RjEVTjiAZ5+lhyOpKzY5+KAyhec5KMpSC7qyiTCrzZtSdkT64MUF8Q7KjxS7iRgruUD0C6e+xi+mQqDhTkY/4+WQka2oiKKj8uZFkpFIsrepIhnMQc4a5lWo27TIULPBXkjnrCSWZL+WP4P1GsvvCPqRz1phCYK9BpsRRScZonQkXNa4HiDAsw+JmYDySLgQjMpYDaqjYAvxPllb/AM2bglLaoGxSj5oiqGMBzgiv9iEdSmAsLewzms3imXNDMgbyopEHzUz3E0nW1kTwUsxoCSippw6AnZIMV0Ay2ddWaRS+CPp4EO1dTED2jEkUyUhGG2TbEyQZtDUwl9tf83tc/8YqSOb5EpjKosPl6DksTvae8ocRYFRPEQo4Otb8W7V5v4vhXMdZwpDdIeOQ6BN6tYMYMpu4mgtBw8CR2VzkbZNqBRnBSHfdMFeNOqGVdp5syhindPed2VD+2g86z4NkGTXSzV5l4tkp02pyqIngpeMRfZQw7NFT1uKToD0jK3U6y4xzadVQFwCZEnmeTJ94JoFHUezZNZysQu3CZ50NSTK+GLZTu+wxsQKSyQUjh6lRBG84lZUijhzi6Ak/CjqqpRGa71TmcVyXcM3yHMQlHMyITgwuJW6sSL2367jwcqzv+z1BNLDDoojp+Sr5RT9DwVIJJzCnVioLFiGUN2FxJz4eCjswAGM9WhzLI02QiKMzJUosuvrr2cnMhxWSrLQmsbKRMkPMRWYS6WoCkDEeZUCFOzAKbWhbHHjlhbR4R6tewO9L9BCMPuZ+KshrfeK3sifEfeJERr6iGoZVswvZE0oycbkoV1cb8KDxwasgmbguxf+uz9jm6gv26EXzj4lo032u5QYttaMt2Et0rituGQP16aLM5atuOXffhX2RxQYjsSim787GpfaozPrASki2wVBI9ihH84d3WQDs+avBRrLV4XFIJr9H+RscvuAiq8FGstXhgUgWfjrpAHvKI33q/h/YSLZCDF+fZEG5NX0vDW7uYUP2uKege2wkWyHc1/fa+qcgxI9R5ORFDPCAfP154nZsJFsjnmOQLw73w9fEt0GGJydiRMN3JecVKbKNZBvug28j/7sfg4Rr2ntZLTaSbbgL3I/AhH8SefLifslq8YedO0ZtIAaiMPwX2kVamNUBUqRJ6ZQzxZJLuPcF3KTwAdLH4Au4yFkj7BhSppBZYt4Hgof6QSMNSEUm69gfztfwft6dWsP4cWx7/+nL0r9Skcla9rd72fGw352/dp+nFh9oOPYLg8gafFi21xTe1jJEi6/L8IAQWYUvTJFo0ktidOYR6hMi0kmOTFRolgC34mAbRKSX4uQwmhSGeYoMLYlILz4xRqKZAjzXqn5RpKsUiRgvaWtkzw5Z/aJIR+5Y3BKzucEmIyK9pMhEocmRsKepwlwQkW6qkwOaKPBWHMqEiPQ9yoymzlBshFQRkX5GZ3ymMeeH3vBFugpLkYHkCRG5A6v4dAkqMpH78GSaP4vckyVGROSbvXt5bSKIAzj+U36E2eAaHwg+UEEUDwohlRnzsOyQDenJfehZ2L/AkxAVfIAHr4KgqAjeBE+CB1EEvWsFF5R21bCEiigeivTg0ZldNcYXiruJsr9PS7tpe/3ym53Ztvlj3AAATK9p6UhI5pj07Qpym+trXwAhJGPc33fAFgcv2KiurTatIAnJmti/ubdw5+qeoxxKVhxJWjASki30X/d683cunLjJUUZxbNETjIRkC+V878OHx2LHWuRhHMcR3ZURknlk8xcfCwRgTtxXbxY9XUVItppScpMJjihj1Vjk0HqRkKzwCgOFIaCQDoPmII4jSduLhGQFZ2YEQsKQQiIKKwp9Bn9iRbU69Vm1ugIIIUOsJHyOkOBz0gTueW3Xh99SnZquN1q14Fu1TmN67xTFRgiAyWXXRORCCoZmuYQAzkvLe+qh+lblV7NrarrRCn5Jt1bfWwVCigyFN+tyaFphOOfb3a6vu5PSW/JKfOHik7U/C6zeCn5brUGhkSJD/+msBBHFUfeBIhEUJpdeCdHrLTThe9XpTvDHanVaO5KiQv+Vx/WmfXQ/iYyBYsy47o5tCwviB4W1gj81HGjUGSkiFH4ZmBXH1s3bt490k8hQzkmOyJsII1bs7QR/pzEFhBQMImMAzXa7/eK47794McNBvfQ8Dt+ZagQZaE3TOCOFgkI2VVTSL9lnL9zxZl+5AgBEOtAY+3qItYKs1GkbhIzHP/GbJMznPpa6XQE7beG4S0tuGQDMis6rLJ3Sl8RqQZY6tGokuWOV5cuXbyhPPDQmfR+Fa5XBZChnl5Y8E5mBoPkzjpkmNp0kRpmR/whWliv/Qma4TXDTTHY5OG6Xniu5tG0OmnSaoKkplocOLRpJbrCc9FX69AkmizkcEEzpSkBkwvdfzz/hazYxAIY5JqY1KLOvMJP+7mVmzA06rgrqgfYPZIarEQBMd1YiKOJdr2eLS2cPMkCDYbUT5Il2Gj8xtm5ZpmxZSb/DlwnVmLaSwZfMDJgoZMjc2Zn0hGx/b16KK4eOcuBzjr0Y5KtFt2YK27jsi5U0zv4e07MrHWZMv1ypL9dPMjOUUnIphWEigLAfP3bksWM2B3H37o3Hb4KcNWiYGat0Xau2qE/KFvoXjH/NVEkBGGlmOMzMhEkxrCiUjHHbFgjIShXOedlA01ZPWV1/E+StVvRhZuq4NhoIgKV1ujKaZZlEpqTTrIz6S+snmhmP4thhIC5dvSYAmlKWQKm2bqvIbj4M8lcv9DBDHVYZPqno4IBkExngd5lN6K5XqMi6Boirh87ZJnDXdQyAvcHi7Rv37h0OxqFV5G3GssqqBF+sVC/pj6tkE5mG5Q3J7qLOzEgzYzBmyEwnDMO2L+ybp08+l0Ja3py/+73y4e3CmYfBWNT2QmGtGx1dqLYZtwLJKrL0yGw0s8oYM0OTC+m024NBOAhTg+SD0m4/63afPLm1+ObNWEKrQ0HhyCBLF4xbgGQX2chZ2XA3ZDxQWGHc7z9STn2mLvW70u/34ygMVW3Pz19ezD+0TkFvzAwVGX77Bdr6yDAyjSWZbTRGdkPGoWnpuH4tzS0K24cXg+/QjVkekZkUWeaRjZ6VocpsXI80rh08Sjoa9ZPW4sHlIGe1QlammzLhKyV1ZEaRZR7Z8KxsZDckb+iEcRyFg0Q4FCnxJ/3+5+767R8uGenE7C+hOiWrwFe2Llu2DkjmkY2eleG4nhxe6zh60yNJqp+Io6FkAyTtT/9AtGsMGyBFrGzr6OQyk1Mz8pGd83dtI4bi+F0Qx52pHUMx2A7Y0LFNKBlKaUpIMJ29dhXd+zfclCH516pJHQpqeAht+QMyeIt07y6HSfzjfKczxO/jhAiPgQ96evrqeZAMNSsjje1oxrpzEOnrFO0PrZ1w/z4t/vKXkGXN1IvjZ8viCUU+PEmGJMPWk8NfVNlWTN0PrkXxHSLk3YptjCyrC4Y8Bgmuo0nW0SealCzpxEuajVtODrM55BpJkFIrqVMNroTUQmtZGKgWKx0jy5ooGC2D406nN3Gr44BoULLu8MW2FrWcHH4vRaaR0tpcGaMAjFUNpPlt5JVGx2B2w1dC3Y/69MKSPh3ImpQMD2FL/9P2k8PsOjNJghBmpozUaibBfuxSGpRMmFu+Durk1yYZhDljeujSpGRxIRDrDEvTlu/Kym6INy6y2zItpcpTVcaAFFIYsJ6JdotF5PsBZj9OwvBsOu1TY7FhydgoV8wpxQKk/eQwu1apRSsBArQGbf9qoVNIQWssFh94u/wIDo5elgo+I8maLhdZJs5zzchQtNaTwxczUXbtM+xKABRfmke+DZQWrsMJSeZHMhxwOsqH6vSORizYS3L4o0SdtNLgqkUJoMxM5o6pBW+fg3v5QjuZL8mikd3CGAaonFLdYIkYNfOeHO7OASWTxn6ujAGQYERu3v0N3wOH1vygncyPZMxVgb3MpigOErRpU3LYS834AY0Cl6NSRisFUsgisbh9sUjNj21g3eQVpmF4miRWspPkFWggY43uYjl9keFo/PXJYV+Wsbl6vpDWKhVWNSEBHdu+e0/Hsi1IxuEu9Kc0j3G3cjHqxKhYWUCuTg7H+d43DDzwcwYYo8JfgCJfZe54JSj5senoVQm6o254/MAmzSLs+h95yFld8lsj0iXKONW+OH+DBeNxaJkMTisy6IeUaKw5SGdzOyMZ5pZFeIprls+c/1mo9CX6/wPfH9+Ct4bL22N3qypRn15y7iZZlUfQbseLcfxw0DRu3P3NPaQlO96QUcG4nmnVVyz0yqyRWNV2imGL36azmQfJvnLHoxGWJcfUL14V6jCuY1IjYT+lmae7tfCrjPJg1kgvkr075xkLk48ekIjCA9k+uQzeCE/snbGL01AYwK8SSlvstUtBb7B/QAXRRW8QQST9M3x0cnKQQDZ3JTd0OnBwdXXSIWNwCjRk6b3SIIRIS2qhiZDEbn6vSXxJ09Zri9TU96N899JeO92Pr+/Ld9/jSgQyjru4x3auUSKwBuItJNsW2JaV/oZkj1CIY/T7/SEBfvZ6PX7ooB1gt6SzgF0he0kWc4Ptzf6aZE3oCPkLkt1DEbYipVEOL9mR3CyrFFZIxhVrp7Xy+uRXhpeLXEYyNsQ7h5KdowhHkZSeJOka+KWR8HGTZCqArs1/nsqIIHUgIRkX3TFrFNd4eadAqNe4pc9gkuVPsnsoxulJ+lSTNEkByS4h9JYkU23bATyv+/7Vy07nxctXr193u188z3Fs9Q/S/d9lfLKfImLRPVnpRiGmtiqN3SrE3OaWPoNJljvJzlGM3Zf0b7qkTYlkEwh9GyVQvZejVqtlAKZpYowhkAgYwGg071ykpnmzVLZeMq6xOLq21iwAldWNIfVm7ZTkrSaTLOeS0USG1GH4LVGBoCu6JA2Txjjzq5aJhfUQ4YzWaO6F72KpbJNklTiDlRpgE7d2SBxHLCwzyfIt2SNE6QwVTdN1aYGuDeeI4l0ZGPOfsfAnsBEV/lkq2yBZAySiPhWzvw/m0XOUmGS5luwmSqB2whK+YZB4lZTFbpmC4H/3/yAYXsQOWsF/XWBMSUYXsW+ZRrkz8hx9K5Ms15I9Rknej8XBYDyZTKfTyTjVtnhhCMJ3HyTajPmBh2jYaA/UI+wTzkiWKBHeXiHZXfpcBQbsMMlyLdl9lOTNWKSkdmRzjH0/pRg2DVL6WNqm/Qzg2nDQHjiRa8c0iSAlWbq/iqPL9JETdHnGJMuzZA9QiosNkgluQieQq+26bd+3ZibPU9EwT5bmXpJ5i2jbtIPxJPdkJIPqYb0arwqwSlMMN2rRqsIk25bSKXhS/jckO1+SbLJOshHmY8lMoG0GsizPLEuWA0t2cdsUKDtK9kNFBPUivLKPqfSRkawKq3qlxJWbYY2eQiv8p1WuWiOVfo5Jtr1iAGj2D0h2E6W5mIriYDy9nC4ks9OS+TgsHvJBuy1bgLxgBo+Z7GO8t2ROKNnbRfyiHlPpIyMZbbQiEm1sdqyX2X2y60OnvEVjOw4u2UOU5h3YxcOwqqcDkKxPJbO9FsauuRDIBbF82SJ2xVjw4KNkRmTDDtqFLzaVzO4iyv2TvLMsGVCsbxzLXW3ECpZPmGRbQM/2q1LNDinZM5TGuxTFJ2Qmvgho3m/HRq0rkIzoY/jyzG0T0WLJ3ACuSDJzzT0ls99TyX54R/XPm1nJ4KLWqNfvNOF6NZUzaFQ8q3AnTLLtFeNS52oeUrKbaAnvG0gGU4SfiMDlcxQxN5Qh5gNIY3w7kGe+3gbBYgI9gERmwYrHAgCqYQ/thOf83pN9so/qVtkqyejI6Ayp15lk1yE7zYOrJk6SOJxkDzN/5ZIotr9Gkg2GcTF9pBDJeIFUO1zLCnRd8S05xNUkPcprAcZhKsOt3SxT36kQbbLqRslNPY7viynJtoFJdn04Ov+X+BbWPeiI+wNJdo6WcH6xd34hbhRxHPfP9cwdvZ5yivYerD2sLY0i+qIiEiiSPN69+6Dow/kHDy2V1FNrtVBRVvAPGFTsq75VEBTp4+BTzhnmvG6y2SXkLtGlSyAX5RL65ndmdjOJm1ttTM665Nt0s8nt5Qq9D7+Z737nNyybbVckZFDOtz62bUKcIuBJK6w4IwZr+3WMGQZpN5qNJrzGRgCZfY39d5Df7/Xt876P/1M+Hv7iGLKRS+/rp3lDV2Dd4j7x30D2UD/IcqK3aVaK29+JUrJtMkCGyH1a2B1NbpimwTKwO6qZDDMgwqgqbBk1XNy06fvXBhnse3WiqVOMxaQNwRiyEUtvFqFf6AmZ5m/PIXswHLYg2ay7jm6Luaxfy5yLP31/hgIy1KdMtSkKmQzpZ6rVdBO8+aLNS/hiqxhARp795+VL4vRdqPTJN+MSxY+GbKKPxpBdg/SYUNsdQMqfkM10jST3HLIn+kKmnA9LUWbVDUJMShggc1S1qrZQvmir2ebNBuEGt6khB4/ArNHaBGMSMufjjy9gMefvv1/Jd/SXn3Vx5cy2Jm4nRFl+Ox8bE1+k6mehfon7BEzGsOYn+nzG3bPQeGV0r7S7EfFCeyJ7DNljYchoVk7K3q5kXBBGVACkRglPFk9tAjKlDG+2COe8AdeDFRwUtpb0PhqNADJq52qMUGpCQNQ4d46xM++ePPm+1BfAb/siY7S73vlI5b9bWdnBabzWu4AMpf7LWrTC1417fERL16vunSPCNU67+3sK2UPhAZoJptzUGihL5Vw3lcpZEjLKAFlROYrVdrXVrlYZMXmmiVJmUkCGbJUIgWQ6lYxmlSwp9eRCnlA9xxmxOSFXQ+n7K6uLG78ureA8VtuVTUbAg3BHH92diIBsvPeEUIiqYFuJqb6zNY3ZHkL2YJ9pki2gaouG3eVSKlVaK7VR0QxTuosZP0bFeC53qcU5480qihQQE5Qp43ET5qKGLFKEAbLQP+DcH5ehxQtd4OfjcKds+oCUgizckzGsvtXwAfUp4574/RGb3iWvqCdkoFBesmeQPdwHsqueqD6pylqww0slVZeQ2fAWYdIjUdVghKcbLcoZa0rUIALIpNJYAQPIzF0hc60OZNxgIQ/y9/ZloQ2aDxD7ZicfkyT+v3UXD4w7CP8Vsd7Cddduo0Hte+jv2RvI4HuE9UJNkpAqlUGYVDmV44DMhPFRbMp5F7Glz0FIptWWrUB4utkWtke1Vc0UuyGzrBBkNOMGZ9wgIci+QyETWtr2GdsO/JAYrNyE5gcHZeJusZBzLF/hqjRxUBW16LiVrn4jh0z7HmHnA7LaqfVSpSJKWSmd4zYTkBXbl5rNxqUc56RxCafNKuZnjTZnYkIGxhqYswGyooCMmtIxSaUymXatlqt7nquIy5RQGqVMxggSVL06syEQe+65xZ2YOR+Q7p8ziCbuGhse/agJjR0P/Q1moUjjSCF7/Jl+40W/0FherpYrYbSISZmAjMLSaDWqKqtImpdAmFKVEPms7MWib3woyNrltXK5UpHN9VMQgEthN+q2K36A+NAQZCd/vry4tIgDIIvjBi9yndj89OQ1a/YOue5srKhd/TQ90aVPO5IjhwzmYljvk67501aq7cngh0EoKpm6GYYscKuKO8+BWl1LXtowPgCZYwaQdfaHgcoArlRZQ3GEcwnIOA/nQi78sbG0tLS4sfTLM8/EcuuJBAZ9g+qOcQt8KHLLsehAsJ6Q6QtHCxki+H1LWS4byOJATEHGqJhqidGiQgqFLKQqHkAMciixNWQhrcG55K7TD7KdxQ1Y+IsbJtyO+PWsEkrMD8rYgTFjvqZ9Tz46/BFtR+oLRwhZ2MEPer8xzzcsrKzlWngEkBWdYjAurIoDsOqBDPz9BTJM6vpjlsq4DiPmTvhG3cbi5V9/XfwA5zHscSo1M3toXuugaMQ9H5IcVnbp0PR4w6SOAIouZBExxuh71/rCkUEGB7+/LohW3LaS4ySFhPGhVmQ2FGDNoHZp6KRamwFkppWV6z8DlaUqlXJZOZZZVDIGyEI/fWnx8uIfdjjy8eQN8VSi/73lSdEIbqwIyDRmEY59dApLJ4dHBdkju62cpIQQSsEJw4Fyym1AZit8sGozXW1WA6iqnS4ErVarnSk6p3zImCkqYSbVrYxQen1trQQbX0BmmB/0yZwAsozONMapZdUYsuFBNqWdjzBDB2cTu8zawlkrfeEoIHtiF8jep4QDLYMxDswYBXFJv5IV8YDS1WrLL2MNPAu1mriBBt8DFwSQQR6ce9cPVvnyUpVUDa8EZMSGvREy8TErI0Ehi1WfjzFkQ4QMIMwqzMKTLgWQCgRP7obZvI40asz2DrKk7dhQ0pE7uODJKZAAMilglsHKFoGYNEKarVYTkMFydFDrNGT95KYznqLNYcTpA9lPCrKwboinxpANVsk6XuH8VMill5pORCQVe7NWuiruFWT5Xz64ahsG7iDXPT/SazimDXgAUEDZZlpwJpp7ZJptOPpArInEx2YHMoQg+8pCGfMhM4x+nYa30eeg11uMTeRjZvpAWLLvYvjt+4Wd2EfT42wwUpyqCIUzUn54MRgDJiKTinqkqKvisCF7NKJtFBU1p8bcAA2SLGz6nag0Z/iTThdbgAuSnKWLeB8P4S662Wh5DmfJ56+EISNG7swzMYRsCobhMDQ/xmxiPrArejNSk+IcpOjiFJ1UnAiGlLoq7i1kHq27Hq/VCZWZYS6rmDhooalwqwm6WgqzYLSYTjs2s73u8iXk+rKUPIfRJDMv7lzJ967UxGj1i357du674X+t6RuHpVvH4So91uvprpjoMKOLk6YwKjmiq+LBPYOMZOvcs7IeM3KEYouXnGeEIQNlmQCwBupZs9MSP2lzh3PGGCEMopjhmabtODg6SXEUbySpWTBpjdBPv1Cb4YKw/O+rjFKTkh8v5KEYhRenZBGanf6Xmp0XlI1vmfW4gjpMpZkJMENx+sdZK8XjnkHGXJ6j3KtTWmccR7NW60AWkCRft+HmC8sD3mJ700cwk07arLBcsE1KYZtQYjPDJJyKB6M1Ax9HDJMy6iTBXDp1IllIXsTm09AZagrBbynY9rMrF3bycalkN2EZ5lDGeZPjDGM4vqjvfGlm9FhyKjprpa6aUe7/XkLm1TzKSJ0yj3HXYLSeC+ZkGjKcydBwO91utdN6D6V0sWCaywWTcUK5K0DFBI+adUscRVcDM4c3TMbqObtQwh1qqAStC21BeFLnJ048m4/HnKyznebM5NSA6aiJqclEsEB6HLDqxqzLku9dMKanbFFZK1UTJ/QcbWKvIPPqqEMeq1mE1QmhuZyuZMVu0JwWPMVNB4R19MOpQmF5Ocktqy5yH5xmvVo2x7Kul63ZluFaRJ16zCXJko5aib9KOMcfqHziQjwgm0Yhk5MGMdqbHuQX6sCN0CHxSzRuPxAe6wUZqelusnqC+btlrXz8JnpXdo7awoe2mevVCacW4RYlXq0OXhRk+q+vopNppE/1qHUKjC079Rq1eJZ6OTtbA2c8y2g2B8isOsnWGNxFl7u0AMiiVHHysbhPBsjukOsupQagDIwJHcSHjNeV7bI4erJD0UwYs4Q2S0IJq9nehBXQ3QPIdlg2CxA8K+dlXeSEIQVZsXteprcr04Dhza+bCrJavQbIDCvnuJYrK5mVZTY+jlJLtnSsWzXTh6xSEqtgcFxbq2C1KJah4VyWtxM7sUh8yJ6JOOJJbEw2Mcgt67vvwGFy3Hdx91z9bIciPUvTkOlSpb81HGIMBqEzI8wuasggQAZjsWbVOCcO1LN1bRovQkLzgfQpCVmS5lDLXKtOKfO8GjU9MXwkLEcIJ3VM1TglNLlckiitY0aWwmSsDMS2MDmrrONc4rf+YSyyiwqyg8KzmBlkuDcpyQRlB65/yPbvm5u7bWHhyJF7hY5ACwu3zc3tG9l4X9ctbTnqtL0GSQAUMvnxbRF940aVws/nr3wBo6NWMzhnEA54KV4bDDUrUqhqDlRYhmTHRRwIpzhjRPj3lNiOSQjFNfiKjeskZOX1tfL6CQHW+lYZB4AWQFa5mo9DCl9BNo9jYhqQJQbxFKdmxO7S1y1k++cW7j167PA9tzy9q26/5/B9R48fWZgbrlOsgeoEERMzEz46CqSQWdLd2moqogPqaNaT5VeuirtYNJAJ0SB46PwNY6zGBZPAaTkJIfnYpUKwhAa4+T/BTPqVTJmLoAt1rFwCaDhXfXyS+TisJ1OQARUIp4O0uVKauQ4hA13HDt+uWbrl9pNnz66+fvrc+fPnz50+ffr11dWzJ1de7OXt8LHjR27bN2zMEgoexVFQ2ab6mSWqpHUBGkrkD0P7dnEWC9z4q0jWF4+krOi4qj2IK2x6y/UsEX0kAjuwZ/STrVBaq4iVZ2K12Zp4wF8so0+BmpTl47Ay2u9jf0hFNmYG7o46e531wp87cvRwULpWVs+98d5Xb7760lO76LVX3/zo87c+Ob168sUOj/ccO74wN5SB5FQIsynBzYHJvmaJmpxp8zE8YxtZjw9oJ2lo+byZnXwUSW7uithmsiYRq1t4YswSwmtB17cAtT9k69rAF0dInsknBdmVOPT4kJBB03dgb82BAhszh9Aff/I62nBi/23Hfb6eXz3/2Uev3vzUNeilVz9675PXzwaw3XPs3iFUtcClR7G6S7EzFWGW4DrM5iI2fhlVtyro2aTBKQcUgIMRnFBimFaHMgPjPsy8ikqbUo4Q1k/XJGIoYyhoPEmEGMKPEjI8+sn0IYPhgdol/I71rZI8KXUgi0O3Kh8yaND/RfWt1wlk+xeO36P4ev2Nr155anC98s5751dX/BEkSNs/jEhjODkcVkI2YIzawmxkfReh3wLIiIIMB8PWe7xwRhg1bWlvyFkXpYRxjpUxHi7y6h4487I4S3IDEpfjieIRBdnaOigr4bj18hb4KuNEV7I4RBclZP9a1wdkc/cellCcPf8l+BqGXnvns9Mn/Zp2dGHfkDbbjM4sYtAYdj6Gryd2g0yKG1q2qzoxcsYlSyJTX+eE47WX1XKBGDhTEzNHf4AaLkZDVi7B8djCMwrZOtxGDdl2DAIfsYFs/8LR2yVgn3z12lPD1c1vvueTdidAG8K20doNiciKRFw1Qg8fkGlpyFxZxP5k79xCGymjOB7pxniJl5hgVLy0tTfrpbqIXRVfvIC3t0W8zDCf40PotFB3Fxy7XXfZS9xNUlrMWqrGmtiHYmIJWgsVF8GCFBZ8EBUUVHwQ0RcffPXN//edSSfZSbtpksnMxPx0m5nMFXZ+e74558yUKwbEw2Y8yP1Bs0aYw80Y94z40WLVzsNFnr7HL7j4DQVpPvG9KVkblMnaQ7Jg70CAJysOvwfB7OG1t84eo4g2HAo2sXPYuooluWgPI9Ul+0mUsDj4BMi03/k3UvNQgtfN/jIVM8OYiHN/0UjR4Osfa5cM8IZF/MF/mOZ/St///k8bZPCrSLZnF7hBsmDvEDcsevpEl2QvEyeOCNECA/3+JnQOm3dbVguhWPU3e9ucXvzz1+8EEEq8tYobdyfl37ll75QUQxN9+UgRDVhIeJQFtj9qlEzYRGKRZ5VAsjZILlolu/raXXCF45KFyLD9B6XWMPHUV58w0NMXbk7nMLIhlvGkmRyxkcerSkb5+ornmpH7ALgD46nDd6AYmkHeqRgp8jD2upGzJ/7+BZoC6GoIakBfw2Cu8C+P/nwhaGIEKJnhf/DoP22QXLRItmd37+d2VjJ/X5Qn//a/IbWOJxVl46NPGYgOhxvuHDazIWZmxEwuVsHmzMe/v/wtfhfmH3xwCA0Af5wZg8dv8WodtCOK1zJ+iy4rw53pY19MsklBMjmbTCYnJz/55O23f/lzG/4VyFvQZAVYLlbl6cs//2mDvEeDkt3toGTB3h5h2EtSS4Fk4LOPPxURtM/fSOew2cthKmZ51ZUFOzMfb/7ASWkgJSZLsymDH2aNL9/kfGNidmZdiGW9HbDsow06F6tLdvmemrjGScnCg/wif+z9LqnF3K+AMs96+oONdA7TIJG4pvz1VPbzsmfw+C1ZdclqfBTNOclEEIseeU1qOSSZ6RnPgwyF6u8cpnSH2WrfIsXopswreLsU7UnJxJ3Y+PQbkiPcq1Rw/qMv6hk2Vibx92DiqvLnXVrC6MsewdtPbHpRsjBPJ04edSCIWSUjzn3+NjyrI5yZD4tBrj1mcrFF+F/2CG5swe8d7G9bycIDvKvjPckxupRqiGFjd3+w3s5hfEAx0DLFqEfYG7gxgR9l0TaVrJc3/556VXKQp5XqbHyFcBYZDtbXOWxmPloIkvie4D43JvCRFAi1oWTBvghjY2cPSI7yrLIdn32EKnVg0F9X53DNrfb/w/GiG0eLvm7GBtpOsmBfgLFDCxOSwzyp7MDHPAkyFK6nc7h2xf53+UU3jha5ZCzcXpIFB8cZO/me5DyQbCe+/HT3moHLgrsZKP6/8ovu7MCPsh422E6SPbQfih3/QHIDKJPtzLmvSDMvELzvZffjzkp0lPWzQLBtJAu6SLGLSwY2hGZ+X8vx337zPbvj+R/czz11cPPtdidLouySHtbXJpKJgeL0CcktoExWm2YBZBpbSvgJuYPJE36fnUTYq70sEqxZsrsvL+NSSHbF5TVxtWXTpksWHA4wdsw9ikmSUhvnPoVmfa3U7Ga5QwXa7T4bCbCD12HIWKtkzaPZkgX7Iy4aKAIqk9WoGTKN0V7ftnQcs52Qzz4C7EBXH+tu8e/ZJK5qa8WoTFYrH6Nu1tOiDEhY7mBBs3Ekwdhr0m0BFqrxNx/d1USu8TWN/ijqYu9KLmPHDL61PI0ukMGWjBk792PVuMdnEyTZlcMoSHuYXq6YG+piDUgGziMDEmnBmDEod6jCcz67CDKGvogbGPNGrWa7HsXJM12S+7hf2SVfYsw4YHs6PyR3qIbfZxOQDJfnlUMoSHuTcA9jYwtuVGz3koGPAsgz+qy0ddojpcluwLY4A8kkcCMLePI3xvOHWcaPOt6jWB2UyXbPxmPWBIhTkmVm4vF5MZXF1LpM5HUVX+7Mqo5VamVWX5IbYX0RB9tMyI1hY37RT5LdwQvSnsM/xNgrZ1+T3Aokq4MXLcHMKclmVFXVzSmKN9qSGpcvRkzdhTfzqpqV6yelq2p8bWZGrhEnJBuXOA+wiBsfxLlo7XnqgORelPo4z4OZ32filGRLKsjKQFdBkuKGGpuVd4IkK8o1s6yqm3L9rKtz/ERzco04IdmYxLmFF6S9hHiaZfpVycU8rdQHBbOyvw6HJIMqYBUTGdWULKGn5YuyGsvLO9BUyfIzspaLFTW5TuyXLMwmJQEvSHsIUXt2UweVhRpq0TsHswFzaOGkZHOYyJdJNtvg1dx0ybSk3Ditkex6XpD2CiFX1p4r2W2ZzBrMomEf4aBkdAO2ggmSDGgp2USjH8ZPy8wFkylsWolWIZlmXV7a+oJPS0pSs25T2qMLJDskCboGPVOQ7uVvFjgjuR5I1gDnosxMRjkm2aKqi7yHPkOSaTke3mbSpVGhujSPxMUypuN6RgZragI/c2KUOaMn5YKuFkkhbUVsmpVN1ouqPqeVJMviGPpKuSEruqoW8zLI6JAdJGhVrYAl8bSIrFgyiy1nZo24uIQl61v7V2MrmvOSnZSIuz1SkA7zZ7ldm7Uv536lIT4zh4zOSVZQVbijq3FDsrhKZGUKcGA+zrMcSVVdkcGiqmpImfCvUshGJFQg9NOKqgDiEaVRaDxHkm2qNGs4YR6sgEk6D1lThcOasWSNcpNpeAUbZTq+ICfTIrFAc1iyEDsuEV2eKEjzrD2bfEPyApCsMT42howOSrauqnl5FgKRZMvcgriOuIHFacOamBoTMwlDjFluZUx4Z4i1SJrQpliN0HRjB5CMMvExbE2uGo4UC4t0MzhHIiZxZMPueAxbpnBKW0fJ8xBK+xNrazriJA+GOddIJt3q/oJ0cPgVVMaOSt7gXqVRNj5hATQzOihZhl/0awhXJBkkSItko07Fs/gsv6y3l0zV11MrtPYSAhpfzaygraqQWN7USYkc/NHkLOZSMjEDiYRe+QrJhI96WgStguF9JhnH8cnbgqwlRFxbx2mLI844LtkxyeBKtxekRdaeHXNzZawCpXE++5SxYSclgy4z/PrPkmRFKFcySdNpCDezk2TzdOEn+Vc5o/amlSSikeA8SVak8egK34YoqjEaZmYrJBNbzNFMUUim44hrYiZPRmkxfmqrtE0OKzsrWS+blgjXF6R5voONubDZfhu6lGbwEd2YOSUZpNHFfRZJNl9MGTc+GTmrUutHfgfJdI2+ykCGuGYsT5m7T9KoETKkuCRgEwKZEs5hmxRWqpQMM2tkIYRdptHorAiRFPbE5yo/sWIGM1nZRZJd6eaCdKib8TZFd3YCV+VZpSl8/Dbr9jsnWQLSLOH6Jck4yeWiyHzkDR2SO0hWNGTJGpvmiqpZChDDSNpkU4zqNJAlZwD0wRqJtAwqJcMGWaxK4mOtAu0tZvgM+LnBOxCf12TnJTssbTHs2oI0V8zlPVT2SAbOfcIiIcckW0ZswHVfkixVKJbSi6tGRkHbQbK4iHsk2ezKkgrEckCxi5PgAq2pJUhdMx8Zt0Qy8T2RwgnSaeAsxJKUEQ8TlAXB13mnJesvl+wOlxak0WsPDru6h8rKk0qTOP8FY/1OSYbLFX7lDMkyuogucUOyZZlTIVnRKllCSJYWm84Vt5FsXS1htm1pc7qwZHZLsoyQDLIaLIp4t1wumSaDNMXDPK256rhkU5KJKwvSfk8qRhn8JvEV6tIOSQYVwLohWZEXejXSBgGuUBHJFq2SzZiSxTC3pmE/Jcm0UqJxEQIJmdOcrCabpETtOyEkW8d8liIZZtKcJA0qV0uSURwF66Q8JuJcW81pyU5JJs+4ryAdRGHM7Z3ANktG6Y9BZyTDD5AkySjXYdxlrRkOpUkyY07fRjJamzQwd68ZCcdNWrmSZF4GBbH7OUo60l5w+IxMVEpGvgIaQ86nZIqgm85K1gfJynBbQTo8zMDUQcmD3Ks017IhZySjh8pIslLwilE+kELEiri8MxSX8GGVrHxwqZMghqp52oRboNPe4NH6Vgp/kw6mC9VyZNwMfhpeafH4BZLl1K0awxqWJIy+lHWnJftQKuMZNxWkg/09DJzyQguVvZJR98dA0AHJqLvClCxBgzEeV5Z4jkKUj2MihY46tTazg2QrRgF6TSZy8DJFFsOmBMmS0YWMdPg4fSxRXweVqrHLrJjhm8QukCxDbVubwv8V8hkfaaclOy2V456CdGgogO6OqQ88lLSvRGkuXwZYT9AByeZFvo8ky3C7kqu6avZaJPhMjAZ9+iLaOqpLJq77fDJn5iHIy1hiSSXJ0lhhNTMfw8pmpEtkknM4PF8KsRZ1lXYZx0c2zZdXSkaV8cKcLs5vHRKvzeZ1x+/JhtlZqZwXXFGQDoYGeeX5+Bn3vlrgojytNJlzERb1t1QyKLPVt0EJi7gqWBFZDg1+gPiSGqORHCjCiRQk49EnZUqWERICnZwhVlQAKSjUYAkQ4hBZldAz5DDI6WKXWd1sNp4Xp0eHxNnqZU3BRZqGcE5LdkQqpyvKuvtCjnoW7OUxjE2e9eSdWAmUyZrNBlnWOskWjbChp+CQMCkT41ZsQrk5Psev/GLKaH/iAi4l542AsijEKFCPoq4ZKfylLK78nEzQ4DKWTQsvS5YlzLCzrguT1jBJmyew44KYi6lgKU0qZinuJYSZwkb0VILZuFF3c5lkCGWc7sFeZ9KM4b4eBg6ddvlTzxfnSaXpnI/CshZKlsol+aVaSHMhclnx1Wohr+G7nCYsmS/kRY8hOZHji5axHpZzbbJiLXxFD34ti02Ty/hRYq2wihXnhUZYtFpYzshlaPmC2CcdOZfGKsYutfVcYZ0m8zgFOqSxpJDblA3SucJq0vGOj0F29IJRDm6wo4wT6B4avvamKy7ztYpw/0CEgeNHPZiwryaZSy2DZE2EJGsHWiUZ2M8G9jz0wP7Hxphg7NjUkRcuue3SPT5bQQQLMDB++F1P9U5tB5XJ3GnZ7XIzaR/JbBu7DbEFqZKXGKNAcuDEwqnjr7At1/a/cMmND/maTjDUtz86Lo5xeMEbT2M6JRnYiKJd2GWv6W4XyezKREAyy8sypspLZ10H31o4PX2IlRg/Ob1/f19v2B9sgl7hUN9AxJB46kw7jBFNjDKZKy3T5KbCXz/QBjznswlI9q5kCWXjlsw5XDtzdurYJDMZi/YMDA7394bCu/4794d7+4Z6Iow4NHX0rTYZIpajELZYFvQ1xD1yU1lEKrENuNlnFwPM+hTkMWQct6HrwIn3jsK2Q+OsnEAk2j0wNDjc1y+ks4S5YNDvD4d6+/sGhwa6I6anx06decOj/RwXo0uxi41Io1Vpf3NDWXIlKXsf+wIZJHtfupD32NjFr/yJgyfeP3Pk9NT08UlmhcyLRKLRSCTALJw8fHrhg1fbVC/iacU2UJUecNddWRug2dhO2MM+kCwcwhhyN0wcOPjGifffXThy+tTh6eOHxpiVsbFDJ6enTh858/6Jgx5u46idZxX7OBdgQw1a9pzcoZznbHQMkr0lWTjKTkoN0TUxMXEAvAoOHnitrUNWdVAms5EXG36+LHhPR7Myxey7HyPJTkgWJsagXoeGuF+xE1jW62sQf8gObn/+TVt4+J6Qbfh99tINyaycZtNSBxdLBssCrnxTBBh58OWm8/Coz8N0s2r13wOMtVnVquXcq9jLYyzgtofYTc32dRQrJ1pVMhSkT0kd3CwZLIu65/lai2aP3Nc0xR7f6/M40eoh61X2ShvWh1uJYjeffcK6XfDo37aMPtwUxfaN+DxPhB2UrFBBukP9PK3YznmeyHczI/vuazSIjbr5n5GGJfuAjf0fE+9N41nFfs4xF7/xmdj7YP2ePfxIGwQxQYBtMyw8yVz/myzdDCSzn49cnPwwPasrnj3eNobtJNkCCtId6uZJpRV8xSLuTX6YjIzuKqA9vG9vW4wSt2CsapNTpyDdIPcrreCzL1iPzxuMjO6rIRNy34OPtJlgJNmEVJ2znYK06yVTNt5mwz7vMLL3kX2PP1zVrscf3Dc60n5+cYLbS/baeKcgXT/3Kq3hS95f5TWCIyN7R0dHHwH42Lt3pE3tMiXrkqrSKUg3hNIqPvdC8uP/DSSTqtMpSDdCl9IyPnXtL5Xr8B97d8/SMBSFcfxCbWvr1BfoVGxLio4BO3UoupXSpdBFDjlnFQfBTr6ASAW7Ojo6Ozq66OjHEhVBlNyQa3pzT3J+3+Gh6f0n3C9FOoYQEqT/YYLWvPH6W/bD8CCYqxzQjuxOgrSpKdrzSG5e3RhpFATBUGVfkY4gjARpc2O06IVaLA8O8jKyBp1AuJUEaQ4je2o6/hJjiOFePh4XG7SAMBKkzQ3QpmeO5/gfWP4AG4xsCRqXEqTN+GjVoUt3N4pfarqRSZAGJiPDjos36ovvkV2Dzo0EaSNo2WvZ+a9e8qtGVxBOgrShAto2kwdGZ/UiRgYXEqQNTNG6Ls8Txjzo6U82JEizGdmgzPSEMft6dA56S1qBiGmM9u07caW++KsfObJ7WoCIaYD2+S2u7zBmXZ/OQEeCNJuR4YyooZK3USmtSXU+2i6t16ZyQOTIJEib8DENu9RJfGH1LWCt0K6otHlRHUyCtAlMhd8kTyWqxHxin+oqZR49gJ4EaQMYg8OxrFqALGirdHl0C1FOiSRIxzLBlHRpRyXnnb17aXEaCsM4LlRxIW5c6MKNgjdcufADCG7cun6gB55VOAdyKQRyLUkKyTZ0ERpCoJ9D/HDmpIr3NtFKWskPhhlOJrP78077lvbu/9HY5LPsidjihHkhPdK4NdkFP/dxH/+Jxc0bU3p5OrJ5IT3au+VUnp3xhcI3/5dBNvUoezlgSM0L6euJ7NXt870VwUP8N6Z9VPZcxDhlXkiP9Xo5mTfiwY0zuYf/xp0bI0wS2byQHuvVcir6afync2SXFlmFk+aF9PVEtnzfvYRxjuyiInshCpw0L6RHWk7pkXj5DyMrgiR38QOV7/F7dYvjlINBtomn8Aemj2yH0+aF9CiL5WiXuJH+VWQbdlY2vtdyg98zVjguNzFEQbLAZ9cU2bNBkc0L6RH+aBd9iRvpX0RWs+fjex4d/JaixHEJbQwQkNzh4MoiqzFIILaYDTF+F32ho+wXkWWksSIZ4TvmHkeYCY7LaGGAFcP0Kv9dfCYaDDAvpIcbvya70FH2c2Qp6StUZI5vqVzhCMvBMYMjk9/Oy2uK7LFoMcS8kB7h9XJaH4W49U8i21LaAAKaOJ/BkZEuxrqQyEoMMS+kh7iQyJZvxfMzR1bY6AT00GlIG27Rn7vo1GGKL1RRY1Et+i+gcYA0QscKCwXo21J9RRWxgwN3xUbB3qEsANjxtu7vtBHF1uEvhhEAh4wWwGJ3OI1SFCWwc9FWCouihuaEYYlObbuxcymRPRIphlkYosVsiFfLiX3Qo+yckaXco2OwL8slU8SMAIshAJ9kjINFQuYlW7SsASU9wEzQh8m1AmJaknu4GSlT9DKSHra0yC0sg6Sv78xTUjqA0tcLNOzkUGuSDYBkXZOpwzgmA/j6XqAl+x9chhsa7sVEFmGgUKwxRiUbfFHICL9h5zYAK6sBRIlgroINTmuyCJqVZDZ+y5IVvuWbLv7OVUSmR9lZIyu4BqDICJrJAhs2QEsPqKk56FXsbFgh1v05TKAoAVe3o0829EgDHjum6rNkJ4GnL6yQUItgM9BxbXSWHelW7ATYsmPYgDTX5D5lIEnqU6mgTGo2IvqSbC4ksgdDIxu/kE6Ejy8CEeM39mIPIBcBAFMIYaZCKJwUiPzz9wK/F4sA31BClPj3lpPTo+yckdX0AThfUlozxoY7oNHnCdeVyS16GQ1PSsaI9YnFDC6p2zOqgOYC3iESMvHIAtpGMivgs5NZZFiYDOFQMjFoAgmLyGBtZWS2UwazTV8rtbwkpe5SZmSJljKuJGuk1FocTB/Z8HD2wsMIKxHg4Ohndvp9i6Ws+mVc6NjuKsBplSwBfUuII36Yvq4QDf6xyddkmh5l54zMNUvoZOhC87n9GplN2mi4gmaTLSr+FFnAGMpgpCMr23pHU8FjgF5GCzqyqGn6tXZFTwftoyRdcKVPYoBUKGm42DIDyMyJrZLcYU3WC4MFYv1re4Y6so0VqiuMbNRCemRkvUgIC+MsPrF3Lq3OU1EYHgRx4kQUnKp4w7/hr5AXXLBGIRtyKQRyJ0mhmZYIoaUUOhOcCE4EEXToz3KvvVJr9Rw99RxrvDzQNNm3Hr6Ph5WulSYxHudvkexvL5M5vrW1shfPLlbMBkLGm4tkW24AE2jXkUM5+I1kPicybbCvFrCTS1kugHCWrHDzO9gVC5fmgMecGPY9mFWlkpUiYezcE6FUw1GG5O4zYxFyg05mAwuR7E1K8ERuLEifJYvqsjpLVpXjYGAZOskiddLdUrs1SMsESUk0JMC0hXAsxwOgS2zGg4FghrEUEe3g1L3V45DqGHj7cefhTDqVh7Nk8bSpY/yXJLOPa//4JSU7psBFsvyXkg0uKdKLRRqEgObXkhnnU8klMje64SPgBRxDUMlkPEwJYM+NSGaA0PYEnBkI0iKeAiuuwKKjRDag5ka9jWtAPBTJvOVI9uotknU3FaRVsh1ZRpXsRBY/AmLyK9/u1zABWTYoKfcCEtKIAg9IW7K0KYCRhN4A6HwdDmRuxZosLsHS0KGRCR6USEYWo5Ns71be3Ueyv78W7fiOXn3t5STzghKizGxF8cvTxZqz4/HYa+gonSrZryWLObRjTryxXSXUkvP2Z8kmOKqcuRXJ5h57GA6AStbwAeoo2y6RrBezcz1LlIaGnWQ+liRZjKfT3lCQVskSIs57CkSJiSgbQwoNIuua3wQUpMh88put9a/FureSZN7RigY0dr8hWWJLlNeZGInUTmlWRIP0r4ED0couQBHQk09NKF0Oz67VFBSIZJFdqmztqLtItoAymeMrev/lJIt4DZf4iCC0XIpkmhAZWUlgGbkGsPm1ZBErJTLnUuhGt9zBcpZsB0vUskUimT/3VGxZQyXTKblVTYXfcgsMP0vW9cwqWb8gyYhSPJXbCtIq2UjUAQVRKYW2k7Nuh8jKkUqQ256/k4lk6IgSQCST3dIFqhij6IRCV+NKdttZsl4iVxzKCr0slvqUwbE9z2+AjHpPrMvuItkSMvjCl/TWy0l24BMAw9zBROLITiXbcW6NcjQQNteSVSqZfXf40Xy+5z8k2R5wSfi2dpKF556DL6Wx30qW4mfJMpUsCZiL0UnW/mMl88KnF6RVslY2IlWpaQ1RJJPjAUitb49JtiHfg+30U1R5CmAtA1bOodQvVDIr7BFOJYOeGqiKjpECA+u1tAZUu1H+f0qyzz6nd19MMj3JQ8gTBu5ikW0ttkwukm3iOE7hKN3AtZNsIw6cI9kqtniy0g7nE8X++nTxALE2OKK6lgxpxpw7yfTLnGwflGzksMJuaZK9RmRwA/XTC9Iqma8Zj8C+7YnqaZoa2xypHVa1xyQrbKtgYEkPp5CohycTLMZTyezIGG5aBAlUomIDR6Y7uX2Lidb2czOiu0i2hDKZ4wt656UkS5i3gGYAO/ZH5tSJhJpztQkwEOpfJD7WwPHn72S+jlHJZlf8q8SHNOmq3ZVku1TcXalk+S8SH+bXkumywwIl83ADUpC+SbKAJkBdG2imFsmq35estQ7NeGsiWrXUXzliJRNtDaCr9XRyyzSA2lWcXUtopriPZN5ny+DHz+mNF5IskzKypWauUDJzD5x4I07kOLjce+VDOPJqTuFP0lzPksElEr3+qJJpCj/iwIPQXiTLVZP+IpnhCXKkko180hT+Q5KprRvORNNFSYYbuKUgrZKFV5Gsiiyx0yLC70rWuFakR2BDQRlhpB5GJlii6qFINgIXydZXkWyKLAnuIdkyatGO7+mjl5EsYq4hJFIBTkMWRUarUxy4YnSQAg2beUSHQcbvODBmpZJJ9yAyDCqZaORh4+yEdG4vkg2yCS+SxdzKsq1KdmTfOHUfkayzJnOzLMleuU2yWwrSKllBDa6/k2GfPEGyNYUepLNyUdBlL4DQxTfj+7/+Tub9WrL66jvZBEvV3UOyhZTJhB+IXnkRyU4cGjgaVo6wEnGxYr2sKo82VjnHSi6rEskq5rbls2Q1h93B52qWLLaTN8wTHAW3RaWSbbiPamb2fpbM87mO17xWrUzAzRjw+LBkBRfJiblfmmQBbiN/akFaJavFA0+yi6qItIxXkklG4zeSyaYG9jLOzY19CmRsEIlv4QPZxWvJIldNKy/ZRXRBew/JFlImOxekX0SyUGwwBwAVK2GMhC0nzkQ3oYajZEvDUgGV/usLhFtgzXtY9BLGFI6TTM8lnOHIlsLnOLbW6onk+qx1wEYstATJfKQ27Xh9zmhacg5QLUsyH7dwQ0FaJUsDojYkF40GomzKiaoryUY7oI+sHVeSodU6WSM6BXUdkoTQJKCg6K1/KpkMXeVaJ7tIpjS2q6fwXCebNkwljCj/17KUMplm8d98CclSFzR2nAAYnCsBN0BuZYp5BFBIm4HDSHSbRLmReZX6ORC2UBODSiSsYIlDZqubsrX72w1HALzezrKBK/WCAuKi0aFy0IYA0p41AvYhLIn41XEJTHxwKjem8RHzejmSvUEhbqSlCU8id6mIo7WMdpnohJEsgSbvU4iGW1HAsq0pAxIKjDQEAOKeLG0MVLJCk4RUAVufLGucr/iY+HzFR+H+LFlGiVcycKBc/4Z5lk8VnsU/SjJbkH73BSTTM7dME4zRuB48q1oCU44p6kTMGNa1wUy8qY2TzJs2CfYdsHcTu9Mmku5yHjaeOpzZrXdIynn6GCOZgKECUNkdpKX9SADbA/ToCMvxAKGOAM9OQboxQHSqDaq9NP+jJXtyQTqpU32rE7sxbn8qpxiWwwH6T2iJ6rKDqWOc/zuGDhZvW9cdhLgubXulvxfcl1OkyxrXN5W79HJs6gQzZpBl9TjdlbWzqxvwF7OYMpnwDX3wIpL5uBS1HDbU4HcQyRbF3yzZCjfihf//QvqfIpmkPp4vmWGO9LrFCxUe53/Jfi1Zj9vQgvT/PMZiatFz6uO950uGlttdyw2eyP+SXfM6tbiVNKAK//MwCyqTnS9gfL5kEwsDnszAExbFP04yV5D+n4dZUJnMYR9X9mzJ9FY2rYcnc+A9FsXfLFmDG/n/lt3/JMm+oY+eLxniLMxSPA0TA0kf4zH+0NXoalBi8Gti12SqFDMLl+xdKnAr/9+y+3dYUi1akNTHfR+dtG7wexz/qMya8AFoSsyEJX5NuwbQ+ewfgQv/Nsny4P/zxUdYVJlM+ITeu69kPeNxtNz2u+x5g5h7KAnn+BWedMa+XvhxYcmS5biZmKjH/zzIojL4wqf0zn0lC9ngd8j4iN9l4DUS7qFEXOBXGF4BIwubS+uCJXv/z0iW0//P3fzHSPb1q/TKkiSrOcbvoJJ5YQbhQclSkSzkoms4vLQuWrIMt9LRS0hmduWU4jHS/cLSU09lWWUyi5wvLkkyL8IfS4Yk/X3JEuZE6+NP4W+XbI0b8XoiyvFMzIrodwRvaWHVzCeynJ9s/syn9PaSJPsDVLIzj0mmN6mCzw8buzDJ3rtdsolUj+dxJCqyAx5h+8+txC2qFm2R88U37iVZN8WzZEm9M1DiA8zQ2fdJlEj3cHgDokmGVOURFtmpE8ySbRNY9jujknm7cl7uOKQi2Z4z6OWUv2WBkp1wG+l8Rfvz0B9aPsr+nxrHllYmEz6hj+8k2Z7ZT5xkVcDcGDhGjhvmYxpyEAElJxAOXPWc629nTrDUbOlUMs8XhzK7RiWSmfb8W5qRuU+sZB0PgBf8UyLZBrexJuGEZ1JSCIeXzu/yMhB079IqG0jD9YTr1qU8BnRZZTKLXFp1H8mMe+qRSOb1bCnhyHktjmyk85LCL/lkG9IkYIttilhocckudmxZi2QjCxOQaNMK3iYFtswGD7EwyT6+tawckWODZ5EWPlFfA1FBFE4AjJ97J6IihqVrba/eha8xa6u01/UUHmBJciK/FKtWDcaA2gSWqiFaLeNBoMuT7DN7vngHyTSQiTMGR+tTz74HIWdHIC85OkAYXUNs3zKfc3e8bm2Dkyzi0AUysbYA5EkuoeyU2rSCo7BND7BAyUrcREOOEc+iIqFFFOhqriUjSwPgSI7atTZkydy4BEh8EiT/NE/oAXTBbP4CWFgt2iJPeLmLZBmHLjIZrDmTcnEHi0jWdWw3gzh0kYyzscGKJ3QypeA9jJ1ykUzc24lkMYdGHxvTcmu2s2QybYff8s+XbE9KiedRZeRvUzTUJ2YkitCJVV0hJhmf+iqSXWn1d0er0Oo4OutyCiOvJupEMiq7nKgCVrTqoowW8eOAhZXJhO/ozbtI1uuDi9jYva04N0HIuQECJwtHv5QsBVK3DblCG3oydH+WTEdbCQt7tIEcwmM+As0sWSHu/ZblSfbhbalyE5JS43nodzK925QXUonuHM+OevccmMA2aGsmUnkBbeZ7DqOnE5JzPBtkVCfLLCIluUDJ5HzxHpL5XAFHZuPZlz7CSMj5JAKWYlqFi2Qt9DbeouMeGzsIa96dJbNdPsTZAiasIIJ5sVOyVsniR3988w+XbKSZCc9CJROdUgA5ZSLKFiLRHidawZJRK60H96kGCGktxwn0djmJ+kY0oSQfls0inhz/2QKx+cV7SMYcu9yEiTkAXJpdJauB1uoD/0qyHJhvjLpxuUJ4u9DunCXTUtgkAzwglgiZuHWPKtnuhkD290r20U26JHRmwPNQySZSVJ8K8ESynAoVOtQYZfcYwEpvGazkcxSET7XeTs6thr+dxZXJhC/p7TtIZlz8Su024iDP8/ZnySaRbA+EV5Kd4EyxI1cywgw980Wy2b+92yYbl1CpnF66xcglHmFxkt2iS06KZPqexUWywpKfYtEpelCySsYGmCU7T0iQiH9XktXE+NtZpGRfE73y10sWM0NVq1gZYdGbAjd8+LVk0juwctRaWHCRDDsX6o4i2TaQLjZ6h/tIJVvzFg+zPMl2eDJb+pkYz+Jyumjg0BNBlWxzPl1sfi2ZjlIuki3qdPEn9s6ltZEjCMAmk7Wzm02CYxPnQch62XU2ueaWQyDkL+RWZAv6NIxALxDojR4gXYUFQsYYdBPoIqGLkBBIR/2sVHXpNV6NPJZkayT7IzsezUtL8LfVXd3V472xaOYffP8okYy3EsnSRCwIhKNkCWDJzDRRM/Qw803NFskm7UnDr1Q0qOXNwDSSRVUIFuM1yS7wCtxi5HBCDNZEJAvKgr4hf3Vesmsd1CKS+LBJNlkMPxhOzUsm/TnDpAu2jgeHyYg6XjxKn8wHwDLIGnLCcsk4XAl+jmz5OcmyKq4viNOelQSDn6v1yopkCROc8Jxk1+CWFE5JwpqIZBDHcAiSfizOS2b4MVfKpvnAbcl4he4ABHKYmJcMcui/ycY9kcL34DAZMUR8/RjZxYC8V5qimQHjZQKWS8YvdSdCEFEWXR2dkyypC1kSJFlK5SVCRvRzqyKZLwkOeE2yc/drKAYtnJCGtUlhGGRs2dIvek5KE1SHtqw1Nxgd4Gv9IHl7imH6hrAPQuIUCzoe0/bEmgjelIyXEn6McbIqQIpkEN0gUwFiqWQS8yJWUlYpzqjU/DhZUGZ18KW6rsVQ9ADIs2TL8ZpkJXBJHqeUYG0CVgKIYNRCs+DjtmgGiKjJqiXjCjPXoI8afC3rk7KyfEPeRDPPif9MzqBtQZegh2IW5qrgAbw4TEZ08MNjzPjI6FmLPsnaX2mNlksGelpIQZVCHMlCSl3Oz/hI8JE4JOgIbUhcTlhGTJHs2r8rC+mcYxbckcQpOdgkxmZuMMATfPQmPTx6eMl4DlRasWQVZSazprq+QzIRM0T3BX1KpXiyft42dzHqZ8mKygxwgjELl3pOJEsms0NcsmXJ3riWLI1TruGZhXiwZHNCGY8fXLIIiaDSfuWTPWVO+mRVluyGJQtM1/hIyCLDWcXEuaVIpGmvqmqgMxzXiojqaVWEmSOpknIoB0RaVWCC1yVLgiuqOMUPzyzGo8NkzADfPbRk8u6wbMaEcXFYZXI0y2EpwF4E6VMSmAqrB6wgQYeq7FqElCqpBPhUWt6i5A+pqLx68KrCkSvOFWtWWm4kWwWPS3bmUjKfiVO8UVLiTbw5TEY08PzhJfPlw1UoFoCo5HJFEJJcvVmKc14wSp9ohwlmInJPIZzOAnEZrvmgcAW+NOmYJ6EglM4EIFaia+O5K4ikeUJxLJeFgn5yNu6DMZ6XLABuKOAU0yvlkV7Es5JxEn91yYyFW890hD0u2SmGwAUhnLKzK9w8Al4di2aa9++U/QR34hHVDOet8NvBtnAvWRynWM+BzBHPDpMRg/vPxH8Fe8PPB1vkyNUsxBvUeGbE17t4dJiMWGUm/vZD1Kb46cA925HMCOMUKwLP7KJko5U6ZXvClwfbBNGFNCmcUYNnHPHsWDTTvf/Mqs+/BM9jgAteHWwTRB/cRdDCGSF4xhnfR+/SWWE5na9cWuaF5Icj3FjcJq/dSBbFKZ5YRcPDeHYsmuivUh79+c+w83y5zTgmkhlwB1mcIwBPHC6wDzIR+AQPD5MRK5ZHH3735ZfG7vLlz9sNYyIZ3EUGZ8TgaRK4SkTTYdNCO5YZTuerQRjj5WGycafsmcfnBVpwB0Wc4omqyMclclXLmHgXZrzIgc3Lw2REh0bKnnHBo0sWMXFGGp4SgcuMha4xo0mPS8bTF595fF6gCcup4RwleCoEajmF98WKeneYjBhSTdkzj8/JXXUrAZzydF4UnY1ZuCLN3kfvUsaTg2cenRMMw1LiOMfOvmH2PlylLVyH5vCjV2nh+wNP8frff/882HtO7ohO1zhH2NMDjhtA1gpZm8FHj1LHDwee4t///vvvq4N953i5ZD4/4tMp1jRSftwI5f5HT9LHswNP8TdJ9v3BvnOMGVhCAvHJFGuG4ng3p6dnp0cE3kHHfcqvsXjkuC/H++zr0N7R6w0dLerfPRztJX74778/Xh/sO8dLs/JBC59KsWY2g8s5Ol1glrNsTbctOAchBzgYazH6OCrTZkYPy44T7cs7Nhz95/f779jB26WSxRCfRo1L0Y8uODr/9d3b45OTFy9OTo7fv/v1XDt2Sj8WUG67q1defOUQu235iT3eDG2NPnR4do+VXMbgeTh6C7zFODiSRXwSxZoJC+/g7MO7t++PX3+aN3r/gQ1b3HwculoOkegvaEQO2pPz/U+alHX6uJpkDbw4eOaxeYsxcMLI4RwqCPtJihVTS+LXxfsXy7LQx7+eOjQc225mOjW7S7KRIpkDK0jWw9ODZx6b90skqyDuf7FmhRWznA378NZFp+HtxULNmm5ai53OuCPVbX2sl7E11BGni1getCeSdbvccmyVsVvnflqzxb60sNydhbR+F5t1lkzuLreGDpmPJ9AH8hrvnQrEZNLivhdrFk1cxvl7t7+SJx+4d4a3aLkIPX3+I72vwcTMzvR2PsmbHmc/sEzXSJ+MLy/Tx/rEMblBS1ZHpjx0WrLqmeU8pmR5xD0v1syGcQmnv5/caxYoaXZ0hnYad+YWyzzZaSCS4aDRYqnatDcaDdiYmWR1ToV02K8Gnxhgq02b8jRtiPV+C/nMkO/uNbHltI7wM4/MO8zDYpKI+12sGcosDWLUTLwnJ+eIb96gjdEdKXVSgVURyVp6WyfJuuMoN5OMrWJJaKMla2kzW7yRmzvcjuQzHSy35aJdmPPxFHjn2NdKI+5zsaYvhs4c/XqyWrvgiNL8brtl4kZD+9AXvegQbWW0udehk7ZIht269qYhKmGrIZkVOdTjZqboxzaO6EaHJQieeWTeYQEWcoU2srBfJNYJYs684GCG89TvGImuNxq0HUyE+1jWdzQGZUS7ZO0uEoPhWLJRk/tdnfZUsvZEPx55IxZIJu4deIknMRj9zmH4iyct7m+xZtZERy6O1/wfimeu8/hdHFPWkvUnkrUQm52GXTJJOWJ5NG4JtuusWbO9QLJyl+nsQLULTav6e/8t+91Bsku0cQN7RCSNThz9vvbcvuNTPD1yl2Ec4ZT+vGSsl1g3H8m4CTlAOT3SH/stvpDpi4Z1PsPjbs60PDWxiicI73+ty++YgAWEEPe2WLOATpxRxn59XpzZZ4AsaS2KVyxRZ14yGTm7FckG2JNxNZGsVR7J1RNdOxwZpbfW1A9vtr2/zse/T0KyXzHlMGlxT4s1S6ZzV2xTlYjneHTqprqspWXS6jTnJauzVMMmYt0mGaXwh2VsjCXDVlvOalp0Mcc5HImy/Iy29ydWvf73r/2vdHGQrIS4n8Wazi3FDycb/NW5sI2YLVkNQATUw18iGflWZ9+QvGviQCYI98abcpM7YTIY3ZCP3emoNjPQZnU48+FUbdNboaTs5aufdpfDzw+2iUhWgVvIpMW9LNZMOKbsN1xm9UFS+csTjNICZIZlkqVbbk+ONXhqR7vPnjTJKtn0u4h61tWo3J3OvBpNI1QTy/V2U0tXZxkbG3rtxBff7fo/sb+9OtguHxYZlELcx2LNpN8p27H5BBfFsotZ6tCJtm2nPXdsNNlty0ZOjWy3yccpIzkj+6NNLabz064rxny33Wj2AatgR0o1969Y04g5ZDvebVwxaTGens+mfXiI+9Vt/gR7wc8H2+RigWRRxP0r1ixauIg3D7J8k2Q/3hxNs/ge4l6zF7/ahzjGfHuwRS4+zRwmEfeuWDOUWyGhuHYm/8009eEh6vd5gdIevNJFML442B4XeA23yCDuW7FmbbFiD1v1cXKEZyistuBpe+B437DelkvqndEDrtX9OewN2wxl53gDdqqIe1asWbVwARcPPr3o7bSQs7tazHG+r4v1ueV23CPF0U+tR0ZstVd2jiWw4TMR96pYM5TbgmLC73i0TnuRp2440BLJRjxAfS+kOPrJvTJ6uy+NfoNZsFFA3KdiTSPqMPL8KJxPiqX7G5Zs1JCoRK3Ge9PEk2fJHpU3mIR5QkjszwvJrqxFij3aAp8vTvHIbX6xPaT/ZLysN7RJNpTP01PM+MeoNxtBa9O+G1r49lmyR+XslkVxtBOHHSaY2aZi0i1TbofKWtjrYrlHbpV5vsZUsr4uHJPW4YD7d5wNGejYSDfwzBB987BOVzXc5vDXlywb92eu4DbFWBJWoUa3+ZLwYGxbsgDMcYO4P8WaNfyUXx9TMZlf5WKxD6aMTVaGHMCybmCKZD0k5eRzuzldIaeJHTpVRqbb5ptbyPTc5fDXl+xGMSmwY5irzQ4KqChAwvLBQ+ElyYww2snAzlKx1lXs8IfPNN8frjEmTQ1Gd50yNqw+6Os59O0uNkUynnyv1+keyIrewwbvimQU+PptLq5myXAw5POucvgXa0sWMZUmADaypN0qZFUMIKYeLpRtV7JTW/YwgbgnxZolc+1ZwF9/NuWbdRqMR+4iGbJSYpYUYcpuh6OTrNvRpA070hXJhvLUFl9V1nc1XSX0+/hmbckSSplxEi1667B/tWAUVJcAcZWFh2K7kh3NSxa0cD+KNQO5dRQTDj+b43Cd4f4zV68sk2t0nVi7PWKBxDcqgu53ymRWGyVvX+/NajcnKw9QeJN73b3Udm3JcsoMQSSnLLtU1wFYjYCPJSvBQ7FtyYIwJYq4D8Wawfh6ignff/bZD199Qbz8gfY+X+M1i3jqZjha2nqkz5j+WLJGq4xEV6o6NSJZHVECEw5Jso5I5nKgbE3JQkpVAKCk1DVsiH2WDDECE7J4C/8uTg+NxDazcgep9Ur2XlIo+3qdIekzxLILyeoyl6M5IDoNaTmySs1Ob+AsWeN+kkmxy8qSlYpAXCkVAcLPzbwKh69sFXhbS0RACFQhVKgA40vUbkBTzack9N3kE3onMj6VCkEwo1JBIIEvL0MwwZfKXwFjFGv6G5JX9NgiyL2FLGiua/I0+X4+AzeXthjrHckyeIsK7BybUEz4kTIec72zl2vkPtgyd5LNRGmLZNOG4Ky52G1pycQuslCai3X3knXxeGXJ/NquhMoAk1cxiKg87aVNcU+FI6CJWkG/YgfBl6PDRblcqbjBTtFOhiyIhGknwZGxABnaTZNFllJmcuIYH7wEIkY7ef5pBk3Jagb5Xm1gQp42+/6KoqfEwMYWJXuNODW+iLjrxZqR2OaKnl/NumKfOzYYX37japW4U/LBpWR1eV1ZR1bEYbMakt9ns7pygUg2WTyHjt5Psha+X1UyQxKKUZUHJqVykCQ1RD5JOdZAE1dRpXSf7VLxTpBbl0yVnWJSrAcT1NlFdsbPvT0iB4KcDwBUFXMDkNGPNQ3+O/BOhPP/TAJm319QcdoxYMa2JTNAiJiIu12sGYhvbuhZzPrsiyUNRolxLjprr8+QDHIp2Yhf7MKjzu1JJOuOhi1E1DGr1ejgNIU/IMsadKpxT8k6+G7lSGaqiDaoAMy18pNkGX08CEVlXtXYKyZNqsSVKoFhqvyVyUrFlFnzqwy747+OiVHXobCqkn5xqJgqU2QRo3m+jTH8Kpy3VI3dCif8Ks47KkOPTUKQguKlNpW+Mp/jp/H355XpoyOECTa2KxmMqSHudLHmTXjD04C/+uzOBuPn7vKOb92kF8skC9NAje6TdXlDlGk7ZImYZpvDlyx9zwxk+R2Zk++yomxlyRJ5MSgFTElZc5LF6KiRGwuS5iiTUxXIKr8BRRLEx1EsqZSPTLkCn6kCoMLcxktpySTxUVAx3pNwmOUoVlEZNirA/kXoVr+P3KtCVYV9cMnfTQJzbAzJ94dViSVLJm/AxhYlezGVLIC4w8Wavktz89OAv/mkwfj5y1evvppbY4au+FE+L+eNi/RipzmSnX6rWW7pWVPNuj7epLW5B90269Ftdjt6p9mjbbvTlFeU0ech39mk21yNRq+ZXcyQPAQrY8wk86sQW5IaS1bgTliCJMkDWWLSxabBx4M+Fo2UuDI47BjxwJxkGXXNATIDTIUP+0y/HKDnl+h8gluKKRLpEtgtX5Dc40PJ2ffXVA7sbFkyC4Q43mZ3ijVLGRfFLOs1GA85rH1PG5Lt5VgxDm98+KWbUFb+6BloNHplyQLXItkkkqlZJDPIOBajMJasCpAgEy71tZbyVVkZuMmRcX4AfdxU8SAQM8lMFWIlLWBqKiHBM0WiskhFllBEinPSg73K6u9P+n2z76/R5Xa2LJkJmiu8TR52g2DeRDtHmypmeckKiW+0O0Os+oodZF65mFjjpSUIqGxzZclqphiUAOZ6vrkYUVa1Wp38gqfZhpT8xtNhU0UqqjYWVYXpSFQlOHlhJYw5yXw6LBkc6rRVVdAU1KXWMkGSlWQnp7La9uz1JI8YUab+/ppEORtblewE/cD4/Ii7WKwZrPnxFqc2xTbRYPziFYUwRqLZLNP4kgesXS2e+buXJBshrixZRv/6x8bhqjhNfFgqGFLC5ViykkgWU4LBYU2TVUIRAhYn9eckiygF8jTJUN6M1VYV4KddslUcIBMQVgHQ91RVFDQhJSTo8hTY8YRkCcTdK9YM5c1PDDu1vVxsIw1GCVi8881LEupQiyd8QbtuE0zDtcRod+ubswzx9erZRYO2NY4eNz5IqPRYMqWCAaUJB8aSZeclsy5hKllJaXJB8i3HSX2bZIaWLLJAsoSWLDkvWXpOstn38+V2tixZGIighbtWrBkq+PEWR2dHpBkNPW+OWSvxl8MvpvOtpA0p+6SdGzhduA6NTXbqyvhiRclKyg9Ein4YKk4CRUmyHIBPcSQzQbBJFlVXoCnq5qJxBdKLEnyXFMpuNxd9tuZiMGtrLopk0m7kwHYjzcUrCCk/aLwnWQ6IGOIuFWsaxbSFC4KYvEl9kxzOQpjwlTQdJx8Pv7ZHvsNvHFqPR9hZy4v6JtubTTxZUbK4hI0sj1RlVM1SKZLMDxyBgj6JQhHezElWkN/4IOjOE20jIRWWI5CiPxXltyU+AgATXQsqwdvcNPFRnUkmiQ9zkvjIqoBPWSDfX1NFL0l2jPpviLg7xZrJfBg/5dT2EtqNNhd10l6yH99Mmo+H0ytuXe40NeQMB96R7H/yzu81dSyI47K63rasLaWFtvdl29Lelv5LgQ3MU0ggakGI8QfRgr6KglSk0LeCL4ovogj62D9rZ84kxrjm3pjFa4pfFpvkzNGFy4c5ZzIzB5sIh4OsAbyA0wBhy+hArKVBjRN1GMInQOLVVy9kbQHIaxVtlLioGrPdlV7RoISsOZDlCbIysdMR3NB0U7yRlt5ETF6HigtZDWpihRjPim97hzcO4ePvRxIyOl/iaxRrZgrW2mb2ImQf4BDaMKtFJ2CfFC7sEpHj9eIaHfkHG282aAvXG4wH/PZrMJzPxjP7uD/MGR4OPj4HYoxtwojzqsJBZjkLvTxAIVMD0AkSaNB9Bj8KtChseyErgqIhUTq/jE6ToQUIYhO6OWInCxZDZvDTMr9jQ/HL6Ff0exmiuQuguZB1QMfUDrJW8C6DHpB/vw3t6EFWlqS2/B+9RC+22HipqrKPAiwTQ68WyUOl0IWhjpMJh6W17urEv8LzUe4H7qO9nMfR4hSPMR9cMZVbNDpxbMJ36g4FWZEdGeoNWGW8VkGxgOKBHVA7rypUPJCRJzIqJidyqIYOFj3W30oAWeSjVszDC0P2ArrVKQKYJtjfoSmgGyKtqgzKi4Lf4UKWU6FqABGNn8YzpZW84u/XVShGDbJb2ZRyqrxGUH1vROV1dKZkqbK/ru+207iDPVkqecz7spQD1gGtF32Y9Bt6CBy46CE80xFnJFKZy5iSGqdj8mQ0Jo9b8ryHd9NZuE5zfNpmKMg4+f41KzZnrAInyJtlyKG7WkruNYmGNo2XgNRwyHy1M3mJqxoPUYIw29UQJ5QlsZpASjtTKwRZmixLYi4nCBed/xH+fYuGXiWvdg6Z4bP+QqnWe72yyxTGePcn/uubIOxpaz0UEwIv7vJxsFJqduzTscBv5C4YZFzV4ny26Bj2odPfgwEcUBXMmP7QZ9gN3mMoyAzyEJpKa7mcBQCK8DlFALVoUKiislSm8g452sO94r+hyWUqXOrCoUC80JHVHEXwDVpy1vg9F8YIEUAlLbE0Qq7kTKXfNUCj4EmXy2DYsRbIpWru71OpS7Qgyxf9GVugZjTrlawm/U5pXQPx8hWfynxzt0XCnDfQFFp05bdeZKUOU76JVQEJIMdlQ0V4MUsuZD2ube7ZRS9hRMmLYSDj+F+FOYl3mu2c9kyx9WIpLWW79DBbwHghKyOcSUljU3uV2SjYF+lCKSf+lev85JWmVQpdmlhyvkNMLdm8dNkw26GnpTjPZRhxYgcfuL+vtaUV7RSyezn/vC5Ut1aq8myZRq1U7xazuW0hl3urmc/+dPH7sHMmbHvt3RJHV0zYWpxSmxdxngWFbI4LwsFgMHYhG3ggm4i8KLYJC9lUvgkFWR49DYfTHaWVr1LYu1PILB9HFkCqoleRuvdmu9OoIHdxKaRy6W67aZhVXZV/qYsL+vwWIpYYohncMVdurhJ4SEMb1xR9BoSM1RoRZKMVyPhbJo7NR+gM4VCQvYPBycGuMl+lsHenkPm8cwonFZ1dFcEzDUSvZuTNfN5Avbzg/QvJyNsyy9Xqs64oqioH18X1OW/DTpGw7engkgmjZSJe/u0ddDZqOLiJAkYpeCnIolLMtZBxt4/wmsgXoSDrANReAKIXeY42ZHdr4wlR1Pm17cJwG7ZdJRmxgzXbr9TRd3ZwAdaLIfOquOgZqfpYD9nQoY9twoiawoWCTFM4bP8VtUPIHtY6sqjpG68R5Zun09jWdSLCiSlPuJ4XicdXixQreue8ae+9gESMRB/uD0/nDt6NfS4gm2HYkSwHW07DZ8hc1QFAjXpWa+Qge5KjLopykC4ecBe2fSXEYjDpCeJfImtHTr4HP2ebTXQeNHlx2Jdbg/FK5w7ehs0cyD5baNMnmxDizovhchc7Zv5rMrZLyH6s2fjI0REH6uXrbQPmMibKxVKL7gIsTlkU+R4uiQf2zeF3H9zCJi/OKb2jxXhNhWvj8AfG9idO3shE2PT+R63Lzo9O0v6PdXzDPImdQnYjR1TfiC/eg2GU47dJOC7GJ8GIsa6OMN/Dm8ToTPn7j+/BIBsE3zNNp/ZBZRwMZK6mc/xYhCgnbBO61mXXkDU2ip80q57bjgLVtLSBdgrZReR2ZN8uri9svm4e7s9iv1UnRE9iubnAMUXzvx948vBJ38mKDU9SwU5bHP8q5scwbV1c67JryJpQ38DagmXXVQHURmdb7BSybz91Jufn5xeO8Bqdyxb1jX4LEWe+npCv365Dt1IlyQn1CY4vHniyrJjEdTrmlWOoNPwh5iSGSpGafEnIqBlOcD1D2oMcqLDR/J1C9l9H9uPHzTUS9UskGEGGEP+yvtn65cyLhVbZZf+1Ex0QY07kHnWSWDxNHrp9Pq6uEDKfL7j8ye63/8uQ3zRUbdgozKTTLwxZGuAtbmz0KmGXkP0lr+p0MfTXn3+enZ7e3t7f3909PTw8PiJ+NwSFvAWdX9z8eLi7Pz37K7Y7EUaHrh87dNeQLDu+6Ju6SAPMaIhal7BvmPthIBvIt18YsjpYgjQpuHYJ2Zm8outgbAoCz5BBhJAoRAyRQ9Sj0A+hG9L1ha0bWzRCNg9PT3d397e3p6dnf/4Vi4IOyXnZV6iU9zRAN77oX+pyZX+BT61LlCC73x5kuHvSMnwZT6c18SguZUVObzq7AlmOnouLDJnRbI8p3mvZBWRZvOSGOtwHZEXRhOx0NdfjNra/WpwqkbgSjLni19DuI5/S6CSH/9fryQeyz1lL7n+4kE0GLXk8pfvWCMf6Pawlaw3m/zhDPZrTGg1HrRYeyT6k2YOJaCaMtWdD7iYsU8/hn2m2RcjSUKkonERcfAbQK1QdUy9AGasqFQArswxZwelu1QZoxnWqxXz1mFYgbUKTIdPyACaSVYIGwrd6okRkIbuVvbqI7a/cVm8nazxVgsIgnlIXv7z9y2TCJ0t0rf/qy6QRQ7Y4bL1HEY3+WAzRR3+4PNRDsOhyZqcKf9Ah06QxmqE9Grbmu4LsFQo6ANSdLCw9LhXhBS/fikDKL0FWFwbOySwlMKSKMG2wqSFqq/EiJyDL29MzhkZUeqL6EYbsfsWR3cf2V+TIOHyxNsfe9V5sceh/+O3VQUDIOEFqSme4TGzI0AtN5gM6PumD3kiPCLDewDNE2VVUJ92n9I9eSx70hkTWaDqyz2jvEbqjXUFWBwUsFZ7pSq0ZABW70WL3BfSmCaAtIIvroJQBCqIm01IUMKU3NjXQFEc053AlggzBq1bBrsfUdG+X4AhD9rQSfojG5mgnSnkc2X8xSfJTv6yqFELo6CQRuGrzE7ngjRVDNqUPetojyD5oBAP7E7qfuEPUfYDTGXmqW3nWsoOUk3EvQJOPLUEGNXRITqsNE+oEWb7xrlWRlLgC6QVkDVCzeIE86vBO3qxMkBm2qUamTWSww8vFGljxuGX32CmsFANEGLJHryO7i+2vThY7MseR+a8Xk6uezE3C4rbdgSGbcmfhmTxgyOxi5zGfVjuhqz6jSPf2EOPF1BFkfOmebNsa0c0OIcP1XxnZelc0bnrTYP9jmRJXVzuQFcDglo0ZgUyeISMIq6bEvXiaoo+cgMzibnFVESZRBWyuIgzZjXe5uMeOLOEJLabWB/i/C5iOuB3++vdslz+JMa3vmtNCyQ5kI/ueIfvkXh98kK07xDDxBIaMHzBreC1zfMRfo61CZgmGaqJVQPwdmgQZjTSKomtHdwGZAW1iDypp0Cn4ISBTHdOcBW8ImemE8FXILuIddWqh41F0IbvwOLKn2P4qxWjZLs0vMHKZdNKqDn1etCU3goxIGpMGEwcyvp/NaWjogcwd4tpNFzJvMecEI444IUC7qi1BlpecJgW5dhWgxs29SdmmAkuQMXB56FTEm+U3AVnVNRWQvdiQcUtUifo28gllq4oqZOceR/ZnbH/FAUOblGOfbsIsPqLMh8PEZpAxHSR3uchahcwdcmo3557l4oQXnwgrBvY/cM24M8i4YzChVlABGDKLRjQDUC5k5MMEMPWu8FcVAZlrypDVbMgy7A4VsRcr46dX0YXMkxj8ENtjuWj51mMeXC0f7rKWQ/6OwJBxHIP+jD+cwAd3yulPVyFbGvJANpZnIu9xxKFKfDqzMdwZZIYNWRdALxXEcrHMXIHVyXsgazBk6MMcyFzTbl5A1nQhiy8gs/Daq8hC5s2q2mdH5qKV8FkLcobw5TGmVfkryYOBAx8EUX9OFWSjhWMaD+mNWG8VsuUhFzJhgOn7M4R1jjPoa/i46f7PPdnDFiEz7eWiCUYcLxzI4gptwZYg48b3aNapiEVilyATszWVA5MEWcFdLmbwS3jRaJSlVUUVsrNlR/YY22O5aB3wVVhtCtmcugTjf58ceyd/1cL7sbtcHDBkS0MMGU8gvKgzAQ6g+jQD//TFBH99bBUyXeLTolWioknLRUEORze8gY+SAKiYBVUjU4KMTZ/JXXkgcw58UeleWw17RBcyT1bVWWyPxXEPL27hFSzjgzWh3I0BbczGLURENOTGrCnCbyBw4BLpiTM0I7xaSJo9Yd4XiR6fBNuMvmY4Im5x1s4ggyK9Zu6w0zHBsCErQlW4s/oCshI9z5KZij5Ne15AVgFLuLPXZchMKHEEEpUpSl5FF7LbJUf2I7bPorh9wvuiObw27NM9nA/579C55798y3GR1SGPhT1d/OUnOGmXkFnZJkAWyXlDXMBceDLIIFdQcCCjJx3NJGzyoNfzsOTJ1ByZlpYhK4GezSp8b+K4V5GF7N6NLO63I4slGTLSldid8QuxADo+OogFESUIR0bbhezZbhxngmKoClRtyOIqVPOgwIubu2g5R1B0AWUu78mqOBvepQJDRRkgGRVQHFaks2O8iixkT64ju4nttRgyp7Dlkp1bUB0FSq7ZH8gKxE6Dj5VQ0ooiFcFgrgAsaqVPKhBbRaBHcRH9gGoXTMf0nTBt4HWbV5dlyPCxL8ycOG/Qo+hC9ug6stPYXoshc9+YcQAkHGX+ldGR0ZYhy5Z1gUZTKaelQk2KW3w+Z14xcpLJgY/0cwY/GxY9orF2IfcGBpo2PKZZNEO1Tfos6ToxRlem5FV0IbtZdIG7ju23eE/mZgozayfJhS6JpeQaiYzFg2CNdCKj0XYh23xSKS3xye2hFVnI/mXvfF6bBsM4/rK1TdalLbNhSR1iU5r+uu7mQZAdvXoLyQulhzFhykBQEfEH6FWUymQXGQVBehApDMV2rif/LPP2bdemLtub2CRPkn6EgKM7DPbZ+7xPnu/7SpgixjqsOZGMt2Re5gY/7Dv7GbalTMTfDDCc4AYoye6PeoZvmu8114CVTMQjpFiHNc8dysymN2mTMZHL8uiqzn6W6YoXDp8aYIAnWfOIXP/3SXMLXMkwRYx1WPOfxn2CLGX0IDjzmb1SMplJMvJ6GAyskm1pzjl0IRnpe+w3Sd/eM+ooGAQ8Qop1WHPuDJxpX5HUjDkGyRjLRTKeAQZWyVKac96RfqBTHuzSzqF3bKJgyI8li3VYc1rzybP/ofEyXpZnysVs+gJGn+WZbtqEwylrrGldc8zD5w815zx4/Or5W81D0igYNqhjsQ5rWnr41lTLmrWetINtQqQMSrIdXGa9OykiBDxVVYx1WHMCb3GFL4ycy8jZBINkqbC9i2aXDNW1SLCaQgFRHjkW77Dm7KZMnmtmkGd6RrKb2QvIpRKIAQnSazJjh7nVxa9rEWB1CwVFA5so8Q5rWqLRvLXZSJ9oIcP5HD4x4LDD/mI0sbmqhZ36GgoIOlVViXlY01IvWvqLPH0ySRay5iKVjJXMtRvrIaa+mUYBohDJ4h3WnCFLWx8zh+lkyHMxkpVA9T0MCcys6i054l23IsY1OGFNIRnskpohS5n1rdlamv9HskxOniFnfiB0M/iGIUKRrKDr29G2TMRcNaiwZrKkNmqVoiTO32bGmYhSUak11A1/rcuej1ZlLMuWRbLMigX6HSGbXDQlg/Kn9Y6u67dQlMG46n/GJV+uKhKHGeGwWPTrUkCe3lI7SbtcLJk8L1kWsUBOtwEEB2Ujfi/qkgkYN/wMaybVmsWuvd2Dbrfd6ff7g8FgOByenQ0Hg16/3+kct7sHu3sW2SSl6nVSgKZbbK5GmkhWINdIp9LjfzfJro0BFdaWDI5kwr3bMooyecz5VZsL5crUL9OtTu9MZ6A16BzMusYVa6qXvx0y6dlTodL2kqUtWjJJpkBKbJpgHO2NEBw2sOhHWFNQFW6iV7czaOlO6bX3m9ZrrVUBeQJPp6lo636RkmFQb8mMP5hDS3yh5P3NmoJaEc/9GuruOeu39y1rmlL2YklbG1mWIyvZHLnxgDAZ/Jh+9ebkk6nEFQ38PwYgfmIRLfGFssc3awoNaSxYe6Avgla/PVs9csXqwjsiqRW35C7RrAisWvwV++MmfKOBPQxrJqsiJhw87emLZXDc3cXnSGUBiGUFHtkggApsmnyN++Fk/qF4lnFJ1kaGNZ8falpd94JBZ2oaV9lYtGWFrENWLruarAqst2h8WY75+IVarCIvUCVssvf0Ex2A1j1jcHxePYq15KIko6WfQxLZS8auOFhvok3JlkPhoSZfGRn25Jk2YVv3kla/u7fIypFeqOkUmvPM2u59fxugOFlGCENMQ8QmL460Ge7qntObiMYp/1s50h69C3K2cnKgomSEU0AHTiTQEgcItSZZxF4/0izUdV/oHWCK1BBASabCSrkQvoE5nuzWtn4PLWElr2CTp8+0edZ1vxi2xwuaWBX+p1wsJFyWiyFZyIwfUIbw0W094rOLi6RUxCaP72sXsK37R6uzj0dwtaT7xofMI4fwsl3jowpuR2YYH6AM4S8lY6ckkl9ru1Pz7ur+0utONmh5d0uZieyMgu08fhJDay0axnc4o4vLcpGRDYlUaIfaFI83ZeyFo+hinjhxfcUVcsLmuoHvBjB+QxpdhKI7aPKkUBRfavas60HQOt7FhGIj79SynBvH0hc61gAWJBvxa3n3QajIK0SxI+1StvWA6He69E11SXDomeCQhF3QAV7XwzC+xvzu4nAhVMjW51C7gtt6cJz1aeWolAPY6wsc/gCuWFxOVYWKMmcq9lGbAqTzMY8Z/cQmUrUkIF+RMP5pwIN94CN17UY9EtzY3ArlW+886Xd81iaA25RZGPa7TbLqkmS1bxShTd+POcUqm2IROaObsnoNhQ2hRuanHrL9eDoEWr32rq+Fo4LxjgGRH2xZ3a3wHx38l73zeXGeCOO4EOVV9LLsggfxoPj7JOhZEE/y4smTDmvgYQ4hgbQNBPqbNoX2WipbupTC8lIQZEGQBVHcld2Tf5bPk6dttjGzTsfGnapffNMkM5n6ox+fZ74zmdnW6wcWzN6mTHEhNPXpqSVaJY4npSeOHMfOTj/94hv7pDcW/Zr41+n15w5Ir5CnWHcEy/5OWYET8uSdchPHV14lxlAfff7hN3ZJbyz6+X9bHCO99tzB6M0n6CIUZIo2DUc/nDg+C7MhtFJ0/IQYI9mH2S/uq/+lncms2KXMyLcfipUOqFO2pbvlZWmJI29KtTzN9MnH39gjHCb772xMltNLzx2EKIyd1ATr4DplxU7InhPHV2gSzPbSJjZ1zvTei/43ZouHki9SGPtSrHSQnbL8CgZ7Thw5jIX5xVstwkzrlc3nxb9Sh2Djv/AqhrGvBetwO2VlJo5HJ6tUMS9rOmdaDv6L4l+pA4CMUsXPRE4HMhz9zySOR5QpRoplXC3BDB38/yGzVvj+oTsTClk6R1hbN3twHN+iSTDe1alaFnggv6OD/z9kloq68ycr4/7f0ynbX+J49M4TQuz69K/0yWN2znj54P8hs1NH+BNqCNa/q1NWOFT9zm6Tr97kTTUineWSH9MD4Tn4/0Nmp3DNJXcq/kpO/iPfKZMW/uFDJh6q5p2a3jr6azNovamGf3arifLjdc7YXPwfMiuF3TG/8td0qcs/Sn/M1krmEsdn9/aQOcENCN968/hPKeTx0VvvvXHisryzu1yDBX9lX/NYmLG5+D9kNgpHx8JYpPq3dcrkA5bjpefn97M+IeU2uvYur6XB9z2SB/Kt+0K5kPV7XqPGp06964gHdd7N3QiSvlBq0q2ldYZhj2qpdXiQ0WTXniOMxZBZmjCysuu8bq5ze+tub8h7VrDtmi5xj+CB8Co6pUK2AJRXZd6gLh5WA2piS2MYCpWq0BOkOgA8lFgdIGQvPHHdC+08UT1SZm/CKLU8kZvra9zNOtWz5fXVjTT9muzBR/BAcNukUiGLPSA1BWkIf4VCF/q50PYAlyOYM7qkhlDr4CA7fpJZHuZyrB0pk8or88bU3bH895h3zsxnLpYKWQsgbCBobbpIBkIhI8jqnFsOIDyvA8RCqUOD7AjTor74+/rk1OqEMX9hDpj6aQYuu3gMzGgd/FIhiyCJRQVgQhedQChkBNmMk9AQZsLx8EGVDg0yYqwt9qCn9maLxcHIgDbz9PSTfwyzH9zjMiGrQJrSXUBPqGQOGStIg1gDzhXlBwfZm2Tdm/bF8sPR1nbLTENYQUiU6loP42bQOTOdVFUOZLM5d5s8J+02hXh0poNRejUT7eECARpWuOpgGmxBVhtiSQbZ9KJGp3Grnt6udMS0FVBZnT6qEKXmR9EMv0OEjBirCVPlX9y0OmHcYkBmxweek+p8MftLI6f8JzH7HidVlQJZ4If0MWRDwgkJhAZAGpeaXsUH6M9WruOAjBHnHmRtLPX7G8gmAGGAjCUrE/EC2gDDtLsHPQfbJhuuB2PxJx0iZDjNw4vFjnJE8bSPTy0NYznJEpuUBaBloFPnrPSlUH9y3y0HshpAkHI1EaROBwMWkDDAJdAlrkI8tMikJ00zyLAcFTkryHo+Xo2IKdKA2mwCJKICJGy3UhV0UfB//wOE7PjVJ16gkyg6OhnkU2vzRVnEgjTOFs3ZLdsD4fke5UAWg0cfPaSAxOdJJ4IumSHQJJAaHjSJmbCTQJJB1geoXwAsVpCBP/CgQegN+nVKDZuA6oohRIvG+rlmQafvECFD774eCAMpO2WWZoxbH3k21E+qOZJquvJhLH+/XA+EXyYrp092kdKVwDQbOoYKARSLCNkaAx46EJFvMRYVLNtANmT0BmvIzrFeIhwIHUQXAgTKr7bbIkEMA58DWBsKu2QHB9nxicuJs1rqYvVwtJ3BzCz6SI2RMpJUQlgAbKnzQH6h+R5luotR9uOfQy+9McY/HUJunvohbQhTuGYbyLpkFC4gYcjIOWlTWPQmAg8QI2T1NFT6AbE454kiiSOUOhjIXjhxu4ERUwe1mk6GQD527egwGlFpbjWar1RVFmT9MUO2cdY7aWwawFRESEZAsasCHlLUxNsTmGwg87CEYpbDkPUoCPpCjKnr5UENIWsJPIUoNVamBBwRW6TDggxX8+gFYq96amW++DACqgc1ghlKGcbULGceyDdl6Df3g7Iga/bo2MsiGXM0QUIiJMkBqKWQTdO4NCUCGTIsIc+Rp3AwgwgRnbfrAClkM4IYoul02oROep6IQh0UZPgadBKL/er91e/KqnQxQ0BFl/pBNWCmoTBTSR7ID+5RWZB5Hh27qz7Z8EJcpDx0YIiQtQWhlELWSmcAzwg1hizgGOZhOUFGnkdAkMVNAIYsDVsLYM2oEvJbqEOCDBmLYmEu5wBX01Ewp42IVHGYHQvbl6pvL8EDoaHokiDjIWJRR4RIoSeGxZB1CiAL7kNWZ8iwKUjOoxSyRQZZL8bzkcL2OCTIcK37sKpLkX69j+zMFvlD6VLskC3KrPJerBXTV87Mp+CbQzaFLn20eP59DWmawJDTxQ1kGuliBlkMFBRDLGvCOE0Ru2KtceHs/sOC7D3XqwldOdroPbXXWdTIF02l7pPlvqmotpEHYt4lM4fMiRAm1JzD0gx6K5rqMNqGbJ5iOKTqDBmCVGGvYwuycQqVt4Gswv0w/mHOxaFD9hbNCd6jsehsILNvPFrqsKa4K1Us5u/q2SRleyDcJSsJsilwcOH4I3qIyjilIoT+NmRt8ByqcL6BjIwNchW3IaMTHmtjyDirjL2++vd4QJDhhMWZRtzancKXLXUXZXZU4KH2JGVhlUxSHczUQS9fhT2Q8rtk5pAFHiFBaoJ/XhkAzIi3Pke2LcgcH/nqA9Q2kLWg5+DJMA9ZL2W3z5CtjMshLCiq+X1RoMOBDCd6tEQpcj6yLIwVKJ/DGXampPYXqL6pDA+EumTlQHbOgQw1g1R+QLx5A5pItQ2ZqIM/CDluMWQVgG6TaEJlkLUBpjMPYL6GrAXhvEWt0GnRq/qHAxkOQteFhkxi9ifW5ovSABj5FzOnpLIRA3rJAym9S2YOWT0NZJ1YCCdZz+PlmcDETkIE+hCIGoSCJ/pytkggtumAWlE3J0ckoIgXAkDYwJaazF/V26w6MCl86exgIEPz3nAQOo+eU+h8WDcgraBDN1+UBeVqd19qAaaYdIweSMldMnPIesRBLe2OVUJCwRGoCzwbpggGWAX5cvxmGocghYSrxPggPuKtImE75TPspqmi32/DTAyhug6XELHPj5UKdCiQvYPm/R4sD/UcYWldLMv99MvJF1XcFmGrumAPpMSJi+aQhdTFGnG3Kpi1FoI1bo3pozYnevp0I0Wp38IbrGoa0eJpZ/OrG8VUg5y3RQcbnTlUh1XpTGNBckZFgeBQIPuAXoQuSdwps4wzeWrqAKr/SaQR0er2smDIHkhpC3SbQ5ZQ1jeAjrBcNkB25LoL8/EwnU6ZZQljnhbVsjrq1b3V+aI0+P+JRhg190B+dt8uC7ImTMhhnAvLZQFkaHoYzAlzNEotHin7i+WlDKQGWCpvsLReUzP1QH503RfKgqwFMGmSpWi5LIDsDbfriBLFL27aA5oiYClq7pVEWcCg1M1YyQMxW96jLMhqQBoI2/X4kH3g8urKxnKUBdsvbtqSMOakSP2k4u+VP4qL1PmiNFkFSxrMAzHYzsUYMnYM0TKzXY8OGXbIxgVklPPiprQkmKWSJpXM3UU1ecyVXqPkgRisPFASZGLUrNeE9dodskfvkDk7lz21BizlaJRUuX7m/EkD51JrIHsXzH51T9b/qf/fOulxxB0yTVzMvcf37/9yrcsXlQFFncRlj6iKZUHbxWmgVH0TlxYCp++B/Oa++49AFj+C+1HV+85Hh4w7ZOXK2hc3pcbsJ6nxiJEK6VLLdB7It+7RPwBZtQnQiMVuqnhNsYvO+9vf2QN/KjJZC9kxd8hK16dW+YvqfDEfao2HtNWrmu6WLaofIQ9EL1ssH7IgAdSuHvUEFmIXbTPp9ACVtWAtZDhl8UI8LEdxofsM62n2u7XQXtR8izPDUFGsbkZdKneJaXLHfWE4WywfsiGQdp35kXTFLoohyi54OVSeX8yyFrIP3DAQpYshsyqWoR6kQurGF6keD1BHITWr6jdEFULMNLLFkiGLfQhnIw/CHZ+qiF1U3W6/CQ1nAVDlK3shO87vQaZv1e+6xKk1ZCkHtZQDZEVS31WPcxcUahComPulNQ+Es8XyIRulm//N6biLArGTquDdv/ShfW//CWshw02hh3+HH20Ksx035ePbi7s45hqj1Botq/kyHzLLxB6IeqOJUiHjONKAphCbZYSrfDNGiviMLwOuXc0ei2v3ias46T06Bil+To0/8IhnDFl2PwYfq9b5BTWLIXvXjQKhKcewNMsXLZFUnO95tFwqopAqjOnknnJHq5GzxTIhq8CIPkL+aMEUAWkA1B3kAvpjL1sncQhef+xXxRz/iKpPaEx9SDaYjXwIMTI5Xkus9q+tJbxuyKSHKHkVEXQBEqzSD8Gb4/ekYDdtj2RHphvWOrtXZsikJX0yRb74cMW/wkVqIaoGTX+oQGrOA+FssUzIptCgwLPKEyv0UQfUkJLHlgerAl6dIBzCAmFDQBZwwS9Qb5a27wNVCLCJZgqts3rVup+umwpkcLQB1Vq9KF1BpBdpZ7AmbIYslyw6OjCZA8jD0RYMRuekZkQqihX2v+JU37SXBfxrBDW11cgLD5QK2QjqFHPW9kONQIMopOtz8MAn3FIl4CfgIWADXqKqTvAkdeBsjy4gJHeyndqFPgSE5SCBLhZxQ7WY6BqTkdnzobGOj5GwGrIPNJLFPQU17pTZoTwE5kvGaRSqQZN/qzOnuIEeSP4tl+NSIaul41RtQChWakEvCCLokMM+QaSaq3qwwIv7kFXBr2JtpqVKRUPo3oOsAS2mFyGrVT18vpouKudBhyyWmJvFC2ExZMdPTJJFc94+sWeCcH4KlP72RmoszFcQVvx7ybDUby3fOfuOlqkq1fgIVrmeWKsLM84iz8EPeA1G1Jw+a1uQzaFBt0IuJ7ZiP8wg4+W7m8hWl3LLBozY+KilpCUp3NhYOgJlL2TvaK5O5eTPjXizZzUdpaRG4NLIBGU+Sj28XZkCY4XlqPpnkQWY8TvRJUO2CDiSibU8SHPGCEHq8QmJd5uI7kPWgRbjxOXkkFzUM8gCIkpMYMrbmA1hypAtoEs1oUOE+9gYyVbI3nT9qoqQUvS+JWFMO8JIvagiS/A6NavI4me4c8Yr6LxSLmQxL1QF4AhWABDTbUCQmlmk4k0omvchm8BgsViEVJ2gGbFZv4EMn8TiAXQQsgXR1mHIuBfIu1f0176JpZC9cuJOzXM/rrBblZc/smLGh3wwMCjMD2WqmS/QsPJVWWj+xDwH3mD2E66gUy5kfRgKQolRiZMa7zDmAATn0OBJGhlE9TVkM6jjCYnxzIa7GDJ8vA2sEe/h3mLIGC9CbSCynZRshexdNyl4S8UxgSor0+iUyVISRlVWqLvds/kyqOqop+0uSo3EVbFUjzqekQfCg2Qlu4stDl8VuprDFE/5hoPRSgnZKIXMQ4X0fB6ygCGj8m6MkLULILugI7VlL2Q8n8pMjlF1e1bTkVojWBpMql8/MzA3NaJbVklLn37lvvpcqZBtNthM4JxRmgo/SxcJsoJ0cUqk1Jm7tYbpRW2OkCXp40EFT1gMWWG6yGzbCtkb7kCYyRzB18uYIizvUEVt3V5d32Bp7uZN7npVLm82BbKoqYLvvbotiHVKLqUKMKmYla8LrHxgA+vIfatkyMbAY8ENXhk4goWI8A6hsg0Z7yMdwpwti9bG+HDagsTGyCAUFQjpKQhiIgpbcnKQsfFBqKL4YUshe9v1YmNgzOcI7zdfJN35Lslb8mWmGyq4uXS3+chdSw/uVvfPCunInsrfX/ITSkktI8Pck9HQDdoe5ULmJKthsBlABY+8B+2ImGpsQ7agzwoPhtE4NB54v7IWl88obgWez927c4SMbcqqP84gi9nC9wPCeSxQFYshQ9djJExlTtyne/c95LW70mWu5NJ1o+jOc6+37uaub5FD/jleylO1Ind5mteZG2n6/9kNPe9ebeVLZX9NFsXBM5wbXC5ks/WsqRggnLZ86BJfSVz1YLoNWRWgEzQJsg54tRlgWZWQrPkRFRNbI+SvRy11aglB1oChwEMGWbpBTFWEMBEjHv0eU5ZqK2RvuYn5Ky3mjzzdf764dN1ny+UZuHkOwhS7q7Ptb8lfXy+5FbqtVqgBmYak2tLQf7VNf4nIW3CPS4WMAxKrvrYCCRff53A0yCATPUD5MOcZixE92IRwGMLFuinwgDLJkOqFyNACSWyCF2SQCR+w4RYCDfzFLfwKWyF75Ym7eNBZdPYFXL5Ttt+EkSG74+TQk7mY9exvhUgDyPbp50htE1P51BJne5QLGZuK/S5FKm+z/MAQUC0KM0OqknDdBaE1QMgCouic2Gqn3NW4nCcIxzQgBjDpgkPccUNNqFGAHPGdGjXAj1FPzlrI3nW74m/KManz8t43nWDIUM/ctN90d+Z5l1cUscCNzu5OlyGWnl2eXkXeJZ7x9entMvIjzBupSK6fukmTzLPT68g7u91Eg7MwfCYZMm47B9k1tnSvP3hziQ3dRlj9yqOqd+FyVSt8tm5UFvkdaqNee4JkrnnpuW+WDBmPNA+IAVHprhfScS54VnDsjSlCTQSrBWFlAnOEz/PmTjgn8EKINh73eQhdaijA8Oi0mtRAE/yhI8Q0ofYJq74HdTxNIKSmVxtv2gnZC4pJi+UNlDn5ThlL7g+yG8oXKaCRrhEBFN7x8VziCV2FEuMb1bqNXNIZniGa2VPIBFfddPDkJV1F6VN3HtfaggzLqYJcMwZ4BWeuR+WXRJfr4/EZ17rVmPuv82qangty5Z68UjJk7LIn7KPzi5Z85mT/1enAwmKCjO5tbsdbgfHep1PckBNkNfmmrZC95zbE4+ipagKG4Z8MstsUmsj1rtBR9G/vlr57eX2LkC2pCM8viaf0mgg84+s7OkjP9a6vQ9e/Q1SpKGI7hBihJwmRJfK0bjuDjMrPrqi5jUMCS2yJILtMIVsSZDdY4ebax1pqnuTuU43Vi7HKzL8vFbIqGX018iC0xJDtV7ZChuPQms6nY1LJeeDyqcavyCySSfql3xAzBNX1KmatIYskHZd8LYF+7hItQ4bsCg8cxKiBS4KC41UKliSeuCrevKUGMsgirE6nvjzNwuldDjIsD/lUEcJ0aJO7Lvhzxf59ucYH2hbVBvSEnv5LkP3B3tm8uk6EYVyI4kI3cgVXgorfW/eCuHTpchaBYRYhgbQNFPpNP6BnWwotlcOBw6HLLrttofnLfJ+8uWlP7FvnxLmt9+oD1ulkMjlCf74zz8y8+dZ2Hdq97fjD2e2uxhFk9EWjr8R/KkG2ZieEv285UKWbPUO2ABNMBeNlCqsS0YfZQdA68ILaETLGmdnO/xiDNiXIAtyDx6ZSBLoMjGBIXt7kv8FpzTcN2TS3FO30H4LsEz+sW+1ZlIOT3Kz6wc1/5i4Clyea++iEFJ6FLPEX/H0HFFiALMcBrL3GReeQGUDE0OFB3PcJZHvGFawxZIzrUwkyimy4lf9S+xwHpnJafl6I/uCNQ8ae4jhStlrqkXKtfyVkX/pz2xjlXr9Jy6z/NJJtc7sjhjZpCbLdKWTr85A9HSELTyEjMWR53/sSZEUz7oJZK0EW4s6E0L9sMFrkSDWWJ2E2WIh2BFl91e+VqnqegkbLoe7UlbVGwd8A2ZA6i+74qSV5QhTtLWc3hAyBrKmuIU+GzL27CL7SZ9MeGbId32I2bHwAlxI1DFlRSH2+q7xOxrfnqEL5cHXBkCUZdiH3YrU92a7WWOQuSJF2wBFk96Hm9FNHNfjQf093lFPJKYXv9CjLjFXS/fnQ2C+9mPDakMmBDFi4WYmW9YP8M6ruLnIgi/FZzLZkyJgZ/P4XjAdDZzAQLEPGpKzphmJoSGgWkGG2xdfZcmQLxYRs4QP4BJ95qFxvhNmohQEiNBKvL3CQzA1kNZ2pe1r3wD/hqe4pp4p0IFyZ65Va6elfaKLqsgA/dK9Y14fsFQLZ9VUA/FNpyu4gkm0Wi43PjkWAPYhpjLIIGUrh9kBosbsIx3CTphtAVIYMFn26DTMqY3iUaYK+CsjW1PVhGzJEwIttfj9gMlOKr2HWy/bUXTSXsw4L8FmaJKYIZI4g62hWQx3V48OS47ZyrEByKpF9YKb75er+WdelpYNJrE+C4pUh+9afKltZBDXhi6yfpblEFTEGrKc8lIQJHPtTyEwZsr32odjwYnTeBy6nOWSvSTJxsRjNfWs/KNbJNnydFKYF8lAMyPY+tMnI2mR9+DsBkwqpv4WXxBgpkFWHrKH1sB7NS6HsrkkfXruuHGvWuwCZWkZWkHnYIjk6Wb67LmRYI2uokiy3SFVUeaVMSklT8TD0IQlJ8etB3DYGLeBg4aNqA2gSneYV+I5WCX7/aBWH+NwFBAqYNEFo8rtYaUIN08XJXWlBN244bFCHq6y1po52foAGIRVTvUG32MAc7ASCKh4ulQXAX7mCrM8xbKDH6pYCZJANZLUsn1V8EnuvC9n3xRqZEwfRe+F17BF+w0r3HGpMWnwarkmLWhzWNPzvQ37X8Tu3KpQeTu7ivlnlOpahjgAZF+myyatTOf+NOTczFcOYhUW5QSD7x5Ct8uOYGBNyosP6CsW7iCMZVXZHivTQUL1+jeNeF1dhBvIlxc0euPDQ5UNgI9XoowQ1HlR92YNRibA4Qjf1fv/Ix6yLLwxZ1ndz2b33VFa4Z8io1OeYOuquIvZjeLfXTSD7AIHMOVn22CKbTnkf6wsGjP/Gty+dESCTZazOoFWKeqYIZB/8c8hqbB0mHEKaODk2R3AY6Tu61gV//EIyL5zM8m3xs5CXzaLhiVXSonKbC7xzuDOuB0Xm4FbYiKnvB96CHw/owXSx2Pg70aQRQzbSS1zNu2vSbZMMMnQQYJy5xKpdU9V1P8sW17wNZN/5rZeT5DkF8WeLNzZbOovXBG27dQGZeWG+N9kYESSskVWBbJZlTPTwE4divSJKZjDT5+QutnBiE6oRf4MxW+ZRjJpH/NohYAcooQekloJmiDHALR9+DjTOr3QSAMvuYkcfr840NMggY3dxqAvscIUPwJASD3nxSXO6K8LTAnULyBDIapfBwOeb1XFSZt6CoHRyhDq1B9JPqsQlyV6Um513arfY7OEqktWBETTQS9UGK0s9VfeAbKjbs6GeogmS1sfALniY6zCixvfNIYdAgqEbtfQE7cfLBJ0mBNUgZxDQtAFOK9Ztgiykf+JGLeSryPI96msdATJkqIIPsxqNKUp6gR7jhRZ3MOwnczj2lIMu6ud4Rome3gIyBLKOVciRMawueVJWfewkz01uCpl52l48sSJkFbBYkDY2T/8MuxYdzMkmI3V8lQQy0z+HrA6aRjqhAtXUMGdr6SW/lS8OEMHYcO9QB3W0B1Y9NEsoNEUBNWPIhqhtU7/jDLIaAJ4XaNcBZa2AbKYfOWtjD93dA7IuwJ1QVZdA88aJgpa4fAvIPnad/F7mT27x0eUUuMbqBMz1QyCyWVlLsEtf6CYa4WCmKdFZunfH58jcuIsMD9TS8+eQzXRHIZ40Odgh9iS6wal+g6zAv/JOdtMozzI11jNqdodqnpQNCd4IcQi8MmRjT9WnHj+1nfUwKiCr6Rr47VDYGmSPv6PLK1TFnOp7Rn3jArW9CWTf+IkzcrzK0e2XM2xViETCgpHEY3oo2hZFNh5NWvb/DgdcQMFwm3M2pCGH8py9aMl/OZjZ3WrRpfkQ6e9dQAYr8BjJOuVIhhkSoGkgfxs75qH2FOqJHJx8Zj3qEOtbeabECVGR6BGgXTFkBJsHTHs6BmSwWAY9latZJ34SPSsgUzWqfCTAlho++SDrrsfpUFcUUpuKBObC5m0g+8K/EwDylEN5lyt+Ew7Pl6uNPWCXdVwIQ+tF6PtJEZaSMA38OD2t3idYQ9vQAtohjLM2mq4HgXndzw6s6c1WZ9tLNj6au0nkIWcJlwvl8pP/xXtOIPPCtirmZICh/xyyvh62Wq04gyyjrRZpTTUDuo69g8PsPvYukhFHOHx2mYrHAjLqE2O7GkPGxkerOCW9Gmp9CpmqPYaEIYctQvWOwyYBXofxESwVBKJvAtkn/oeRA3Aq3CNAJssI462KhskWx1R4xyIxQTjpnDJDF3xcKKqxyQrY5Kc5EdNQ5K0gO2oSUnOUwsCnugN9Ak/zstM7xmLGZQdauVn6of+JG8gauqOKd2gCojuGrM+QES6ZwqiuQ4asrllLFcHwCzgEsgvf45UusIE51ilkM0BWP0IGRx7PhppjekJwChn4xZYppCTm7N8Y0HIkXfHTM5YfHEPmfkeVV3UMaaEfxBS4/OF+tMgnLZ/8OD8Rc4j9TeFn+Iv1Zr8FOYcE1QsqYmMjQ5byaTHe1GhCil1mgQwEO0TGpwW+7NFuLVAlSgLHWDS6bN9/+54TyDhtIlv3vVYUIZy09T0wYci6ejidTucjzuvLkIVTEgaHXp/fsck9xRx6ukUka8iQgawWW/081pzWWyeQYZfXfa/oDpEs1qA5wGdvqJFDDpZmzRFk7heivTcf35THkzKLcZOrJWhAZoiyXb6tl085M2T4/qw64IwC5yDbFd9RXBdnYXC7/Z9mbc7L0Us+HA373hFkA3YHO9n0q53l424DjHkxXJwr6AgZgahYEdW+3ojleSqiYBYBEc6Wfxky3DyKmVAvwNX2CWR93fFUr5iTIV3xEEB5mBhGBDev683G6iaQ/ej/WokSTzmV8N4JIR3TZVfRnCuWxdmi4nXKGRQXh8MByLyG7Ol5NRDCj/UcZAs/OJBinC4rTpLtqAYb7AUJK+wWYayKTAz73glkD/lkrEsWQjTQMSHAFv0kh+ye911Mj5BxNFH9mhoSQA2qhibTDJY6snLzFOwyZHUc3F8ijILfmO8pIJvoFb+W84/8Be53bF/CNlkNMuzYcrkBZMjM7dC/twfREyEzwtGqysFMhhLbeHlvb+jnYmeQkTqtTnN6zkPGKg5+opoVy3Mwe99GTshdHlNLva1h3zuBzMOyMdTDgU1sYXoEX20VBQwZIPLASlRAxmZ6TS892OsRACEN0SzRzRrRymblRcj4QMsDHpeD2gypaQ4ZTEl+G3sN94w4ufdE4d3T1GVNqQn6U/WudwvIvvE/e2F08oSaytR55ydl9hKD2d+23wKzwNBgMFlAQOsI2Un1ZcjCBbQ2+YAT1ZsFtLf4w6vOxsotZd5SjXymTiD7Iw9koEePB7yTqU9ufEczZACnS4X4JJIhDX5zSKEEo7wVU0rk9YnUAO3bowHFoMuQISbVVQukAVQ98iZa9wvIptRrL9QhguNgNQZkIO0+pAKBhv8d8H7i+1tA9oW/dLedyqse6vjgpuivXRwwWkQwcSU5xTQLh8q49XPIimpOmnMcLu7p5gIy5O7gVoDM8P3brEZgXdibKYNmEb/lbwauhyPI+F1I4OxBswYRb0Ns6ynVtYCcDrBVsJmP6RqIOWGo4wiGYgKfD1pSOdQTFKA78NgABgzZAPSGBWSB8mIdxsXCAZ4xBlx04wp4UwX6blINKYudY5SCJoJuTK35z+/fALJXlf1792b/zzYbYuWTjdKvUYYy1imnu8G0CtWL0JxCdlqdZH48LHzGi9DKIWPoANg2h+x1/oFDvJFN+2rmjRzh5LHjDq6HI8hi3llBNLBXn2C8iN/8sJdFpnm+1T5pKi8cKvyscQKGavCzr8dFFituFlBH3iC35jto2s/9wxaeMQ497DPGyWimGlBC2FTcamSGx0M2kIyIqKDWwrmbgC6tsvlYyE8F2xoViJN/3ACyH/3fq0PiOO/Hb5VPLRoZKZlbILNJeRq1x5HOlJh6HsnSvDrkfAa7BSx8XA3WKOaQIQPB/rBGkSFjAs0+D4SV/0uM8L8P4SVJgg4h9nq4gczT2iO8+Kc6m7T7UVfjhz15bHqTuvImoC/qtqeZ04Hf9aiLpg+tVsZOfdqeNxWr2W0/ojnadyP010WLiaeg3hQsIe50sdJ9j65a7Tu+SBXtvqfmNVVvRSqiJ6tGa1JTtS7ubE+95iRCKX+qd9dusfHQQP3VIXNve1TH7XPhHa3C/EOyFu0DxNbPtGAqoG1+B5dOq01SLEaz07EIisXofZj3gx5NPkKDgoP1WzGNUHEZThtGF3iLi6tIphFtBog2LA5Vb6+uAdlX/qcvYsJzsPTsyQc37caL9qGOCzK1+00QJuvcAuE3uLAWCfB4Vn1YBPHaMHCLgO5ax9Rms8G1dEH97NAoWeTdr5OQ3wJjMV6UJORVFo63CvPWRfDhK3eQJeQcNJ7tZPd66i3WNSD71p/bseHe9PCESZmVjDQbs0w0U1mA7KUyllcAjOgkVn2x7d5HIHMGWUvHfSwnvyu6AmQfC7s9qiHn7uCmdBTE2MBiLGqcQFYdNPtEpXIqSkuMQ+QccAfZKN+F+K7oCpB97Q8cBCmvavAq13/uNozJy2jVudP2kMkDVjknjlAUgpnQ9LS48ZE8xx1kasIvznxXdAXIvvBXVfGpDpXc5CObXef2M38jWnDVOUv8tGoYM1YhrMqyu3w3djS/cgqZWk36b7PTcW3IkDY4cs6O/S3ypEw+OGwsPHqh2snwMd0WXcgf5vRL9eOmxjaNlbxsqH2sQ7uB7J2UBWSuk1R5FQ5dCuZjJf1WgQAJNKFZ9XcyVZSR8/pbTLCMhbEqN00QyP6H7KWQvW2LZAKv4kqZxWTfyARd2j5b7qUaLnIYEwGRZd9cHh2aC1bP2oe1+D9kt4TsEz+wQeCK1v4P1XclFsWbZ5UzZ3i0MRhFa9WI7S8fNtv7pE/ec6P31TupNw7Zd/6jO4/DSXJU7xf5t1dyMWzDgYBexdGiqZyJvkyPbMfbMCjLPHPvkdjDkf5k7+xdnAqiKD4woqJr4QdRWQKrKK5p7SwWrNNauchtbhFSiCwIogiiYC2CoIhgYWm5bRbMP+K/YsKgyT44j8PhTd7L8H4QzebjZbPM4X7OnXIyiuvsBoJ83mLU8/e6SMeURIg1CJZx+qEpY+XInoLHFbw+u+jY0j0Dhkzk/mGJXAokurcYZYsV88huDDKLyIy5sFplnH3S2fc54y3WfwSMNpdnoIGITGL3sEDuh8yM7McG0/aReBE4cRMJzcGeM6omLdyIOdrwMeJyynxu/D1nZkcgtShy8bA8LoTMXF94i10jPlLsT30akcqA6xlGhy2TzgrQmU2Y4CPAu+dm06nthwY5W15UNgiZuWqTuPkOD91f5LPveGXqCiOMmTRdy8GjQjOIV1oWDezVlLlQmsoGITcjeO5ffmKNyEicOvG/aW+RcEXRXXy1lfeLvyMIvNCnHNmSe6FZLg0PC+LibsjOdfuIJADEoG8u4xkSOXyiYxZJRAd7no5ixup93sbpBblEmp91bic0zfndK4OsDP/8eTLYBFfOBkCzfYsxf99vIvJjDC4+qBGHC2lA7IjpziKUhxjcObNbwMmwbbWf+07YRs6EcrhjL4W0fZNE1CPMGTNc3WXQfUU+y8jXtbCgsNDwNWZJY9d3Qk+73LKvggTy50XGfC1WOAQsl7cIK130qB8nzo6G9339aseWuBx62mXH7EXG1g399UOq18jBw5n8RQePqG93pcjt3OzWuSX2Q0/L3La3DYmqYZVefAD8RCAP2Vo5ewMxFL85E3uLePqvixFoOuIppe97WmbfXrPH/unJD4kDebgn7v7l7Y8+SgA953WS40d6kEe++MS2OetRFtesxUlekQjKnBsHp/pdrotLM2MNfAzWsK8d35LYCz0a+RP42BfMXLWOp4IyJ0fG86UwFwvSYKSNMOCY9xe9PiZDeNJY4mroEciXwNfhxxZEPihj8xh4qQneImcB+XgQap/LPnpFyVzX80pj90JP64AEfu45p5F4UTzg1zpe0xgxu8hIHw9440yfMzJH/cdpkvi2l8h2Hh/cCGVAJPCZAToxixUcg+VaWbFy12JCK0N7A4GbC4pmerCWGtv6EtnjxRd5GIoAJvBb78JfMAAeEZf8ADLB71aSmY78RdDXi/eW4dfwEvR/GivAWXxUjsjugRH4sQXVgRM3iUNa0XKv4uCCgs7kCM+F9siqWrG3mDS2/c5iCDefPn2wxb/+OnunOvA7NA1/tXETaku3Sq6Uo3nROKFEwgnVBOvPrABnccHDG4VorBKS0cTNzBMes+MyXG1b1I0ZcvuYfIYDvVWS/Lh9EXuLvyf2n1Ho6QBCSIayH7iipqttgBYrOpS8frHjRauDpSjs8GRizHoBz6f2n71CLMG2M7JPm/QTIyiXoc8cEiPVlN4K1+rRuAyGXVihdlZbKPNaDZ+saexcX4buBnv2vbLGOxWYpaCM9xed8Bd1gEMHZOP4Pyk6Y84FPLY17oaeLrAMydrP1NfwGCxw4vQIrmtY057YuUzsbQaj/rkyxsyW9BtcusVle9e+2YrsyCo8ebG2w4Lx5MgbDpu8VvXMfh3X8/5r8zyKyN6Xxcg+EENHGWKefqyhsOyYarQMdgmBZprp28cV69Xzv8z6gKyD3LJvud1DJcOIN246YSWEZvwm+xaJaTjO7U3juyJT6r4PyLrIzjl7LstGSPAL0juonfypyMTl8Yt4kdd7q84OXsTJHMxqnEcfkHWSq3bUgL6yvndMNarjVY4Xs27M+ERgUxMWHTSC+anRb32FrIvctZeEICR7pGstVqfp+MnxbMHxibNNu8zClwXmWPKOzRG+Am6+5C3yZ7M+IOso+/ZG3rOSTVkrnn95/3Zip5hMjn59np0wVgKvTql9UXLkAGD0B9zuXfmnynxiNjUrpGWxNPTTXPKPQP32ampVVmtp+uzXzzk4vxXIRlADE3HhgzvJeeIJ11uEZ///Lv3knO4BStG8PGKuxONf9s4mtI0jiuMC1VVb3IOxwVc7+AtfSnppS9NbTz3m0MsenmlzWHbd1UcRyJIt9AH2oYUKgx0bYRBJGnrIMdcEkmubm3LMrQEHEUFqCIWS0Hn71h55sk8er1VpNs2f1h7NfoQW/fLe/GfmTbYIjFKplPxgI2l6zDBf+4scys5HRr2p8uj5ogyBgXP/3Vtierz38UdXrly5eizRfv+DRLwlp6K1QRqKGjUKWnrydu4yy9IV8TXbNOstRvBFzkTwmn5iKZvKYkXnrTA9PhB03Q7T1Svvx7gqPtbQGYLOiWamAueWvXOXCzPRd27xNh8zF6Dgql0Yn3FNdSLtDQCwoVdT5pYy/fCKIjpOBYOXBOx5qDCosTI62C3BbgQaIhmNSe3ebYgob+dhlEPyoscoBibuWQXP6EMz+YoHHoATF2Pxw6s/qLqaQAX9AWQ/RNAVgyPddPSypoTH4J9MliGKgjGJc+ce8y3lizWiLpgvRj3hmS87opdV3gpJqi8lDNWHYXS813PheTTIiFZjKRsHcAfCRlKjU+9yRprRUUHzbj1gMkb2+CVdSTJ5A4S3M/mhoF6EVUl/6AEpFsbie6FwvJ94/+oxVv9QtvhDJF1JGCrpeyjuhvw9ZGUdAA8uLGfnfvSFHPrV77Vx4rHiIeq/AU0JYzEoTnXFD1ZPnjx5evKv0FUciWEDO3zIsP+c//yDrzZ1XDYHdWvwYv3Is0dsGQegAgPRd7l7fOEa+Ut/Qlp/rYbs5ZHRL0nAmCL3bRm7pRYSxgoHXk++V/VYYPXo+INo46dz6zFS9lHCTKHvoYUMf2mgcm2AIgxOuVsygYtwTEq02EZv1M86Vbz0yhbshE5xzBps3iNkKkAE1uPj9iOE7PsIemJwvojV4AaiASFXA1iDwcpGxzGid8/HQb3DZLVHgfKvAs1Fx/ccUGT+BJkCWbvb9n8/fdshO+c+l//6XNttgAIMWOQ4Kl/SCBPSjB+oDrdYMFm+Iuxau8+MWqfNnSB7A7L2L7/80g7AOhXWnvZh6dGjR7GDbAycqGREf4B/Pq03HoueOPLueBTxQYuPQjzlDPNhezPvQLimjJ0gC4FsVUC2SoOyHqye9h2SPRaQUdTr/NKJC2QTUNFAZ2jhzQPHgf9O9s6DPiRceCe1/vuu8UGRf3fPYCxUJk9CK5ARJUJESi9Wj4Lc8TGxhC0FMr/RFc92YwLZuczFZLT79G/dBbBBT9E5ux/5fBcGDBYILlbqLbLkZ585pUzf3SIhQ0pIhxi9Hp/yGn3ubt4k2B7dvHnzUc9lgu/Qf7YdD8hwM5mqar0g1NrNH38uFiNGqkLROpcciB7Hojv70V0QZpuNRh7JUs6Dy/sdpBjsIOuBrE2IESlB32Gn6w/KCC2ijBqSpdNPxwOyMHMxByQ7ffz5wIokFyBrnUPbMDTJAVqEo80UMqLTek0vjEkv8xaPmMGLqVTIJCWo1RNyVldXD0VYe4qx7SZRJhhDqZCtBs92YgFZmLkIYFcqFQegbKEOYMuKpgxA+nyBbJiSiaP2dLS+8SFZ5E4s42fDIkWxODBGkAUDMqnuMWOotvAPMSu8efMP4gt/q5GsI5+NAWSh5iL44zS3HOzmzGSt4UC2BcOWc+eubvxhtlyHAMY/EXFlJP3sH8ViwRgDWScgZxXVQceD8sXXPmevKW2UwgGZ1KH5kKG5yEBmbfmIrDd9XLZc8TO/v3uQD8ZpW1XL2suKvi3sSYomgtnc2Asi4/rWvouQUe9uQ2NUl4MRCBNH/YQx+vFnzACO7VIfutEXsXgw1psudjrHiAWMdVdJ+DGgzOeMGLve2rx+pCSL9Lj5kKG5yEFW8iOZ7XOyhinjgQMAzj5iUxStYhOEr7Hplx9u+rCue3iDn1zWRctr+JAd2CCUC+DjlYVRybvxQC9hJDHtaxrLF1knsv/ZtA/vQF/FhLFPvlXdRZnwHa4eq3tCGQYyYuzlDVSrHTwar0i2CKUwyAqumxFsFESgAt/1qMG25TpQ2C0DZH2EvBp4kEP81sT1DbDFvTZ49QpA1Y+CdhkchCzjQK1VIHD7ag1GJkoc9eMTz070yva87nlwhlJxYGz8q5VXCJma8rVpQCYVoPSUxmMUyG74Oo5l7cNjxNoxGJMtwH4YZKSi60PWDCBrIEhuBRo41lpLWrugQFYCJ4MbLsuY+XkZK+1Dtg8V8Z4W5MyyPUITxwe67kaUpRqyRwl5DL2aeSLEYH4M9cmXKwgZ4y52V6U6xFhvutguSMhQq/LZXsj++ixhoGagykNmNxXIYCtp5UVg2ydrPqdAVsFohRdxMLYrmpsIWbayTgM8q7/SYIAcKhNyRq7IzW5Frwx8jckX796BsxQPxkQYE3rFGh+Hq1JdGcek8dE+ur754k13sXMaspUvPkkYp9DlwQDFarW6VwNY74XM9QDsetofrdn+uEuBDKCwt7dXAshUyfE4oF/W+kYZAM6wPurwHRghztq/xnXxs9O8Sc+XDZd6uKMR3I1fr3gSxljIupQBrpIoAwzmx27TL2nhq2MyIlJCtnL504RhGgNIssZHHn8HkOUEZCImgdCaa23Sburt05C5EMhLNsCHd92HbNcGcGpnRjIPRp4v9qwJucGDxmV6/P18vOOPZ39wywYtTceAsc8uryiQtbsn7mJXdRdlILuNsGE8C5uKRiGUpyAT+tywzT541gQHGZJVRsj2fQK2/ZDUckC0SuDhpxZBVvR5s/3nDoSqbkCX1aAxGRQO3P2zIHPBNAWlHK+xZiHPiFTEnaD3cqCpGaP3tvga/4IQk5ChOn3cRbmaSjaIzZdHvZGMfBIFspUvzUoZL0GRh8x1xFXXH125iFamkBHhrQIVa48CVYUgQ/O+gJDViMRMFdHcw7QSIStSqDsrXdwDXqmZpcXl5eW5+fn5ueWl2ekUDEVUnfiB7rhKSvcg3fAN0tduaRNm9j5omSoG0nQXDymUBWg96pmMbgvz46V8epWkQGZayjgHLYux8PPpNUBoADksYXPLp2VTfM4CPtcEhKwF4PuINl7yXMGY5/NWc62MjZBVcCYgWSEuea1x2eLM3OSbae7E/OLssFBzchTSVDAkFTxp8j7N8qoPd2w4hxbMZ+xTTBVJqrsYKNxdlELESEcCsk1sEGPyfgkZ6auEOVqEjX5euiO4KAJUKmDDNuaAhcaWAxvUWQSEDCOQt+bYCFnGgcr+rodQbWGv7Vv4dYCNJhofVaufcqG+R2p5rE+ye2l5iKThKE3DQuQ3bJ4l9BIdOIdiUfD+M4mYjrtIkUyVChk9LRNMBTKhzxPGaCH0INsykDzEouqIVqmOaJUAVfajlWjUfOPDrYEg7sC3QhoO4Id8MLNsr2P4ytr+q2p+AskLQpSaGz97WDm/MAVDki1iGnNMS/QzkwLd3/HgvFpOGC907klnuYtt6S6eBRmNyRQsCbITfW1MjA+vHpxv7gkdpOlTenu7amU389gs1bcPyKbYaO26W5DD5u6mmD4rNbA7s1tvBbPb+61S3trbxc5SfTdvpTfd886SLY3pmqSXloYEGmWP9x5o7YOhJv/xQoBBLE6EJssjbEzW7XZXkRTxmzo6arLIQ7YqGZPPEGRSX5riCOE0WXQhZIPSBig6WSpkImh+ULv3UMvfp4+8j4iARdFUDKagiTGp3rWLFM1OkOr2Jn+qfBAlZIdnRTKTTMZxgKQhkBVAUZQp1rH5hRQMU459Z+fW/WsRdskQXzkHosn0slThjD375xRk3U6n06am6i4GkgB2JGSSUJlgBpB9u2IeZZNgWxdQE2rWoFQb0HdofGJ5BoYux84J2u4+5NxFtf/+rR3PgeiKha04/vWKol8lZKp4dzEwRboqZGHu4vNn5lE2cTFKsrBtDUqKcT0d9TtEAW0pBSPSd47t3RHA3bsbOm57KKKXfeHlY7GwPDCOKXrNQNY/krVlL86TXT/u7rzpLj7/Vfwpho3LaC46sqLXj1N/qubilGQsakBbnIKRy3EEcjkvl/Nse3Cl7lLx2Nny+YqqZ7dZyGilFUaltmIuSkcELxz9fJ1JMAmy1ysKZaMP+Lhl0wxlQGpQ50ROisTxLdR3sVitiIyp+lWB7HFIytjlE8lO3wSTILtN+aJJTv6yku8lrVGpAVJsic5ITgi8XUrFYjhGc9CqXhNkaplSqcNDDEnqgIyxHdXpa4Ls1xVFXyRGK3miSzS+MvvRqeQd/AHP/4y/VZylDD7hr1efhjD2++1TkD1SIGO02qN2+DiOugky6S+assKKFnxEVgH2LW31R7kFUgNfKzR+STj7b4NSqVjMjok1wZdDIPtLQob17JVI1j56ceRLHzI5fS0hu/37iqrR7pamfdHRVYYNK5r4+h7SWBwwZ0vx5wxTRQPsMo3/21+uhOjVCWQUxKj0GwnrCwT6WbVDugFKeM7Si/qfbWb6OoAM56MVjdbIn4KsdQFVBgdZBU4knbN3nCmMpWKwkEqa96peK5CRjl4e0QzYidqcuygtfH5M5g/KjLIYAVxDIPOApB7GOmjO4js+SwHMxsFVlKaHqtun00XSSyqPg/gEqvvM1VtHkjFSR05G8+7i7VfiTzLJ/BgHsKLJ3fS8ep4gy9Rtp7JvXUwnMSb1H+dD4/OzEFPFwvEQ+iScsd8lZFJY6o1i09F1Es2DYfeRylLnFGTt8EiGM2UmDcuUGt36RmOyDEK1GkKWpSC00f8BTciGspRhbC6OnMUljCUSX4dD9kxA9vwfCRnFsYAmVUHeqBofBJlU99j2kJDdXgnR5dENyybBO5unME72AYqNDfDRWgOvmq1zx7fooncSyIaRPiNnMZunnorDGg91B5lqLpKeylyxzTFG9LW0IOvykEl9nRiVJqMuXVwD27WsEkKWAfTxkx6UJDnyp3ZcG14gk+tBDFh3pavlOMw/y2SRg0yKTv37uZexw/YblL1AEA+P3UVxgwKZuCpXYT3557lgDCEzKmGcgEq0DM+DFg7GELImAG2ELlgXkQxkQ9RETOzGhdhkilyyiPpNIhZ4i+1exjrK6bR/kgciJGfJCLLwo6Sf4ot5yC5HGOuPdn0w0EoRBzb8Wt1C9mAgW0xo6f9jN6KnGIvpZ95ZlNNkvp7Lo2sRmVbQ7iqn00oC5WJ7euJnBjASzUYb5DDOw5oVSc4pyCqotfQgINP8K/t/MjxLCcRmYoVYYuxyH8hU46NdR4yoqVa2p1zySHEXccr6BQMYDxlpRGXi5qGupIeaysEmVRje8CvfWxdXlDmyt3x4NgUCsfj4HXLtPaNv37Tw20ftoKVWtqc4V28rxod4gqgMVj8iVLqQfZkYieaQlSgqQE4wuYeQZQEaCFylaXHSAZlSo9F9pSYMW92YQsRm44YYuR7akEl11NNpCUH/Erd2ERc/Pg2HzCTvA3e6RFIToJBu2r6FX4Za3srWsHkBOQC0VXNkGjcobfQRW4qT3RHoC13I2AMkkCN1/wuVHziU9qNCmiZkl0fy9VqGkhVNFYDjyei0458mkXMvCtk02h4j1eSiEeFsCv9djsVK4JANLqxecZDhgEyK2+7SVtB6zJAmITNj00vkSGbliwDFzLZftTFdBoBC3rqQPPxujX6MT27jCFGjP3vhUnzmxRj7XguyYIB1eBZkh1SckQZx3F40nCcjyIwKZeGQJS2dzryLP6jtZi7sfdQEY1MJEzQ2Nz1azqbn4hjE5IiM028SMukfXg8WbgSE4fqNtqwT9xLPYlf2wxwRZBjJHuMPlLriw6RRGRvJ9DzHbMheaVf3BcnTl4swZU5h9xFOUk8tjj6cD3xERvpLQiZnwm6dThg7gdMhVw8HvMmOPylBRMYQtXNBdjmhJzPSRXI/ttSuvM3MbrtlupdVC4w6wF9Ub5yFoWt6OcaE8YGMh0xIOdWvS/NinSDSkYsvTX06OYnEQmZWKJu7EGTb0FK71rliqVWoWH21BQCGZUkIWgpgWLnj7HIM3US9OTLSs1DIVHex27PX+cUNoqx3OWOhBzpkjIXMlHXCuvNkHDgHapfrMSXmDs4q6J0GmEkYqMn5pRm5/OK/0vRiTJ2OXo1fjgKZ6i7KKTEKZUK0w6xdP7Vkn/iSCt1PZkIlAoIsspJhXRxkntVfuNzDUI1PzC1NS/Nv4IDNxz2EKasWObGQHSqMSco2b5xsefmTGGNKXbE7o0kjO7ZMhSy53swErWrD9QNTWoSYqhukgg26KrqaaQpl2M5YbjVjiR9Z/1Kenj/w782nxWNVBK8Jnhu8OR+8pIEPSNnmQkakiRMHF6YHbNfPLk/EP4Ip/j2v13y62FEYE+oEVgeKIJOMMZDJGh8GufinDrPNVgCC09c9AGffP7kWd2Pm8sdXSz55RdFac3Hn5paVtMtpG6CZyfmrP/JOEe8VHxw0OgpOfg2g4tJ50FvBm/fwJWv4krwlVTYzXXwTtbml2akeToQiuYgzyxOGjUEHZHvwesVBJhPGN+u/HdXRUKR08Xqbm40+Xa3KKOujd4FwsgYoQUDGBlQVfXVkAeonV31yANUi4yMLDl6xy9iXJePDzR0/X6HnS1S6dNPKn7x523+ucMpGSSViI2RtcWFm6s3lUNOoqempKYa+1PTC4vxbhpeyIZrVXyGQtaS7qEKmzFj3k1J30Sjr45Lc6oLBptQog4fxy26u56CMkMHaQQVs/+rWehFsFx2KQlWAlhFY1AVkYO+3EKQNBHQdHDQK7fV8EZ+vCUCbNahZLr7TRbTwzRVc4LFu7YubpbLGuYs6GpucmJ9bXFqYnZmWSIWQNTO7tDg3PzEZw/9EXX15JmTP1Mnoo9ZmWz3bdpWE89G8eMik78Fp2PniJSQhUBHjStaBvGXjZrEqYlQEL2k1QPQVMZzlAQ6sEi7AT+agcQzZBvYXkZsNgqyIaWUan6ohT/sAZHzQLdY6hjy8ahVqVo+cWBwH1E/jY5OTE5eE5lHYmJiYnBwbf3uGXZGzRdJrjbWL3EGAh6pUCmUtfLPyxd7jyWzfkN+oIDcZH4imVcSsMINQ2AIqHx9CyGp4J5GsKvig1fglgswRXfhzXUBW8qFyETJ6k//mffG+8rriRVZiMSh7p0jZIukVAxnnLsobfvoxRH8rkKmnupixQ7qnWpVLAAhVwTkuwV2EbbqSp6ubULBqAhESQYYXbBzK4c0Imbi3VSqVbIFaDWNiNoDMx+34zdsAUDlQj5xIvFNs9bUGZH+FQ0bn2iJindDjNtt//8hIhrue88kMyxdl3UWMMnlqNWjVxpoftTYIsgxFtxKsWR40TkOWQciaErIMkBxMF/ckZIRv8OZkAcjLlHKNWlf1TufT+Aoj7ZM2EbJ26OkSGMYYiUpWh6cg650lM6MMQc+57BiraNFvlTopku2eRLI0RTJMI+k+DjIsSrC3t9fMWhj1lEjmnhxTkS6AUqvRg9nEO8VUn2pB9qtifPwpTfm2H7w6IZEM4xinbySM6pnRxuwqw/BFSlIVgQ3HlWMyCZnlwIFFHFFp7iqsM5DRaEwo0wuZOibbE420c3qF8fa7fPFf9s7mtYkoCOCBRXLpJSSQa1PSRnopeqkinurJqxCQhZ0HXkKqTVoJ1E9aC/ZaLEiLil5qJJeEXEJCoDkGctW/QMTkYMUIEpCIO/s2eWk+1t1kzc5Wf4cmJMv20l9n3rzZee7lEjND47Rkm4Ojp96fDFQXjR1Dy4RkUYbQKuJ7ISnqDjvYewgJVZldXgMUkvESSApVewNbmm4HIyXjkWoXUj2SbUMM9erceRXuaTfZ7csXXXJoyX+sFfAF0RGb0UKygepi3UAyXUghWZMxcouyICR66g6765sQl1SNYtsJrfouJNsFOFy/D/FVrOg/XX8AkBgp2XOIreNlq0IyNGvvlfQU76ztm2HcTPHlneAJBD1nFbW8r+JTwar+mSvqzzBzNP8k2eCSrGXsGHLSKxm5RVlINNLzbgwMQsk4IHt6qJFQMumJ/i0GKuQe7/jg9ZI1eMXr+7zjYw3iG4ChbwvlS6JkSe2OvJcEL94E2IrBmtQ/nudstMqe3qnu26gO6W1VC5HFs9P6scRMEjWUbNiarGWYLHLqPZKRW5SJM6N5XyHsSLjgQhfwi2fajtdGXOL9iLzTMYldjI9VtQ7Ua6TYmpb3YR1ENSql7W4n8NrNVVQpIauXbPCTNOPreGduagpVjT3sn6ZDvEnYUtMVN0uwn0WKxZXsqS+wzcrv+si2zEzSNJRsWHXxo6Fj4lohGbGdskW40bMm2nuxrr97dZjkr1ohUXNB2jtMdHR8we14JalCJdC77c7F20l+7YF2RUpLBxN4V4nfkt8ZeXigdvr38RTA3X9u53zhSE/7cLaYOy6kM+VSpZpXeslXS+VMupAr7ndVC7u6H/8SM0vUWiSrt64bJ4uck6GS0ZhyOq9KRggJ6Mz5sK7X+VlvR67csapWVTFBtZQp5LKgMRuZc2v6eI2ZpWEoGX7aH8Vsj2TMM1XmYEWmxKYbQxk+aBbQU8Kialcpr1glX06vBLho7nxG+gIzTdtYMjFkkXd6mNEMj0/qk4zQ49F+CMiUWHVZKFP9Cnn16HWcLleUSaiWC0FQ8S7Muy2gzTDz1D51dXrDR8L18V6lr+RhobpIr7x4DkAmxY5rQpl/LqL7tZ8rZEqKPeQzhawW0MKuqrMuMQscCZ1+fLs1CuGY9eoisUZ8L6RkSkhxF/RW+cK9flUUm6mkc5pnLppxepFZ4estM7w3NqzVum20JqM06AN3o0nxiHibsO98EAz8si2gaZ6F5l0S1peZFRqiZWr8QIaVSMEJZclC8EJ2GknuZYPuGAIhmIFf9nrmjbgibbzKLNEUKokJihYlq986GRrJCG6UReCBTIt1mrWP7nmc+8VCVZkO1XQR00YXhLNLzBqvOynhwCxgwV1jPuImmlCsKxnBjbIwrY0yZIdcc9XMfHcJls4rU6V07HXDMUqXmUU+d0YCf59Esu6+NW3JfBCUHUQa9i5G5HgXjn8xCBrFQkVxgPzNAP2s0bJkta/6PtmOHsrEIS0mJav3LspOhkhG59wJcjV8lW2gUmGc6Rxyu39cVpwjs0L93E3LkrFavX8zmoezcddklCXzeLtPJ0tT/jGaZwBhj+Ocm5/VQ1i6qjhMCTVboKsZdlVZt6xXssGTkOpjVxep9VVpD7uQYwscPHRTnASI5DJ5hQIV0tHMumRomZAM/dLTRcGflmT13khGWrIIPJLJIcXB62BJzR8J6EliSaGDplmEZglESGZpXYYThPszRXOhrCW69vmCjLRkYdiR6ZEACDhimThlM5uuKMTApNG7SLGgf5mNQ+1o8813Ecn6MOrBf/leSKb1VJEufHh8sCU7jSReOxyCI6MI/AteKsuwkZoFCXbEjCeZ2C/D02kRk7GsJVpGsJmYvGTncKoHQZ5P+1BAEcNyGYUu5SxAiNzSbFzJWJMr0ofxWNNW3wRv+pJ5Ak52Lxr4/Wy6hXy1WE9vGTaU9D4AtZzxErOO2DAz9sx4Bj6H9ma0x7MAuzJJdqYXy/y6Ybmy4gKqx+RyxqtsbDCYWcO8ZFQmL/ZWPqRp/zTm3sh12T8aw07ljOcpBbNlNgG1z7Y49uEn1QZhfrILUZ4OrTH+wzGsS74AECAUzJbZRDS/fZocdOxOjZ2GxKMuOA+fxHObkngjeATg/YsbQ373xbAupSKlYHaRTUgzescO3rFBnB+8qDIL2zJVDuGvdVidWwzwGOZCwzTSAAGfhwZLbGIa7ckdi7JhOD5+gEDPhyQbsBcHWPHYzsxiwLUxrEspC2QOJ2U2UHs3YThr15g5ljzTZh7uyXRJbQCs2Zwyzs0CUnTXOmyQ/DFAiEaf1RVmC42j6BcjokejadaYWaafZvshJjuDJJth096UcS7EDaO842yajBe8JOofl5ldNJrtX2+H8Qs1mgBn9qJF5eOhrCOJl7/1iXXpXgBAwJ5/2H7e1JFNK2eE6gqNlPEqs5Nao3nUbkd/caLto2azwezjmmf6eEfM+ZDs/0R8ZIXkEwCITF7qiPBiYoHGwys2UQBYcL7KeJG5iKue6ROAxzIlhhh4EJ+4lBYO8lIHud56G1LGoOPNjEvMRSx7ps+s8z3Cf/z9q/cBIDi2Zr4QIK4t1xtSCRBYmP1m73xenCfCOH7oYS97kX1hLx5cf7yKB1Hw4lleEPH6HuQdjI+HwCioCA4oeBCiJBMSCG8RraUhh2JjCWstVFYEvSz4Z5nvPEnT1i62ne5u9zVfeLN5Z56dZGE+zJPvzCSvvX93BHPxpvUSHsoOTqvcff0xXo92skua+NLRk2N1rNOvb97++xreeP/O6BZ8D0yU3eJM2RZj6A8Gs2e3TRPvPYEPYqv6bddn1kNZWHUzsli5aL9E+MAeyq7U94/NS3WPt5gRu9urOjbWu7vYH//Th7JbeCTDR8rwVWeog8P12YodPl4Z/9/j2qs/nYOas2c3exB7wtPERf1x5Dyzx3np45PnttQ3d0ZPP7eT7L7v/ZRztHb54r4te3u9U/am339x+FsMG21gOX+y08QF/f7YOd0XZScPRKt/6+FzVi84db59dF3q7PG3X+f+9Nt59VHKp65+rTb79Yf5po7r0V/nzr39WPmviFbr9WD3lLzsj5/tbRSzh6lzZdB7tf4GZ9C91a9SnpSfvjzA97ndhH69KClrGbtWPdyZslMH7xE+fL211KV+unjssI7uPXN2dv/s7NTgxVni/2kMW6DsyH7zy3Oi1dV6sPtbhJ9pTPybHtI6m5e/utKp8A2vc6dR/Wmju766fnfKftkDZQ8FJEUlLZ4wyUjY6GTnibKjGzbxO9uHw/ZYJ3xm+c9fLi7OLy7Kb1/+31LEVdlT9pSAeqpgzIZ0KTaQzLfuut2Z2IOCXIqtFBOpROyuV3aeKCvzrE836f72dO2MGmyPVtdPGT+RjYkmAvIoFhsoJV9sp4iUFPbq4z63UJdKjcXueri7h390/S+G61jGdF59r9X1U8buvU9UCKjYjB6fPLGdLol6wl7ZlsT0iYrMZgyVu3r4GMm+bLrzofj3q7ZHqw0pO7GGLCSihCHrb9Z3C7GdpkSDvUAWbxVfUCbstPuOslKfr1mcYVtiz1qnzRa3pwxOvj1k/bsAmbtlnppRKOy0+2aXUj8+ujV1NkDy7fdaberkY+2HPWQUzSHTS06jDBrvMVqCTJYVVUnQBDXlksv0EmS6p0UjXf1r6upiqaurRyuQra+WS05iVJ1lHM9VSy1LySd8xooCOQ/S0g6y+87pwS8SbrPFzSk7d06P9wBZXkMWKNMzY8YiV0S+xNmgIHInqFGkvK6QricLCiXHqHGTpGXSo0KX9exYTsW0ICr6smzDIyLPNMx1iQxJ5QwqbqOAvRkpX2e4FRmj5bSGtwxwvUT0aBwoJI7Sp+qWpNsXXUVFD3GzjCiblj89jhdRvwoTCaUDRbmQKhSpor6E/xjzvbhEKpbGB+qlpC6tIHvZwVj2+U3Nk3V2Gc5a22Nz/X3POTu2hCxzya0hm5DiUSM1qEFIurQiaCIiggqREKVU/kMMU8oKiMZEFE+JInYsmeIS2h634UrBCik3VSnadwlSgRAjUmihC+MC6nL0jCC/RLMAXZdl00ZTwEOmNjMgGSUirOJLYOuL5BSidHBJNDTO4xjHoXFMIQNcRrlCUzaQPWsg++7RTapT/dh4bXCrjYXN0vdtIcuJZgwZuhsgUHDyBkTKz0w3z0nlqQKAGRvjJURgJg4QE5YHwRpweX9E1KvAzQ0AGtB43BzLI5cU4NJov2SnMKxOuIU0IXLRclHRq5i4nMzJaESU+R5RaNJRtwYuJHdYsuNV3AzNZFlG5m5iUiZqxlfAgdHUilQfTEv85QpVDJmNveh8trbbH4jZ2NoeW+n3I+dFS8giIm8NZD6pHkYCD0CMMcZQgPhC8sCSTsJeFzFgJJhDRuNueNlAZmKRfpkkTxOODBnQAwQpzkOkfThOMGIOwygnN8I9kBQQan1pLqW6aahjyiRuRgEy0JcaREv8kPKpOl4qXGSEq+JS7igPJSAbyKI8JhhBJRpIkL7iqIjCkZ/aQAZ7EfuHsX7xkMBaWhvcaiv97Dgv2EGGQaa3Chk7DaZEI4lCaCbZ+AA4AAJIxJykJTVkPPQ0kM2ND6W0YJxYHoYeUBAiDtE+ZWiRDYsc8DHYi8ZHDpYQC5rEkBkxiMIk1WZMlllYGx8zFJhR00A25MwTNXkNXlQW9DFWGkAV57l2kJ05Z6v7XewfzuxR6/CxtT22F/ZKP2UH2SU63CpkES8FuQQiHinO8hrIDANC+xHHTOeQxVdA1kVr0iNvDpmSpj23DGFwcDqpEsrI17xsY7ACGV+qB5sCtxuh/Ult2StyUQ1lFUoSMCIurtqamfiuuU6K+5RxDy2aAgXQbSF70blfQvbhav/u2PFlAVZre1jrTUxK20AmMlJyFTJ4G0mSdImmKCY31UuQjQRLdmEnzOaQpWsh49qxogXICsHUCKiXZ0TKQJYIlp54tAaynmBFw4IqyGb1GNmHLdOVc8j6zAwSQkCmGTLE4+8CfdycHIVk2FPk2UP2ghnJ9v15l84uke0k2f4oOz22gmxINFmFbEq1BqIkEJgNFiFjmztAt16CrHsVZJOMoAayUPAgo8t4XKCGrMfUhQStQoZwKAGANWTTur3AJWAW1ZCF5FW3NQNktVE5NXeY1FeLfEVUQ+bbQ3bi3DtyNlhaZfe6gdb2uEnByL9vBZlWVGQLkNECZGbmTI4VTvUCZImovXe/uwjZaAGyrIEMeFAxCddC1jUjZVxBFtR2ooonayCTfCFU1+liUrUHXgzIK5AlDJmqIUuWIJMgPJztD7JjxwxlH1jCsR2jnavrOm22aC9YjC/bQCbQNSvINEwEThenopHG/NGwgayari4jteg1kFVnI653G8g0UVH+CNeki7KMc6eVKzgBN3xHQyku10BW3bbqSsAZcfuNpRLEmEdbmy6uhwyHWAtdQRZbQ4aFVS85FlNlNqi1k2TXJViMz9pAllSQDc04EgCyqMr8ZNmDJxMGyF+FjHt20kAGMpt0khrIKuxWjQ/MbNXjn19BphumRldAJtlkHK5CNp7yLw3XGh/ueshCKgDnHiF7iSH7bC0Qt642W9xRv5Wfw7GATBQMGdsBE0BWZ04+adjvJsZnn72BDD2fH+mWIbs0JVO0yQZ/BY9s3DvPkKUVhTzQAAtqIGOKxs1wWixAVlufPm5jAbKAMiZw0lj4o8bCXw8Z44mCfF+QvVDai9Anj65DnZ1o7bS2h7UunGeOLSDrUj3qhHKgaD4ZjW4oYYQYQHLT7aWeQ5ZhENAZE9FAhgSy0EGGNlE2EZrxTYlUA5kbSB+jToIDejlFc8gAn4gUhtMmvdQ1ZJrIx1XQaAMZj74Yk2YM2cpk9JWQudI8mMXWkDXOxykg+2ItDja7XNq1wbepvx87L+4GGa+qV6bbaoKUWy2rcnOfKARv5A89ooSXXFBaQ4bqNCP8bgMZMwIZ4yMyZz1YG32c6mZZFSkDlixP8hh1CUPGDPq5S8CXFSJ6CsiYboqNGTNZgAzFajzM0ARDZpZVFQSUroZsjD8CQaElZI2OOF90PjqwTLG1Pez0x7Zz0g+WdjqPea++wSD1KDVFEIazgJkJOREkipPKnkgIKuEJ5wuEE27OhPmmo7s45xW9BdPJFMWmKK99F7dseoTOLxkFqOvN3b7U/H9YkTIhaJaxQxMAQkROm/XKhfl7ZDYvyKlodmojMjCoRSIgKI55xjDfB2T3K8i+upXksNOctbYHdHuPZQzZjIYC0pnBQ3uAbcgkpIotQd6momLJVJLbw1YWo4kitysGlDZbXQQkS1p9OaMRvD1FZX1UEPW1CF05h4wvVm1k8QIxVpGIVF9AGDKzmZjO00XplTG6V480cVmdiC5dlhwZeLrmWrOs3h+TMu5RWBckFT/SLeZHrfB3jBSpYXnlsukxDfYB2fPVQ9nHe5kna22Pw9GFc7Y9ZCISLKn5p5Y4CFazbVIHcn7GUSwZiCZ+cRuk1vPGJf9uoBcDPOAS6aWtlpr/rWu5jtHLu0gXmoyqqKAOqH+uFnC8ro7NDeqV61m9EJ9fDXrdnyrrrIx37drg69Zfj53nt4LsVgXIDlsWkPF0NK/6uA0bf9VHaW2PPc6WHZ20kO1JgMx6OhovYDwYddpscR/6s/Tx7w5k/7B3fq+xE1EcLwTpS1+kgi8+eP2ND33yPxDBf+Ci4N4eBCnuFUQfLPogiBa83aViTRFdcJcKJW1KyZjCDQnBiQ8L+bOc75yTbroudZckNynsl3t3ZzNnJn3IhzM5M3PmstdtVTtvUyD7Zcmdy84qtNzRYL02uGnlLr19XyAbmjhEt1XtKMAHZPX4qxWocuYwWg5DZx32eKbyibbbh2x8uITRZFGiuPEInxyNEA2mi1pLTYOqBBlSELxMRRS/Qxuj15Nk9QwYW4fseLm83IP5C5hm2z9C+3JqxwME8RdqiJoGtVFFL0oQnz51qmHjVOHQWU+SNaAQEcaWIZvIjPTq4j0zlzy7LMJqp8XaR01jqgjZWwVk9NtH3dF6tFhbhLFlyCRFwOqS3ANn2LhWqI8lW4uFmuYkkFXLC8dr8VdX9bzB67XBTUrRg3sOWf/ipvn9hew5oheI9cfdPCyuXDbosV4b3IbyTXr9fkNW0v2FzLyUPSDW9zMeVkelK2uDE6UXDJtUbhbN6nCJ9pHP355GoQX5WZ29efTCVicg659fXJ6NZtf7Z+PeeMLbO48nF+d9uT46u7zg5DcC2Rm/0h39NbmeQXY9uZxMpcXA1HQdsjcZsjsy6jiNLxmuMewREHkLFvJ5qPGWCnszq+Rmu20opbjW/mJ6swuQXe9L8msRUmyPeVfMYIiaU8TwOak9H4opkJ0gOinthwNG6fCKs/AMelyDYrche4VeJNH3S8JTnSOnqbBHSkTBAvIivJ/4SzhCaa3dZLcVeeTW2l9CtN0+ZJL7HttXRIamA1zoS6Z6xOsRS2Tt9QUyLLAvba8BSrJjRZA9kppuQ7a1SZsk+rmC96ryZubUdrhmRC5RthCycClssrAYtLUjj11prZNl7UOGI1NGI/MpW1cAmU1Mf9pDIvvpeAhksFt0//zw2EA0LUE2ttb7k7/2rOtDi4PjwxPsq0Y9ak4/7jZkGw/YlfGOly6oQtgDOLkyLEzxHpaGN5DlKU8epX5SAOVLEZV+Jq2kCi3xOzQtuKUoQRWr6CozXwmuhmlyY5WUmtj6nG8vtyn1JfahQBbKhXpAD03so3XIsFPZMrTHV3kn2gC7Z4aWov4ehoWS38rwMylDhobAbrQvSbUR1UfDQ7vr+hqeruOQvQbIRL9Xn42uHs9/p9LgKNEUczHOAqIguT1cTAOSi7kiLhpFKKqwGC6GqHI9mJNOXWOV3dwhRpWPom8qzE1s/4kyV1OYxiGs7F0KNkPXzZW0iihCU1Jg0/YFqzyWG+LGqEsD/otqin20DdmF5LOC82E9KbZoSsL8S0xay/bPMepKkOHCATfiHc9ntgVqRtL8p45Dtk2bVOjTDuSsqjJJFpGL2EVmn2M3wNjRzQUyeDhQCAU5QgIU4z+7D0ihFYW2CgB5qAlcrmLlLpsm4M9aBcaezdkUt8pMAf8SaUQUW4sUFKnizSsMyI1d25eiQMeo1/ZmuI2rAvRVgwJ6u2XIeNnUMU7y64meWISK3HLWe53zFsrByQHGjmXIzoXIcxhzZ6OLPXi3p1LztOOQmSD+TL82tTzReUajRY1H2gNkeMjxGZUhi+E5fFhkRKnFK8cjHefwZtY+5PpQkRuiPshChasQjPzdxCWNToNc+gc/oYJp5oJabW4NK0EzI2kVlyFD3wlIU/iTM1RFMlwE2zkuxPUELDefaxkyQ4Fkv+7L9Sey3Ooar2ZGezxSPJogHDIHGYp8PqagdHzJsY8p2LRubdx1yN4subLHFVlxSqXFTZwGJ8kyIh8gxYCMWVMUlCATAD3zOwwiGV+y70O7lCHjhztBZx5QFAOh2D62iqvBUwDIFN9Q7gfyBGD5s5T8LkMWk+ar8mflXs4/cYO0xkijordahmxgg+7D0xJks2NVRHjROgGJe08WQDZze5Lg52rIkDF+o65D9jxDxvplSbCqz6I1MEkmbsAi4QMfvjSDrKDFDzkIEQWACKAY5YyTmDOaDEqKvmTg50vcApbMcg6obCll6BJb4i+BzJPfZciIdJqm9q+NiYIouxVdzH3tEtUWxm8XsiHOVxn0Dm4NF0f4niLzPDQ1+B3Ch017o3nIxF+JJ5sgodwIPU8xgJzYmq5DtsWMiT575q9jTm1rg2MipZT59OTpl68yZOFsbQi/VKWlYRkbMBPwNIJtwpCVuBEaLH8ZIBMSAZmUhEhxsPIbkMm7Y0giN0QIROIc0q2PC4CsFml6q1XIcHwnXNhVGTLEBudc0AV7rON5yKb2Ai7B+PRmTm16A9dJ1yEzK/FL+qadgzWdGhLoZCQCNEX8Y96T5bA0H4gtRGnGnizm9mIOSxka4plfAFke3tDAkHllyMQ8m4Msuw0ZBpkelFlYFSgTyNBr7GUoVxffebtNyKac7LA/y2bKkEFFWP9y3x4lDXyYpRJkg4/ZaIiKvoQaD/AW15fT3Ts+GW0XfZT1ZWWknArwvV9ttKi0UUCU4Tn15XGeQZYWA7kII7acqYFNiObyTiYvSyEazEEWspMLAyVMscEcZOzC+II84xGTk4jX1PJX2T4z00vCUwrSn6CIcj3S9EbLkGEWelI6YUwgkzAjp+8FZFPD4hUwKkEGoOSgaqAEruDu7BiSI5HnXZ+MRs6qsr5r0F01uyU6pkDCaey0YuuvVAmykCN+ijRokGgh2yPu7lvIcDGT4F8ZMrlFiFYButLAjdQ8ZEXoRYEkgQxAx/itAXTmcjEAY7GLOT2GkD/YiaIBhfW5shYhGyBv7/VPswMCS5CNsWTjqam7shSenp9cIfhRhoyz85+aWTaLEhKjXk9MWfBCTdcno20i4bJ+XhaZyhA6tYY9QiLNBaDkY9SIwIZfggz8KC+WuKGXeGT5MFbamLoczgCZgacJ+MxD5qNTUxXZrjS6Sv8LmY+7KFy9GcYGUWxbeegAc2i2V5X4EsLXSRJLjFLr1PDpJ5rQY22urB3IzmRZFHR6hjAFqzhPFhiyju2xLtDlEJXlndFwWCAUXJkKaN9EIoezmoZ3RverQ/Y6lfX5EuBUxMlpYG2wzHxBmmJMRkdkpG+twg9jgtgHGUUK5cQlyC8ciV/MWKMX7jm7eVqhOJRlIQBpNs+dAb2YHaTcuoguciuZzXY968Q8vk1WlFwMGm3DlKwVfGs9yt27k+Pv9BrSCGM7pN7mvNwYDlo9nZ3HbNckXh2jODVFZPqGWzuyZzRNUeSM4fvnpv1TwfJgbPzeBWqGAM6MNM97Dephdcieo1v6tq19ZFgbXEHRzVOtUouHr5Qn+8nkA19Kp9ZIxzqFKZ7BSKkIHIXcIIti5YWz3zraLeRrpXwpKvQg/YtRxpWpjsVKGE1VHIV8WxXlIVcmxoqvpihJBCTWOT7NzxT91qPo7j3Sz/ea0uGAv44R0uiPeoVG/d6sfHwopf543C8aHR6Jndj0UW3LA7Yfyx2kpkntbFTXAyrrsVPjkvu2tkQDso6IHWEVNe/KHvbWukPbG3WMFzeppK/rXCbsrGDwzhqyphS9e+db2au9zqnf64ze24DqHS/SF6vGPNpfG/xMIVOutzBvQRirRV6kC5D9/1tZt3T4yaM/ex3Rw62NOvQGbd4Zxm9eTs0JdDJSu03J/2/fKYchF+PkdsGpIsB4jyj7+9GjR4NeJ/QQ66trGS++QGX93kC8w1lwobm8wdjj3JTiOPwvdxQu9GRQnu+2r/+dK3v+vV6HBMg6MWB8+NKGqM71i9DjO4mo5VSKe3y4Zr4wA08XSLpL+n9z6mw9/1J72tnZee+Dkv755MOdl1rXq9sb9emNOVf2wwrIrM6h07G8waGntW/xMYFzX5sPURqZusgPYROlYWRrkkhrL2TcTMMU35oIa6M8n5GL2EBsu4Ffgn1la7WoVxiy8hLGetXlwzWzoJgrjkhrnhZmBeTHUuWT0nbJfCRT1WCw2DatCa0wJMs5mQBPMout237cA1Jmi/RaLWrrBdqksr5fMi9H5UWLTvt5gwNyI02kOdtVHIMblmt+q9hWeWSVp6bWsyurOEtAjKIfYLnUbipbnCnGfwMhbCM074JS2tzaWKtFvUkv0y39+FETcjp4XBLv7/RkbXDES3tZruzEpBz1CnmpIouMAkORpO0I5J2MIUvQB3fqkZJVXp1QYBJXrdWitmk+9vHZKux0a5JsNWkKZE8lsAmFN4EMfGRFJgLe7JkXbQJSsvGlDJnsnNFuvpvd2HZCnsnBuFabehmp4e7cvumssJjKuUfHJf3L3tmrtg1FcfzS2+LFS6nAyVLa4IbQqZDNgyHkFbLKZw0OpLSQIWkK/XgEQaGUzAItMlqEjKEe81jV1ZFtVdINqqJyP3R+g2PiY+Plzzk+nwsI4xQUmYeubSuyGP/4BeWts80AIXbfIwWRbR1XtLXVpfkkGsBzRihkjPGifOale7gW0eIsAcQTXigsiczPtbYdoYxEkiNMUsMIIKgRGU5cFm11EdkshiNGKASPKBU5v2jhlRo6P65RkSxVxTJlHc2qIsOcBaAn2+x29FGNG0+2XJVElmB2X9hCautrI7I1AGXxlXKI910kjcJSzD+uicpCVVREFmLPVLCVSgjxboHAAhcER3W/ySDY2GojstkpZfHVUS6Vle4CSuB67A1+JKghUd1a1ogM/GzSM9qIDJ3bvYe5SMw9ejgXjSITD79xQ1zRVg8CcJgZTKYne8xCRpVfZedXDSJCmeTMOa65AC+OPUhqPRmEXr44wMuNQRgLUQn5JLhNewnghfG2ThbiAvCCrSY4pqQ+pq7r2ljVq6Y+4LrzuxK8/sV3M3UIJ4a3I/LC1rJQJwuSfCNisFkc54l/rENY4V2IvNSciCdrbBNe4MfltklmqwkxHDIjOE5FNmH2UU59CH61SncY1xu88v1MB5GPG4ZXO5HNgrwh0d/cj8hs10FmH/jiHfgsiPCN+HF/2+qCMamPfdedMhvB1EcpYJQIx5q0x4N4oI8+uuEUxswIJjb6sZTn4ECZm9a+ipvQG/wgNoosgBEjVIKpj/LuKilaHNf8r2j0a6oTqOtDPW9gBBW+tvg11ug1rn20OIsTXZLvHYGzm4RChoOagPHyqqW25C9xfYpkvYMGXlTztuTK5Ide+pD2sBMHDhihkGdQx49WA5tlNJwk6yXUJayaIxhBlduGarF8gY4drCleVAzeti3z8aKrYjSnaFE5CQ1IK+YVOFDlWioUbvACnZ7im9BaNXxyZmk1OuUAXVkX1TK+e2ZkkcxW7gH0jxfPXPdY/2/ZlhHUctdEVZT2MAIT4kVbG4R3F15qmHe9iJFT2qM5/YsXhSdj9iJxZd8uHlIMFckMwoj84t6+/t+xPeNaVzYv16S5Dsc1iVYkVI9WzNCBej51FSFySnuoxad6tGrGIOGuzQ12ihb1Y2lCvGg3wwHUM3/f3GkZsECnx4QULypG7souszu3vZgks5uY5l1UM3RAwpdqipFTb7B5rIxZDWcvMlc2hxvermWReoP1woMXjFCK3JXBd5oks4GFKft0LEa0fUj4TL3BFhDAa6Y3k72nzG6GI5Dy83EzLxwfKe3x7/SpSfil654wy5G6skHtZh1OaQ/D0L3pw+4G4ZyRXGXz28b+S9tzSb1H9yS+rbvwJXNlZRw4/0BpD9NZab7kdHg2td6R/WHvDlIaiKEwAAdCG8W6sA3NYihMoRbtyot4giz+vQUthW5FewQFNx7ArXRnEbyaFpc6mZIukhf+7w4/8/Lem0SpMWwgZdwNFm4j5VL8og3QyGG54LaHcO8C/tws3wVcc8rWK1aLsh2yiX9U9YdF6FddlVTHNBaMxu0WrPaluRucoS2sinN86QtyUqmUZrBo4Czu56wWRYvdrKq0L8so5dS7Z1GjgTH/pUxzSCZH5GZV5YszUgmdw5hwyoI07w3OWdyh7LS079hOXyU0Ro1GBg9ztj3kijuUDX2BdMqCcQC4YMoiHrvV3A3OxHPMpKzED5n3lUpoBodwytj2ECtmUtb1RRqqhHoO42DK1qu9D2Oa1WJeftYX2fbIoPWxW2G0CPiTMl6gI8YnaoYsh5CpKWoELRdse8i0AXoMWQ4h65i2lN3e8U8ymT5wxpDlEDI1gTUIunnk45oifWHCkGURst9hWdgrq0WJ3jBlyPII2cDAosUL2x4CbWEZsjxCpiYwaPPEIZk4V9dAhyH7ZudcXp0GojgsBLlrUXCr4gNcCboWXLpwLxw0cHARMpAXBJr0QZtCuy0tlpZyoQtBcKOIIIovXPlneX6TxBgf19RUza39Frd3JjPn3EU+ZuakN82Q7MQ5PJL+BUNjX/Y4Hly7c+f27Zu38KaawLywl6whkp0+qLCWxWpf9mgyhVsFD82rW5JsMl8q+pZw4JXaHZf+En5IG9AIyU5crSCZmfhUiX3Z4y9yTbt1q3CrxFvz8lYkUzEzO98pFHOn1O73aHNUv0Mb47SoxHGQTDaMZ8xfYk+oAvsX6PwFrt0Qt7BsHc0788xWJIsYBIpKhPyNVLZDmzPgKW2KxwGVOBaSyYYRbKPIuC97/CngVrYlrMgDfOejvmQDTmlTiSUPqARbtDlLHtKmKO6X2sdDsqzCWK38sd8taj49efwSPH7y4f4fpThubYxjntqCZC3mkTtndqjEdE1bkaxFGzNdlprHRLITl6tZ1gvpaP6Hh2RP3j97OjO/Zvb0/evt5sCylR+3fp+H5qX6kimbI/noMg+ozLYkq8txkUxe+FEJx/2vF7I3L1/NvnLrAOSN98/rxy9tCevzyLxSRzIjJKEDu7RrbaLQyPvLNT7l5ZIZrvrSqWSQbumRHoHQJyqmZ5KF2VUDw3OUi77SHOUaum0Ug/XkMMwGuipL7KnmSXbilFmRMR3FDj8ke/P+qXk0z35bs8KtrfLCPF9HspaDm3ks8oAIOgQ4mI0S3M895hFldCyODD3ODdheUErUMmIOxJQuArna1bnNiQ/j+sxrgzoJW7EynPGcYwnjsHVIGROHuRdCplH6C/4UDlz5TJDYTdJMS0vNmVcYOGS2uzqxK3mbJ5nU8SvSUvRTdvUh2RfBZrOZeQSPNwv7vHTc2j4fzYM6klm6Rj/lmECXE/J1RbHPHpwTMp2MAHURSKYCFlzSOE6XGWpG6BljJZywgBgxC3MJLgxcXsu8SWh9Ndm30VjDSxZiqMyCoyjkJMsEb0e8YGZLEbU5m28lolu7gZJJHb8igftf7RafP84Fw0nsCLBxfFqhClL5uFWfA/NkbclaoglYiUQuYxEL2McN33fyUvqSBQuSjUUhm1v5fEf6bUU9HkDSKfy0+qKT2GqPejJ9wYLfYei1nMpgzidLI3bYMkhZuTs9BmOZ7Gj1bO3rEFmwlBmSL2ZkYVsuDZso2ckDsyI8px+zey/Q+fB+lgmWmfZLzV7+LFSxJfx7BOapGpJFjtJrzojAgLmQTK9vXmohPAw8uWzBgylN4BWw2B6smDu5ZCPyIQusXcq40GIlvZEHY5Np4Du8ljaHBHqijceS6VCk9ANuo9UOY44hGXSNjAWuY9GSqW1yOVDURpWG2Wr3V02UTN5FUJmW+h8ekr2GYQAflXlaOpnVqcDXp2derCGZ56Z3e5sEmKAKycQByDUnEOAzEskMmz00U/cs6JnwqpBsyTECBTTHjKmlCx/oQTQffhkOTwgkAcGkDo0wYqzFDAyYpCVT4heuL0SyQELJ9QF3EaoPyUZNrC5qrpiVOevvetnjzbOZ+XvMXpeOW/8QlBdrSEYqlaxLwC1JZsGmOa8J2NjMLdjStz/cW2SSTeDespCsDWEVszHmJCTlFpKFRIfcw+Qs3RRqRxIhRjRlYTKyxX2dpaMzTSXmEN0LjkgFPkxNINlhYyWTf+CszEF3l8se2CXW4O71e83grXm+hmTjhISYp/l20SgkkwbRCoZoa0KYYtFAezLleXGmE+MKyUY81v2haOXAxFwyG+my53FryvBGsCWAwTTxqKUnux0t2QqZtFtDiLvCXAzrQz7mTnMlO3nWrE7P29GyxycYVgv7471mgG8v1ijhwx2Ksrv+8MuZzGE/ZLYEHmoZmAlriCVj0G3zOJPMJxp+LVkrncWKEtZ1+Vyy4IteY3QAt8XCYRoFRLwiAMmgl/6bYknQxS9oLhBVS+Y1VzJ8ibE6B/Nd/G4waom1sR/cawT49uLvS5ZoydbZXb9gB5Kl8vicMk8ls7KfK07Jz2TeV5K1RbKIAYK4KAlGuWTSgwFTSjtAxxZfAp6QnRsT82Eh2Rh+Y+WUBPNMsjXETSULGyzZiUvmJsThjpU9PrN3dq2NG1EYNojgm70pCeR2u2TT0L80ZAcOvRAj0IdBINmysWWQb3ohHGpshMGUQmApJIRCyJI2ba/6s6p3jhJnt9sPy44tmb7LerWT+VgWP5wzZ47OvL+Tm9GP59XQkTwsDZmvyCjOx0R/KhLqIeygt2Cem/OVKzPYXVRPlixG80B8ClnK+6eQgvzHIxezw1A5j5D1n1myYYGUPbFCSp9bstmnlizTlmzEkHlE7citAWSNM7mSMcv2yFu8v5ab08/nldBr+aY0ZKCL3URXmDSIcwYcfIUNIs8iEksRWbAqvCeD/gLZHHYm0UCwcgpSRaMlZMs9WcLgkgPSUmFTBHvaEQs9eBpqyOZ6yJSCJWQTagPAlv73VBqyV3i3bAUF/n7kBt/cXsjNqSmpGg5jW56Uhcw3aVzsuLo5CybRFGfIaODoIoiIlhGOURFdBBHuR5BxgDCgpPAIvbHI0G9I3eeQpRrqEN5fAYuIczp7gMgy26KjbVxP6VUcMrEQjZeQJRg5ILv6kCH4sRJl5mgPvMX7O7khVcxhRAy/JGRjsAT1yfR0ypILviJkdXjMjac6AuqBnTaZ4MrBNz79GLKQhkjcSIoofWiKDu/SJqCDIWN48274SREL8QH2grduITaFlvAKlC1FEdK5siVkYBaH2TWAjGvEraKeV+9DMhixF9Av5xUQKhCUg8wyafHoNpIZtAh8GEThzAQMXYoto114fx1S007ei7OI3RY5H0OWkJmFRAmoSXNgYu3aGT1KYXnSlCETMbWdIZkAhHNDFjCiGdFo0KIxmhZOjzM+wHTfGRO5S8jG1BOuTeTXADIk5K9GmRxb9T0kQ6zjRdQ6r4B+kcclIctIuXwcbdmkpSJYNUL2oQezY9uPoXKHcvUB2ZwoNmGEGDKfIZtSLm3uQlL5FB2MiGNSvk76tSPeyk0IWjwONmMyKQHtkAeDCU0ZsowgHVOcwtUM0dLH+YFTB8gab1emrDWoZ9jjjwf5THtoyn6TsiRkid4B9bt6s8Rq+ZqDTgB4xmhJBMQ59akZF0+PUcCYDPSbY3tH9pw6RW697YM2Hm7hRx4fJRsxENbc8vy9AadUEacNR5plQ5cfYOSUwwuICA6pDQQDioStKvnS5sf6CjcqrabArV9u8P2nR2J7uCtDHn4pyAKg4vJrLoMe2Z0IFsgYqqEx62kKTJUYguX21EQMxzoyr+yRYHVCkAGkUjt2LDvCVH3qOTCPQ2Xq4VPTzHBCALlteipeZYUU+kKn+U5s7irSWIUuSAb6fkjx4HEBqzXP57bNkYhalkiGNYCscSqPVqVMfXvzrlbCTuxl9dv57nUsvygHWQjIMkDG4nOseqqakOWB/OOmXFFH79/VRr/eyZfXd+e7Fw7KSkE2xBYqec4VAvb1VDUhQyB/dcrk1f27Wuj9hdyG1PnuhYOyUpBNyPY8RTOxB6ooZI2DI/larq7rD++qrpsNBTvqEfrAQVkpyDyClCX2QFWFrHFYjjL58Me7KgvBji2pWYXQx8/yrBxkIqBcY7GyLENUTZWFDIfSpSiTD7++q6oQ7NiajqvgL6JgVTnIUI4qLAFMPBTCDStlAasLWeOLkpRVFbMPd3KrOq5CfBGn0WUggxxHrCxOOuxWay9XYciQ+lGGsqasImaXF3LLajblD+c7Fk6jt3s/mU99fje6QqoyZI03oGwfMEPEfvs6rkJqlZQHW4VMdFOE/ruiQqo0ZEiwOpZlMbuuSkAfO7Fd6LQKmzJTHm4TMuh/yEqkMZbG7K4Cx9PYie1IZ1XYlKH04pqQRb5wM1dAxjzzudGZOvzgzgb8MJh5ureLpN0OQiZWhk56Am9u5X+mxVjuKYx05j5bZsqtwptFAqPzeVMe4WZpPlzPmFl6LcvK/PyTuy1Xclwx9+oGWXnK8nE5Zxe3O43o36Amzs70ZRVekP5RvlkXMnvomGTiS+zHj1duJo8XlmVF0V8j5JIfhhmIDtezcewiCVglqaK+0dU9uRZHF2T0iNRMFBrq8bkmRSp+l9yAnyKTKHYBW4uIC7+NAood/abNDPWMi5WEHYxIOXWDDPuypiwnToB82Nn59PsruVM1jyqQWYXrk9aDzKd+r6hGD5CoD7SoqETvKmI4RgR5iC5yN9eICYqEQz0bTPLfxJSKB92g2JYV4x0k1EMjsJhwk9Hit1qKHP+efrNFTxhoOAfFSg7y8/PHce0ga7xplqdMHiNwcnX5H8zZfhkx1usKRD6+kydrQ0aaEgtZIOMuUarflg5McDcmexoiat+jiRNTR5cBmdlkD8WAVHdqowmIKnxo69eiVmKCmZhmkQ2coBbZgeLbKcwkphbo0bXtuyhm5UywfpSP74DPjEGkWGAW72kln6BO/SBrfAHKymP2JT6v/3V3tg/hxCpGPpBXtTZkIb+p3KU2Jw17sGJzUmAjExaKDpimECnX2uHAB1/j0s25cUBKgi9/yH/z8p7kW2BkuiwC7uiqcxYg9hRFgMzRI6aYrZ2P0qYroDEg67gjS5GV9zeXK7k5yP7UrSFkoGwdHZ+hDNTFFt3GD1eyEjqV8nzHQl7V2pDBL7Tzj5CmKFXTF7P8N8yZ5ZOyuEqw0rUGBs8gy9CS5lw6XPuNXFwvIUZ5C6ZLLVQaMAJHQLrVaCldCYfL6Qwp1O1cJS4KAFrGBU0zTAbrGeV0hvncrm4HZLP6RRfXpowxO73G1/7uchuc3dxWBDF9yLjzolWo8rE2ZK5AWTd8qbnqYUdHGdKAq53qEvcxv0L5DDIjFcLiao1k5bSZjExCY8F3VZjLVzQRj0QQIxHTp2LdQxpzgfw5UeKjU5zDqpfMMBl81RGs2NNKgMypK2TIFl5XV3cX+Lz9/OFZtQoAb0rNCiTi/yRfrw+ZxfV7YwqSZEFmjkRXQLA7SZLg4pcx9lzec8hQ+80khkz3hHPYLm6UGFNHxxNDFx3ZGEJcd3FZ5D6lHtxRUhhk0jBJcItLxpV3shzFBaXFSgyZX1vI8H7Z+rq40p8PL8XZH9WxYYUqEMNH8uLakBkMmUlaPb77AcqINRUWF+h4DlkHLRoyE5DFGjL2ObUtdFtcOASCJwhxaUYucs91FHt8ySDYI1a7uG5CX/zZJ79YiSEz6gtZ49WXciO6uMDH9eYdx/sKRBP/oqb8/nzH+l0erQ+ZeIQsDIJggVptE6E1JzvI1bGEsGDLhs8gi4ji6eAvkAV67Bgs+QvigPtTDW6mD1jBko0KyETU1xF64vW9p7IItrJUS6/Ux0qArIYZH88oO5UbEjjbLGi/3m4hmHj0+uzrN4cHr/R/xsEXJ6f/6kJX4pWy32RzbchUAZlNTkGC3kE5oY6CsAwhvB6ZS8i4Kmn6KWS8+4LDiSFOnDdDjG00FBMKdBwkWEKGjiOVDzCL9RkyRhPdeaU9gAw1rDanArSHyw8360YSb+9e2oTR8enJ4ed86Len8p9UCci+kXJTkCH4ARJmOQmhBsP1OALRdUXMd2UaS8hQyB5xyE8g62qK+pQZdsS3mkFcgzsgaw5ssR9bQpa2BKYc54NSrJ89XUfWpTbg7KF9qiFTNYescSI3p+U951fXl/d/lOPr8vrFXcTm6cnBP9n3k3/crFahLpyUrzYFWQJXzuj3ECr0EY9wDZOTNKaWti1EsGRs6YAEQGx9DBnGWroktweufAJBgNHOWxVZXKzbpvkTZFzTewLsMK3VCp8gS4koWq60D5AhxWqzumCLBtLuHi7vb/47Xg8vbb8A2Nnbw/8QEzoj+XeqQh1hJQ82BVlKytN3OFuKwigATgGFhhvTwFA5CSnFDFmX+tkAFfAjRepjyMDmMGpTC/M6ugVyiYK8NdbFuqMhKX8J2YR6KAk+Q+Tew/W1T5D5VEQ+F3qlvYCs8cWRfEnBvF0/3F7ef96JvPnw/vLhGnRtQcfwEP+jvm7Kz6sKkJnycBOQhTQHAMomSuHOQR1AQLbCjekBUZ90xfoWpye2u0St/Bf54I53bzPAkRCkvTzVx4NWSNAIY6Eh1pgyZJ6+DpBc3NquTKKIr6mAYswqOlgpJvJ9MusPWePgS7klwcpdPQoWb5t6/fZgRU/685hVAbLWupAZKsYGDH7ZQBWZur5NRLElCtywHzO5ALePSIWLbm7eYjohuT5I8CgEMgvBwf6egcs0eRII47lVtIvAfodSDAuKkuDjwj1EQ4R5oEQ380ptcg0V7wFkjVdfyT0Xffn2VWN1fS0/K/t818ILZeUhg7pThBKHeIyCdtfAg5uEHcZj0g4HmpJhO3ERnEdwJGsPXRGFgSeiJG/KQOlAFElUftLGWMzZHvuikLcoZrQ6PJEXWBgW4Ww6DKeiWH9i5PMMnWJQ6OrmcMgrdWf7AFn+hllT7rH+ZO9sWpyGojAcjZ9D/SijjLrQKuoMbt0L/gaXQQpnFRJok0IgadrSD0i2oeDQUgpFXLp0q6C/zPvmpE1addFJp7kNvuBMbnOag8LjOTn33nNrry4c5P9SapQhkn3dCrJS6vAgwxqrkurkZWW3//3IUF0Uuzb/Q3Z4Ei9mJdSDNxUlp4436/n/IZNChwiZopTuxezm2XVlB7pe23isBFujv9Zf/YfsIPWiVC9mz6s7qwtlKZNi7eLHT3uETB07y6uJmu9B1hbWtr8+nixCtQSQlShlPEExcWeqrGeMErQ3Rf+BfUHWoa7GmtJEy6EB+VtYj6mTHXqYpVNLABlq1iXQzdNjZbe6no3xEuwn2ytkMwo0iBdW5dCERltYuzRb+y50XgrIlOpJ/cBVQxDbtar1VBK0H9grZNMVZLN83fBDcrew9tacDWnYFX/KAZlSOasfss4yQexyqkJSnANYAGRQpBUDGbcgaBI55YDskCemH2BK7HJUWc0jGhLMRRcCGVQUZBGCGLa+lQUy1KwPUVuUE/NsVpDi2Oi8kJm+2zVXo2jkdjgfdL3448BWuyNbc4LAiSETI6yyckaIJJ2RN7YA38RcYDkW7JtaKCyguev5sOpGzijUNDV03VDNQpa4xsWoo02mMLXc2NSLTdWF3XEHCWR24OLXjEZxztgpDWQHmTIiT7xUpS+rvz4WrpyQmX1euJspKkRxYYObCjcpQBNSp0+8yh4jGoCSMOkA0hKYtIbnSSnCpuA8eQR+U1/VVMMLiOZ8tOcihSzj2iMyOq2eZpK3gKkH0yCuZvbJsGLImjoR+fAwj/fA2OWB7OBSxptbLOzIubtVileyvJD5BHV54OgxNqpmU6wOkjMCChSzNeXRkKuLagMD0GYY4nOPi/w9HY8QzzKIiXWopRONBxTLSSFj1+imExONTZlsGi1NZ7G/eQxZf9nnG3T51ChJ4SPR8QGljCcvlD3oOjuTYVFVXshUnbxBG1BAiEddorm4GFrWUAAQEfXDhvhxjiYcU6LGfEHURNMptBbomB5wAYaGz5CRMRsDzym1bAfN5KwY0klAnmPrNF9ClnG9EN8RbnXNZtOFMG3qFMGf3icbkKGFd9RIIqFlkF8uyJTKoUyZPd8uT8yfL377WLzyQdYhw0l7hraRo7nkC4bm3FgqAi8BohjuTYmmOB/iPIZshgAYIY1EGHPUBLIuoo4vOJ0wTBYyP0c81uaepwlkYNRk10Mg4zFkY2HqkQXTEP7mmqUBMh/J6zQJYCPSrZJBJoLZIUyZbbc8MX8VX45sMSdkYZzl9QQQkI5yQlNgMmvxjDEgM4WRjmUXC21Khsnd8gGZbVga9xgm/j5DZnPf+oFAKN7ibAFR8VlbA7fdJWQZ1zHjE4asAyuYjjlymkl10UNaanL7bgcklw4y+YPZHl7FNuuLMqypyg3ZmAL8RCjhNqcgwEGXNnU2FCRE3Bi4z/2mprhALytABiON8z1gxOLuVDPYqYKxPhrYx2RgbIYNOGLIEtcB+WbstgnINkyneDhDNqRoVVScUKsUaxcP680Ms2L71DGcStAIPz9kI8QE9M7m0qCeFvYbRDFkQ2RpvSVknoZhO4Es7BMxZPYSMthzVx2z2yJiyEzcsgKdKIUsdc1uLYZMzZiyY4aMJ8Z6FCVBrpSQiTKjrJs5Ue3YryrCqxSTZLlX4aNXNmLTAgN0xIG4T4fejiHrM1UZyOYMGa/U9RgyawVZP3mQKgA02gxZDI5O1OhlIHOXrhkyJ4bMiGFPTNkxQ6aD46Tb94gGZYVM0v4fe0YshcyQIpDl3LSJfr9c4kiCiZCD+GJ0nekmZHyh4XNANiAKbJshc1aQtZJ4NiHynSiGzGCcG6Hpp5ClrkEhO2fcBH6NCUwBdRrJkChy+9OAnNJCJtKk13XJVKsqRahel+CsiV1A5iOGLU9xMTmxG4ZcCZn8BbIhMryk8BHgu81NyAyV80uPuhz0EnR1hJ9xClnq2oy/Pkgh0wFUsA5ZPy7+t2LUmoFWYsgUpSrVq1kxiCGSydBCJ3+3KoDUA1bIwpYgdARNLbKBlfcHZMDBIx+Q8WqnOenrkDEgI62Pi3PqJZBxdcOlYAlZ6prd+wwZm8ZkjbOQ4UQmqY9Ounb08Arr4dG13JU1aTB78EopRpiNNn5+lEP5ILOJbJBhJfNkHp8n2wBtfer/CZmPs2jnCWTnyAJJXYfMRRfucw49PWqlkFnoLuwuIcu4dqlv2voKMofIgekoAxmmx1XhdYhx1DNlg+zavftXUt2/lxuzV1LMmgnWz5SCdCLDbs1EjXzNTfvU8hsgCQqJXBf1+B55zQVR40/IyEUrX04X+UB1stYhI28IfDzqNcdERgKZ4HbR9Ija6bKqIVwjnM2IdEPPpotBs03kZSHDcdEBGOexHJDdOrr75Mmzo1vKnatM19WrycXT28rhY/b8WFRhTpViVJNkiix/m24ABM15YKJuD6y6BJyI1AFD4HGZf0augRsY+dzvt43XJIPMFWTtBj6NgSWYOw7XLEcYj6i13Bmdca0KKgnposWmLpsOtTm5PJ4l39djmHt0LgNkt55dSfQkDl/Pbsfx6/bdOKjdy++gWmgPkNoxMrZiIhkYk6B/zs4OnFjwgneI+3Q3mlzC91RP1yzQ0ES9PqJQXIShMLDA3QzZJfWdLtlaf5gu0/LmRLrNa+zb5sgwtUab6/LwM+wlZudZ180hLWyU/XVvaTqGaZMLMj7myBxMCcw1KJCihH8DLKV6dmuDvru7KIEUVWkEYopyVq8VA1nlgSwzZDs6OmkQdtKBM52Z8e8w0jRL3IgsMZo5iHnihrjZCTHQkLCpU/GZOReQdDKQCQsLl+ZkrmoOKim2BlnhQFjyNR6UujbFU3h91oBv2/gcpmxmzjR4m+G5kDmXoPBxI45ed4+Ont3fRAoA8kf5dXxawC4YIMZrLt4UAln1plRxDIcAViTquwjItpbnaXyS5oVUDGR3gNHRNS56ALdb67ef5s4Ys2fk7VNp0f51/exD/bWyd53WpZkgY/2q31QOHbIW0sExuRdzWQxkeA1bFTduI13ceGEDZTd25Ky6z63TJ9V08WD1+/4hwzEBhgS7oTP6UT85eMjaNAzHdNFOjoVAdms9UCGW3doMdUl4O6xwlllA9bp++u5b/bmyT/HZ9V/lWEy1kvhXkAmy5kXi0ZySyuGFVAhkR4Kqa+nwGnLHDROEt4c7dHn85tI5q2XPdq7Wbz7+uF/IuNuJIcM2zTWJeC4TZA51te3VBWPRBV0WAtndDYAe/qXOcY+j3S45e1mrX5peb3QpfV5/836vkPGqTfokWRgT+lI/lQkybWBqF5A1i8yLeiwEskcbL2GiaP9o0+baQ04Yd6rrr15fQrnx5PRF5Y89kzevIlGqKXsSJt/lKtyv9Ln+RirILq6DgkxEsqvZ8dW/VezvcD1k16q8ON1lQLt59tfDnWv1N2/xyr8fyF7E8+7GZ/miWLJn8z9kyt51tF7puIVS4l9RvHJHuQxd3w1oD85eHf9r8/+D+0ld7bJ1/Q3/VRq/2TubHqWBMI6PWoa20hektVpjC4Q3iZ428eDBxPgR9GBCyJNsPBhN9rBHDx78DnwBw5EjV0jkk9mHwnY6tNXdtTCw8zux20L2wG//M888MxWqbM/tdJGSkb2DVplpm1SygxJVGH1SFrV65zZDx2a/XSlqz+2c7UGyxrBVBeTLVMwQ2zbhS8nI/gnZeqLOKsfXPjRSJpXINAeuh9cbol9FdMH5GK8QOaQUcNDbcmDN+eVUlD0tuf3BUjKyf9QAxVLXLzHHAny5xyjjVev2e54DxTjNwbBbr/zbY/g6Y2T1vyXD/wr9XjN5nsTlRJgNLUVdVVIycgA0e91/b5pxCz6XV9wq9b6oNOrtbmfY77WaTc9znKrjNVu9fqfbrjcq1zoj23vLNBTdnlr0h3WGg5YHAIxfC7ETjOmqkpKRQ4DtiVsCIy/wbBxIHhs1B4MM+X0ryWqVRrsbqdWsAsP5l4vZZCFW41QB113HoKOT5DE5CMG/bIQ2o8sKOTKG0Hy7lQxqN4nTTlotjK3ZZLqYL5cC1zdu3/CBKKOT5Bk5BBo2dFimaWlFEhnr4v5xUatikG0lA2/Qadcrf0ms9Ti1H5nlAKtWlFm/pvPl6gjVSpjCkFyDF6MT5IFKykcxqBX67iskcJ+Gpu5Ho8QcvbhlalfHt7oWOuc/DS1dEzvbhtB6l8z5t1SdaHo36PeHSD9iEBFN/rwqcHy5RLUWR67WjY42RfTRCVL+aNGwXPteBrZv0SLDVWr5zBsN7HGMcS2DiEqlCq+ZwtpqPp3MLs6hiK9fLiKx1uPB1VHUMq7FJbTJdXg8OjkelhwLeNZbEbavG0qGmHoYpG/E3DOZH3VB86wPvTNm4/1Gmt+r5XyxmEb8mm5YRMyXp6jVLZbJkOejE+NhyZGgb1VxQ1OnVIugVLdCOyVaqKupBOMvW9Fb107hW7exaAupWQXg05iR7NQVutkyWTGPHoxOiecqKRPVj1PH1JTdZWaTWphW3AjQsNwkrXyLZtQXle09rkqEY8AG2firCI9sPhw37XpRnj1/8bBkvkU8LJ0Xzx+VEmP8WlioZVcNtTi1TPfKKUtLDHNNqjJ38hjmZhFbMBoYZFIyroIvIm/enT0hx49hoyyZIltsPinUDNLTr5Cq7HqamZuStmgFkB4MUvMRKRnuJpOUhYKpZCp5B+n4aSGfJgNHTcneRc1joY9izcsaUP2Ukkycs7IPxSV0iKQsTO78AG5KpnMlyLzCIcXzQPK3pYVEJDDIWC6kZOdSsvJQC1rotdR2TNW043KhSfEVYhrcjs78HTMiFT/qUH2b/jd+5yX7DdAmklIo7qDXI6PIBiPcjBKpgplG/fhHX2MmZdaRNBC3YMCPlYQ7O2rPLAHqRFISbsFesPDqmhY7ZYcGUzi0U5qFxR8UEGFoQ/WdlCzNAqBBJCXAn6XIg+HEKBZYCtclEmxKIHzs8VChxotN+DBOM7vzkk2kZOWBUymtQECK7b65DVIKda/STEORCrr0hanid8E5k5Jx/ASoEEkZFH/9NbymhpupGMlmq5mhoK4FKguzIO1hkHGSifXoh/3zGbCrSsJTvmRYeo8nXkGsWKFmeKd+BJJhkEnJduseQITkzdnZfXLkFH39zXsIr5iqUUo1NaXZthMkzMtEcYaLNScKMikZxxSgSoQES1SCfHVujp1fefd3jh1QaBgkPVXKTgnEz8tEcY4n6ID3ecwzueuS/QDwiJCgZG/IkePnqaFY8ShQZX7D9C7y+pnx3UpeCd8lQhAHGc9EoMejHwQHoEmE5Ml4/JEcO1ZOO5ThojSusTsotIOXrs0PJLdFyEDL8lWcxeghNMc8UrIVALSImNROoCCDlQ89M8YQjZ+h+VTd7tjko8u4lxdmVJi6R60Kn6RkOyzAgwGRlIYb5VV2jLHVCmXtVJjaGW2urVPYGkqSfiy+MA0fGGRSsh2+Qwv6RFIadLezV7dxVJh6vkSYNRQ0ArSMHRTGdRF9t7aoExGoYJBl8OuOS+ZBTzbhl0qQRBkTWr5KmT4pK/sUAeUpjg+ZD9I3iaekslKY/WR9aI2zmMKv8R3mN0APukRSHjQdNKqLMaav6+6vmOmWq+Tt+NQSmSxCqM2d6E3FCTKAZbZkYj77cl8soNmSTfjlknogrXZ1GIGVJJyfe4KAaqfuMq8spak7xAiyQRRkUrJdvsPQkf3B5WIwMyv9arSH5cSn3KSqcEqHkoXJmplFYkJhSosNgOVBJZtPZrPJavNymr60yh3LTeZ5V2aL9GfMVuMb4UBd9geXB38CQawHv0Gs8KxuF29L3pCoaop29kAP3o8PKdkM1qAZq/OvKd+XcDHO/dv+sHcmLUwDURwXrbGtS+tSlwqtijvevHkQPHvUk6EMDDmECNEGBHdcQK8iRBQRpPSY41wbSL6IX8X5z8u0abS1pk0Tl/+hmcxMagV/vsmb9954i1Z5mZEg598iZnvO/Y8PLlr6zarWTy/0+pqOGsBb4WBpMn160Une/UZ1qugcZgtrUk2Khwy0MG/kc8Yj6c7kIvMDmLXI/LFg4a+25+495uf8YedPVTV0cce+29f/+KiqWVW4dr3W1S6L9OpveaaYzjrLFqyq9xRl9V516sGdZrcWv/kHg8LlsUAxwya0OlwFMii0CobsObtQ2dDFHSjG8pcYWQN4dbWfPuXHgFpL95Ixz9DzOvPWsdOpjGcR1XOiUiHjtBnn4WLBkEWhXKqJOIEsUixFQiS/MtYtXFK3pFDEgIzaE2GtAZm1h52vblTV1cFfECCc2gjL+OkB2fLqHTryAxilICNJuyhVmaBFKjpQJmQOcyMgMbKSEJOAhT5jIAMXvGBZaNCenWr5Fv02GpgxZAW4I8hiT7ZtkR8ywY4wVtmoqp2DwY0df4v6mrEMZHrduFxZyDRlwLMaOgNDtkiicMgIG8cXKR+FzTwGCQ0Zrp7sGwMt7vsKqzGz8eH4gRrQX8UdZmMkspkTOIyHuSHz2SnGqhtVde14NV7pNyEKRNw8ZFUpZH6KjQflQhY7QMkeW1PIQI0ASWq5KGcojHy4RgK0xsxNILPxIjeiX6nmBZGcR/jxeBC5LMgN2R62h7H/UVXFC4BA3TzLxdbS5WJrRxV0ju2xlkHmDYpXHDDIjWaWjPwh5PhQ9spSQU4CvZHsFlPIfIyHUzeJbFmwZEQWUMsLmQBj/0ubFi9yfHQ26vjoKsdHVQ6TPgbLUCpkUDzGAtHXkCkoghlkPnOFlCN/61ivLQkyn24TjdCFThsVcHz5iJwe5YTMB2T/C8IVr3obnvZFLnwjjwtfEVurt6vhwpfVcxYbMtoLLlxhjE+JkDMHma8hQ28igW4pN0wgs9SQF2suPM1axBI5Vk7IbDz9P+CjcNWUwdGb0Y2fbUY3f28zen9vuhldhchFWXRgMigZspi5FhHCIg3ZKAuZO4YEWT1HohMpyKRCX9662pK5aUuGRyZxzuViCMIqW6vqL1JrPqyq+bOwqqVJn9kHjPY0ArJZBS/+WXbkF//S7EHRChmbJJBZCyDzE4qk/RJyrjVmTBBkE0Fu/FDHjsBT6mHEpnVwlBeyEVM6suO/lqn4AGFjnQDhbvkBwtKQieVWZguQWbRPFjtY62UhEwobQRT58tNGy9KQWcwh52OoeR2rT1svHSOPfCA5V4vVDfj4azSX6mJkUl1mMxa+ze38RapL6aWqLsOQLYfMGRSusYTCDzjAyUIGYAIfPkVXhOTCl60YK0uyZC7zMOBYOoCK+b4DyPCkH4rcLnwBwipcRudvkaHNjn6dIkZg1HqbSNpslhxahaIDogKQkS+DdpQD8OWhSZBZkhh5DZ0kTl+3xkkUvuB6AKJRGyMYh+yYvjTXb6ryXvSO4zv/htDFXiZOXlcQyJYfyFJGfvps+QHa1K5XqfzAhV866CPGBltQiHyyMEn9wkcEwIOQhpBpFo1pRtISaAQCs0ZqQCv2g1EUBRP9rWMrXz5ZxKA196LrJw8Vp5vfvt05VKROLttiKrqQTm+FQjqdbCEdOrq9ValCOjBk1YCsehoz0hrFB4xL5h+uvYd2FK3uaiXhurg9sEpJOGIxY8pKPDTgAnuxwn/o1uBflMfYmttkh8y/QJcWbwMXWdxUAgQ1sj19o6ar4rfV/arFTUvbkabqOctl/aOQhUzrn2ZMGrMFrzMFl+lu9JSd+lmZ7s6VnbpppAzbsjLdJYYwXlzF5wY33j8on5Fy50Ub5l+iozuKVPbAiSVHSNRa7UUHTmCsmgdOoOhAJSELseVMiZiWsKxJiFY8oR40xSTWU9GbaVliIqz1t+7Yettkf/z72FRLV1rFH53UTKFkdNuasK6RAkqfHl29o5POr7R5xLcOmcUdpFvyiYq6GAeIG44CcttjeJq0Sb3OmFroVLTZlKq5liaMrbdNVjf/Gi1yfpRzCOD+htE0GnPgG53KHgK4giGDHMzaqmLGPGazZGtaISOvzHZAWZKWSUB5jAcuYxN02qNAjccIZGRI1VxHLtO6vCOXTpp/jS7tWKjij7MlC7UsLqrRIcBgEyt3nO1p5g+qChkXgCUAZMwPJ0KAHyvA0jVUVsxHc5Jw6OJXCpDm48MJB7GNh/NLsKnO/NNuD2jvjkUq/mD2+v5fHMze6KYOZl80qVYWZAcR9LeCECq4VQEyX8f6Kq50fHAEozVWheMsj8VJcKKARXZAnjWJ4Q0d64fzK2BT7f4P2Y6itNzGEDbAaCFmRkdbOkJyKcolCEUHKgvZhJzoIZaLtHrzddGpgGxUFKI3EFKMCZ26SU/RRaz1C7T2/NsO/IIhW54r1qMFoF4Q9pq1+WebCWLGcueGTvvcvs7AkK0itwzIRHLRSCEjWgp3AfNn/CeKE8eHF5NdI6O3tv8eOvYfMkBWmDqL3BXpBDFtzdoH9qdKe7Q1YpnJUK3RbDYNDdaB/KcAFm/IIK8syMIUZDYbZSyZFaM3mEDk4kfsvUeWTH9HTkWcTXV+o5C9fPj8/QMzq2dv7po5NXyIb33zdNbz5YmZQ/d3lQRZa87I1Jr9Tq/XbdX1WDv97gUlnntD3zayZo8irtp6uMwzo88x21oVMjHYrlCZirzosUaKLhYMmq+reITaqFmoRJCkbsZkwsig5dWI7Zk5FzcJ2Qcu5Q4zvff4czOvnvB7pvmCp77ysZPja3a5z0qCrE6e9+xuc7/+g+d9f7+dmLPGgV4yK2XYUn4PQ02cRVn1y3kl23eMTQYVhsyJ4NqwiS7yY4T0CfYmiZkbYx6cjlGkWiHI8pin+uz8hsxhMx3cGGSgCQJSGVDemXn1VT475K9TPa/4A/O3dY8/LgkyfaSLDgLWau8nC9ScO64dcGn1WvXMa1ctlV3d7nS7bYogznGwyzYNGRSUARm3fVQyTSCjOqUjn+HGsikt07ZAgyeEB8+jLVthgJZgzBt7IDG/ITuSci5uELJHnDuupOzzfPdzUJdTryVkb53hupA9BfnlQFbrgTKdgNnuGw0DLIGyH1/Y9p8AN5m9s0ypqgZGFYA1o4eJABK32xVVz6kyZBMmFVi09QVRpqYbTZvqfCWhmnaoUze5UIxA/jqG7FjKubg5yO5z/uq++ZHzRxlQhuZ6kH0y14fsRTmQAZw2pVkeoAtUS5I0W7N0SyCDVWJKvQNGLe2JPKCh1RWvtHHE/fZ19jdKUAXgcZsCZHHoU7ZliLxNnamJHt2MaCo1k9TNkT5FEDmduTUCY1rHNgcZ8IKD4iF37pqbEiAzzT8aMlAmdXwuOQyUNZVRUnzUG63OjK3GbNnYOWDU9U6Y8ZMk0Hq7LMZQPafikA1KU+SgAL7WxY1A9mVIQLzA5SlY2/URzXf3Vcezl6mpzz7eRd/QvP9RPfX5wYO3mDZ89nkXzOFL8+5HBZac8FRBdndqye69HSaQDT98wmxoKJ94iz8B8/B96k9+9pS+4+3HB7jlL+Tl5XDXx3vq4S/bhIxK3wCG+nwuJ7kFG81+L2W99hOYgE739VtGS++SZSPuW2XtQ1/+narA/j8G2SjNGDu3Ccju0wLxBX9vQjb/aH7mX0zzrvNa+T04DYCDx/LGe2Ca3qP7Lref4tkPD7l31/wiBx5Lbt7Yd59z/gwo2Jx/VMtFTsBgjnNPQfbS4fx5Qtlr9+4Lzt/CtykJGvInyl+CHvoO9x64B/nuww/cGZqf5c2jXVuDDGpSBma2vA488Sl1m2lc6s3+3HD7QKtpNBpw5Vcg2ANFB6oMWVReClvWkLHDm4DsHf/O3vm8Nm5EcTxddTfdJZvs0pSye9gS6C/67/Q4hIFHDkIDkmUQSJZtLBnkqwmscTAGU3LcY69d2P5lne88KZZdO0WJsVXH34Mje2akHPzhO/Pm+Y1bwAV1NVMd6nDsnr/gBSYdgmJhUTMkgvMlFDpEw8BGwwjBk4yIHIUrIjvSkGX5fS0XQwCZcvk2+eMy9LQ0WTf4X0JDIwEn0SKwK8YE6BR1U81vwzyqs1XIeBX2aim0Xybo/dnLr1fMNF8hhLisFzVIW/ylUvIszgvbshz3cmfCaUklnWwCsjalcCnNClsLzURMcb4S0j4VNyksFlStUU9/qsihtAf2hgQNtcXEXUqBhWOnRFOEUdwumjQ8o8LIUt2kIRvr3i1yLYZMj2jiVn0ao1OEj9LY1agHZE9HeoDv6qFeg6BOTBQ1MXibkGFmuAxHwde70xevv75nsvnidIm0V7tPwNdG9rnekH3ZmZFhq+1CznV+tAnIrCZ8ISj8KqOwBJlNib5wLGE4dJXwyAGQTaVSugZk/SRTLeqIwCYP3uNZTf3uhsgXYRmyzIwBZBHFQtnULiBrKJfGc8gCDJ1oZBPqA1vP/CfAttu+9vFU36Fki5BBK6Z570/PFit031ur++z0h3fPPpgC3btPW4SR1RuyHeqT/FmWdLERyITKI/i+gGKK5pB5ZirpkseQZfqVSCkCOCOKABmaHGpggjgWLZjeTHNwDUtqlyHrYo4HY+Lb9e8+nsEvO3PIEiClHArM3DGxVQEZOgREDfSPtwvZctUqjmQU8cX7xbHFlXlafNut61spPx8gW38i2QJkv20GsnajDNl1GbLE5Fq08plkxxOwoEAReWhvasgcuCBezaAW0OlQptHqAL4SZCncxyMz2kKn6xyyMZ4ZzyEbU9909zSjHJlkyPKHugKshtuDbHXonQ3pA/+9X6cgslyWe2krYOtC9Zwq+uMJQXblyl9lWW83A1naL08X++Xp4oRaSZK0aCJYQccmaij4kfDJFkMNGq5c3SvT2LQ4TjgTIZAR6Rwy9i+M1ON072ua5ZBNwOf1HWQgSLf3qK0QhPRKkAXo0BN47W4ZMt5ELgf1X5eNab2WE4DPuJg+F+PZyclJXHSgim51AvxT0a08P5dlnWwEMmW+sVYR+AipP4dsQCxuUplDxF6kDJbYwTIQsDqiBe8Z0ExfTEFQCTINp3kNPGLlToZ7dwrIJhRpW2N5fDWdQya4g8CMcsuQcTrUqUmHMhH9M8aNr1Zo7V7Yew73v3iFHYCdnAGI6jmVdKsHPBF9OUayx0biHoBsOf0WwQfh4VsfAzL+Jo/IyFV5vi85sV1M+BQgM4AmZOR4zBZDNlyCzKFgATKnCHwkJchuNEMZQcDImiG6H5QgQwdQvXXIkNgLfXj37Kvyieo/YCr4nx74frmYfqEPO2DsrTayA2Rr1JXnckEXm4EspjDfsNK0TCyHBpi+8cxsQJHneb4loIBoFgiGLMBbVwwBKFZnnpYSYIshC80Ms7cwXWwU00WXe+eQtQvIRhgKJ5vdPTNJiQYFZE4xUQTbW4cM5UtZZfd6jTf/CefLxU8+3G1Qg89t60JP/g6QrYt6LOu3jUCmXKYgo1R4ZI+wNouxYJqYNVmENoaM10POPPCR5pBpbLjXHDJGyy5B1qM2elIQkMO9lyHr4AJrsozbrRshFNjPIbOZZ+RZbj3wUf4tyxv+oVjJyioYWZ5M/O7Zsx9e7SB4z9VzDpCt1tW5PJaLersRyGJeLGFna2imh45lvuv6pQeQYGF2gB4DhP0aHPgY4G0rh8wiUsAouYOM7dGnEmQIPOIh8MIG6JouQpaBrRlFYmru6bkiIZ8fWoKsYR7Vp+sdQAbjQlXFr5fj86f3hRZ3f5Rm5aIDy/rrqUD2EYwt6mgTkCmb+sVk0PVFj0DHgGxLpcjtcMjHV99jyCKYCHmKqGfprhkgY5e6Qct4DtmEnIaIy5BdY0yLKOAQ5IRGi5DF1MSGdoR5YYBdt2BMMW52zU7JkIkmDdBtuhPIqlPEh+HWSKieUx2yT5dPQZ/lv3S+EchGBIygEC7GKYgJUatL8I+IWo0BOYqTHJ1229XgKNLtEdE0hwyAeEOb2neQAdl0RmXIhmYMIBuR6yUuDRcgA71RShQB2bARE5zMbgc9GsO+ZmEOWUZ2p0WOqg1kvPN1/2G4NRKM7ADZajXlv3SxEchaZr8KxuATy/aBCFGfekADKrwOrT0aK85LtJVujtDScNCUgskhLC1bSBAeLCQIKxiRVtMqQxYLn58ZAVIo5hFwREVaPkPmETQTtYGMSwnfE74/O6qRUHTgANm6pee/9dtGILPJg3MlvCojcm3qKQTr3YYTGX/DJfeFNU0mBrKECPB4HKTgtVwCn/EBJnL4HZPN64lOblmwKkpadn5F08I/G5g7DgyWaQP4WC0Qq/Cxgc002cruCSgGoEGNIDM7Xy/WbK7t/Nj1Jf163HxAzO1JQPZZrtDzTUBmmS2vmN3Gy6I4mJImTsV9X4wSdBhEWUOwVBwOhTVTGjIxCcf4KPO4aRr22+YOGDLDgCQcCV+/bcwswRpEQ5GMcDUMQ/SG2oBI9bElkOlxsYe3nYhL0yVheGOcsq/7j6Y5rPiH6gQZJoxvXq9vqJOOsUlWHbLm5d7ryl3B2PHRhiBTghM1Cl1TW9wvQFYb7R6yoxert5W/+WAsrlbSkH08QLY6srhCFxuBTCAAETgLXA3FvdoYZJNIW1tl1RCyozOmbJmxui3ItEhK+fkA2X9vQ7N+3AxkEaXTiFxLVNBGIOP4xkRUVC0hOzrl02vLevnGZF/VTFKey0/VVyvu5Z7riy1X6flmILshKBNVZFFTPFYckQTd1VRPyEAZFxbO9TV/cFQznWCdIf88QLbqoKQKu2QVIbNMML4hKsnuiUerQ864Q5XLE9cUsqOzvEY3b0HrDPsazhUZsnPpVobMvtxv3cqV+nlDkIkgtLueqKYoFo9WC8H5CC9VVFvIjl7miY3P3n33hjPsa5VNxXpuQmZVi0/9ve+QLS3Ilo/Y/P8eneTyLnRfPEr1gYwPpFg4S6J++pYhs68qQuZc7rP+duRqPd89ZEkk2t0ISVnjvoqihhA33d6A7bGftow9WnHaHeLCj9LQN02z1IyxHWu/IANmRU3TZ2e1yqUqZS5C5/L2ANlcV015vGZJtnvI+pS4/IPOrjMg6nO8MAZaPU7P4iQRSjRaLqIcQdHU0KNDsVfTxQK0k5OTOnpYkVXFcr5ULDV6ucdC7v1K/VoDyCLq5YVGU3KJeoFNkA+Dgvom09DWLfjEjRyKi6YQJJrmRFRVvSGrt36UuZV9PEA2z8xcB9nbWkBGmd+iFJBRv5cNyG57NsV43/UyIiUyalmeYwoytlFDDk1IsaeGgDC4sg6QPabgIqtactWVlFeX+6o/SX4vV+ukFpC5FswoQGnhYu43oh6Xl1MueaZclQhpZA6asJoz4aO7aHIa15Dwt6oOkD2mGBzrWH48QGb0Nxe+X51TVQvI+iZKmGiEOgLoJAIUWVNKBXBrIDOSS8T1KNNtQV7CIKNrvkFXVNYBskcVqmJVTK7C8Q/7qS+u/P5YrtZP9YAMKfVd7UYp0qMs+Jcp/ca1R1WCavZKKVTkyIh6U0NehIwq7oByItV1gOzhupB3VvbpAJk5WNq9kGv0vB6QjQUmgwOuDqyIlHE2HyWEjXxi9c3PyyhE9ZCZKKon+g9bkR0ge7jymVHV5CraV8g+SQfL1DUB/HpAdiO4qH0KSwqILAOZh4pyRm1iaQ8buia8Hxv+plxJ7oGbZAfIHqzSSchVkqscHSfZR32Uzu/nco1+qQlko9zPUlOCm2OGDvlYhAEilJjztAK8UxmRLTpmojhmJ8P46jpA9nCdSxYnVz11yG6lvF3LmHxbE8hgWCkNGTJh56ipm7yWth/wDFJZYuiZYGLjxnhYzBSOAvEAHSB7uMpr/ArJVbYOk+yf/pLy47Fcp+OjmkDWM5NEnyHjA1qGXGbK4lPZbW4YiDQ04Ue/bZpa7GGWeIgOkG0GsmN5+6Qh04x9kut1URfI/mHvblqcBuI4jg/qMi7Ww2Kwigjtsq4PexQ9eBB9A4LoQSjDD0JpS4SqAfEBFR9AL56E+IAIWnLsMdcU2npWvLgHPe7JV+DRjNmu2jbdpI3tTPr/HJa1qze/TDL57yS42Xph1kphZL2TFW/L1eylfFPfjfDR2bPgS926Lk+furnTMl+HL3+XZxffLyVHkU0AoaTDVfUMRjaqMWlZlcgsSx6G2ovsmmk+fCB/Q0zmd6cm9w7fmNb9+5YpjxZ+8O69/ORJ70fhsd9joMjGlkMo6RNpO3uReYCNUXKqRPZi863tD80b4QeBB71dRXnxuPOx/OahDCocc5QLnLk56PGWtvCnbAF9OnEj80S2eCbqGKXIVIns0ftw6v5JeIrAzQfy6ET53Wtr8/1jNx4HH8kC74fPyYK0avLfSNetp6XkKLLx7UP/UjankXkmahjpiDqRle79XsKuyq/SvXuyI9mbfEeutLP30fVHm3/p5iP5I+nG1dIYKLKJI0s6XNXMWGQ+YGG0nEKRzR5FFt8S/sXRnMfIfIBjtAKjyCiyNCKTvHiR+SI73O0bw4oqkd2myDSzgAH23EUWpzHkVIlMvrZs9iiy5LOLSYernAxF5sRprMBUiex+7Wpp9iiyBFYwoFaep8jKTcSxrExkO6+XFECRJX8anXS4yoErMqFtg2N7nCkTmRoosiRWMcBqz01krRo4YjjB0nColBnHGYlvHwY15iUyj4MjjgWWhr2lzNjPSAIGgMTDVY1MROYCJuIosnTsKWWFYm/ZU90JDHK2j6whdFe+i7iWGKPrxb8dZiTp1kfi4SpX/8g6ecRlsLTsL2XCTrVeyayBIgY1t43MEXq7YoAjphWWll2HSxmwhy4Wk1oCEg5XZSCySwBHXAssPYf0vy/br+a7U9TGkXC4SvvIzheTNLbK0rTr0P7DGtt/iBIbx1EM4YtRfK0ju5JHEkuMkAnlgGTDVXpHdvIYwBFfgREysQKGcMUIPppCU1cKgIEElhkhE1sGEg1XaRzZyUscRqLGDKYXdV84Oec4Eg5XeZpGdn4VKHAkscJ0cuakuMyIio5hCLMjImgb2SUOnkciPMd0cl4IcYYRBS0AyYarPNhCO50iYADI8EJGkSksj2FamYpMLmMcyPRCRpeLCjsCJBiu0jGyVh7gSOwE0w1tfCiLI9FwVQt1oZP2XcBEcnyBEZKSVQxjZyQyn2M8RxkhadmHofzIyGpCGy0bEi1kZMbySDJc1YElNNF2sGke7siIylYwlKt5ZGXXwpasby0SxeUwlNXWOTKZ2ASOMELSVATiD1e1AaE+r45J5BkhqVrCUGZH18g8G5PZxwhJl4H4w1VloCyUJhMzMXcXi7mzZw8woqwTGK6lYWR+HZNaZTo6K4Sg7Rp15SDFHK4C2kJZKSQGQ8//qicFDQgrrYjhPK0iK7sGQvN4Q3ZQiLOMqGsJw9likIWOUFHH5VuDwHN3QyadoXVMbRzD+bpE1nqAvsRoZpGo5SiGq5V1iKzs2yklhqKeN2REAwuI4Ip+NbSEUsLrRI40GDQXTP6bAvpEDlfVlYqs7D+WbRhIBdd004NoYRkRGipH1nIsAMU8RqCDFokqOPpEDVfZ8IQS2n4TQH61L7F53FgkejiGCI6SkYWF8dWjIxLL+PFURDsLiNJSLrKy55gACqsFDKLNe6KsPCI0xT+aM46s7TkWAKPAkapjTG+7dlymp9GqO4IonjqRhVeJ0Rv289sYuyzESToUTnUcEey+yHwxGy23iYCFCHPdGA0Ia2EVUfzZR9b2nBq2M9f3Y7SS6WAfhusbrnKmH1nLtbG9+W6MsYM7ciymXQEKciYMRHFnF1nLbVqIY94bi1fX4qnTFy6sr1er1fW1c6foJdBTt4IoVvvvyFwxHeUkgVFj29kd9FX91zrdxE1bDpEa046s7TWaJpKgc0xHWZSBDVqji8ZpKyJSZ3qRtb0xFjCa8xhZ2Nqfxev71+7nLxsbG91v34M/0lI2bUuI5Iiexv+LrOO5jm1hmvgSy7jdpy5s9fXpy8arno1uN0jvNCNTZiBS609kDZGudsfzXadZNzEu+v2xKIvn1quhb59f/eN5txssZRcYmbITiNQUm1w00imrJdNymraFmSlk/Pege4uYDG1t49/IvnS73yiyGcghmrcVmSPGUP5dle/Krpp2DX8z8nkDM3As240troWFfflZ6YaV9UX2NfiQkWkrIJK9FRlg1W272XSchiv5krfJl9zfGs7voOx6zTIxgAdp5QuFNPqiLY+hp1Wdqwa+/fhQCYSVUWQqWEY0vxfZuLgEVRgZ2/LY0X/u4uLFavXTrYo0rLLPFNmsREfQG67yo/IxOFcro5GKWdvyCAeEtxa1xcOVys+PlUBEZV26J5uVo4jmbkaWBdmb8vhzFv7eYLvjYiUUWdlGl3YXZ2UB0ax2ViLjGTzNI3f57BkW2LVSDXypRFTWF1nG7ks1UUA0NyOR5TN88tuptWrgq7xQHLmWfenSw+iZWcYIcinzoLsM79zvPleVIf2oSCPXss9BZMHjs1OMzABHNCcDkWXmUjGYqj93YS1w4dzpU3vDZWy9Gnj+oRLl01ZlQWMyuUVGfrF3/qBtXHEcPzdWZBvZkbCMqQdbNpZsLIqRoY1dEygmU5d06ZThHhl0/TMUSqDQTqFQSGmgU01bChXuWKddPHRoFwkNTmNjQ3x1ZKoQjEyMhwwxKEJD3+/evfurk3VJ6nvv9D5L4ou1OHz8+/2+7/ekAJiV2/AX95KlwpEq9jm36rPTb5MyVqnnvSlQy2Akg7+LLfxAiMht+JV3ycJxr6UfdGqJuppvj27ZjkjwA2VU9gSWq/6S+SUcicegrphaazSb5XKz0agZW8AQeHRi2TbJPd6RBIGQltvwKc+SzYQi8XhL1QxrlO9qlDWaCnCYBzqxrChyj2CJym34k1vJRkOxRzWozWK1JvhlcUwFc2CHqkPLVDKSDUqCYMjIbfiAV8nmQlHG3s6CIVQx6lhDwWytWxOO+tHx8X6p4Jl+qMWK2FwMkGG5Hb/IPBKOMia9qZWxu60csyQe6yd7qj627R0XvDJGMZIFSlJuw0cyh4Rie2j+yvsKpul0rAY27ZsKHapn5Y2lPQUjRrIgmZbDxST/oWJsYSmHboMzZVMx07EDM1Xc1xXLHhzofzuouyQjlqnilCw4YnKY4H/FI3Z5CWHAsRo45oo89sxx7FCz5/dvr29gLnz/h0LKnI1CqVTfU8QpWbBMyuEhw3vgsbCYQ8BzOo65HNs2564dBb6+sGHwrqaZ3bISpi66xYBJyN5wcikzJMfPsSs5RPi6pWOO07FV6BNvbVi5/hXUsrpTshP8ULxLd6AkwyEZ753i/BKi3PZ07CRv8BlMYO9u2Kl+B08LlvARJNsT3WLQzIRCMs43PBaWkMFT4piB6dixZdbK4joGjtn4uPoFJPyiW2SNMEQfGb737ReuIpN7nnXsKG9vFm9tuCWr4rlMLZixB2ZHvA9+8KRkzknxPYzNg2ImN0h2T2ntWEFVlN83XFyvVj+xdpUlQFyKZoApmWs4X/Ags5i9kDU9HaMc4wfvtpQMSlnFWshOxN4iC3A0erlIcp53XM4hO6eOZpFm98fOxd8/NlpL9j3+5nVLIRNXyZhgRuaV6DTneccycnJHURqOgUylHaAJfvTdhpsLVQz+7s/MQnYkPjSJCSIyn/CuWGwRubkBkrn2FVcdu1K0W3QFH5gsVbIk8nuG4DL6iPJ+oWUhh1rwA0jmdOybPGA7JFM3WlAFKuAkLWT7+NWvS4LgScvcwb1i0hXkgp6S6eGicbelmHeA1cl6SvabvhhSAvDwVstdlgTBE+XsNDo6w/fBGMntW6NiLeyO7RU6lOyCtZKt00L2FKFF3n8jhYFZriTjv4q5W0XXwocZ3mchK+yoXawCMJMdWyayGsIsz0uCgIlwJFmU8w0q2ip6cgqW0WCRLvx2EnxAISOn0XXdsSOtkAG5BUkQMKNyS5IyayQ5TxSB2BJqyw9gmRF6HOVbgOX73qOQfYW9hNQDqEAh07kiCYJlmg/JUlMS/0SWEerMsob1csuZh9FVQkULSkrAiVHIgEVJECxRDiSb5HuBSmcexrGOLGtC6JE3ab9WVQXIwsc+ST3qeDp7jkyu8t8E8E2m9V6gzAz8B4pm5NGhZSoOPUp5k7YLwlWdA0U50JtFuDr9BFlYFpYFyjDbkoVhFPPhGLHM9V4CjqsuPzoyD+B37UUlAK513kE2lsPxi4pbkgxLNhmGUcyHY8DXCtn08KCAK5b6iaEY5Wft6HqdxvfKPWQiovzAmWNWslm+r4vZHEMYH5ZVCnkv4L6zeuv69QsfV00+147VSLO4qqceopaxQ0xuQfBLjaPpkPSJNPPwZ9met2XHCubLqoVbFRCvRJrFumqmHmIuY4VJBiXLhCJP9OGYH8tOFEz2509orPiH9nUdHHM1iyJjZIMEa5KFJuzw4Zgvy45UBfiCHo+RT2k3m8VT1JKrkiAwki0SB9kX4lCsDbFl5JsP21tWKiqYCjj2k1bGTuiqx2ctmkVxKs0AM+xIlgrTJKazhHzzpKYQyzypb6t4G7iAqSiVkwKIp1Fp2SyKDavAcUUf0WAkS86FJ040WUR+uXdHAYhl3hRsf5boMTRI5onYFg6MFAOSRWfD1ib6D+/pMj5wcOCy7EQt5r0gJ2THCnCKPMmJ47KgmApYsmRmOhG+NvHFQo+nNW3I2l5ddVoGkUbdyzE6kAE3ECDCD8aIOiWLyudFaiYdxibRGXr42vdQt1YBsGyrYHUsC1+5oKFHHV7QwC9HGBF+sMZMEDv40UnsV0gLGGXxRVrFyuEqYLfsBOQreToGbIFjZTKUibGMOSJOyTLTmSgx4X+paaOZualuWPPxPZDVcLXaWaUcapZRx7w282nocUguo6mwVNWGXMh/r7FLyiHZHOznp2fh8StVDfQKffl6iRMy7Ak4ZreM1rH2jp0Qx8o1SD7asSQJAmHKJRkhlkjPTL4Kw6KpzEw60Q3V66XSe1yGiqtWslrH2IFjsAWi6m9zdRsh0TAySNQtmUkkkZ6bTSVfxK3Rydm59FTX1C4b88g38Mku37gsq4BjdW/HaLBYvksk+wAh0TAyyKxbMjeR4UR6eiYzmUpG23mVmszMzk2npxKR7v7f9NksPjl9Dqa0sOxsx+pZ8pkwRLIa0hCLH4wRsUs2ffa8EYsMDyeAKY1EYng4Eol1t1Y2Lvva8jitKRT10G3ZGY4dEMc6kQwQR9LBMOqQTPCSxHI+FPvaECzrsuwQHhXPdKxx1yaZyD4YJG2NAIVkL88V1DG3FY2V3Udra2u7nVtGHasQxwzJYOVDZB8sErVKxvkn7DHAfOdlrKaVsN2/1wAflhXcjhHJ7qCzWJZCBidzSkZIBpx7fP9EBakerhk8VD0sa+8YUKbnZF1WyvrjPT3xfol9hoVkQRSye6DUY1OxXQVoadm22zFzHqOSkY2PLitlIz2Y8V6JfZJCsgAK2Q3siFnG/gaZOrJsXT8fyzoca2q7i11Wyt7oASYk9pm2pIuheb/DgIh13CxiJ3bXDLRs8b1r9987y7ISYV+ljgFlZ7jYLXdesGTAgMQ8MbOSCcnOKVqEYHHFMo5hZW7ef4BxW1ZUwTK7Y8d2x4Aa3arqprMyXbL4oMQ8k6KSvSpyPtbuLZnHCnYMFGth2U5xC4zaoeMYsKoQxxzd4hNE6ZaLZSAZMML+WJYwJQvnWwGcGwvIx9r9v7Zu8dqD1pYVi4Zl6yXCtoJpmo756BYBPkLvjiXjZSxLsitZX//A0NjIOES1I0PMdwVX/UtGK9l7D1patlM0LCsR6nvw7+W7zkJmBvjds8EIkvEyls2xKVnfxYnxHhsTbLcFkN/7bxepZDbLssSyw6IGeKUUSeSRdToG1Iw3H+iqFB9LRrkoMU6MQcn6Lo1Y9eKi+faxUfXcW7Jnz8xatk0kIwH/NoxjKvkYd4OyrZB1WfQBklGYP5NOUclYeW+bi2M2t+Ljr71GitqQxDA+7rh8YEvwVZjJTMmerZBaZitkYFm9SCMPSllDpRNZl0UfpmQcbH5MMSVZ78C4WbqGBvr79No2AQ/6JGbxc1nzjlWyv7E596ligKpoloFjADikbTpqz5sux2okWuyUnBQWNMneGOLEsig7kvUOxHsI40P99u5w4swJt7f/0sRIPB4fuRRAX0m7Rd+VbBfrQxUDrikaapFQ0RzClgG1ssuxht4sdl+/SCSTJviYy2ZkIMqAZBfHqWHuLLG/fb/YNzAGfhLGz73k0WzR/0ym4pHsGYV0iyuPDcu2yKfUgmV0HHOm9/SSS7fli7pkhmWXJJaJ6JJFpGDpG9O7xIu4EvmQDAyjQUlQRycRRPCdLsK+h2kYyT0ebq5Qyw60rURqWcNZx5qgHtla7Lp8kUrWO8ZF/JxiQjK9Uxzz6K6HvNrFXltQEtdCkrh0zlxGBN/nZFinfxyOrWxuPtI7xi3aDLosMxxTDce67DyaSmbWshGGZ3ZpigHJ9DI2QhVzFzLMYKu0P274NTEw2IulC0KyRdQ5sB9sjT2umYqpYM3m5uauopFVyRGYy7Ky6Zg99OiiVXxDMvgFTIizPJiR6CNIyfrHtR/SgFfF74V/H3O/DNR0BCVD5DvPl2XUOU+xPVSyf8GTlX9u3nx8c0VVAPURluyxYvAUuS2jjtmDxS4L8alkwECPzhC7LeOsDATWR9Af0lgfVWpwsNfdLMb7nDkJncTiQ/2md0EcTs4jHzy3XthUFTsrmwB+enpKPxLJaVmZ0KQKUrpsKDMkA/qNVJrZLP8/9s5et4kgisJrNCy7K+YHwQhY0GyBRIVoobbEI9C5iGhQnoKKAiQKWrc8As9AQ6jSIKVAyAVSOjcpkCjIMrn7N3PXHjtk7Nk9BZDEILHw5d4598z1dc+QcbCHGsNo2Sz9CZi0toFa3jRKEuGhkCHhYPxI9rOC7Me0Qdj3xXkZK/XP7jhani3hwNWkDLx7g7FhHcoAMq1E7nyS8a5XyFjjWxCYRVDYkBaQcAVFjLaOaApK3lryMSVbnsP0qaFvJ8fHi3Mdn/x481VrgYU4tJP/57yM/bIwNqxDWRuyiLDJjnv5/3bDRZ5UNJ0hIm1hRdF2PQi4HapziEuUnyQb/hbReLdoquQLusV575ar8gfwPJz1LApCAFmlWGxey2jG/79pcsMTZMBYTlpVrShUc9xFS+KMRtEcqCXKU7/gsNP0VBv4pqCMaW8RM+aPzhnVemW8ZFjOB0DWcqi1qPOFjysZrj72Bhlr/f2SyiLijaeVNZuAuEIs6ogqD90Cut0DDy5O8SoGhez9qve+/W1vFQe06QMgMw73LmdyEjM1AUWuct8NdyPyIa4ZA2X1R0UNDK9tj1ROsIFaLDzUMVdz8ahMdHRrmC5ioAUUMvTPOD21fn1YGWGArKXMoZSRlLWDQtH/1h0/kMWdOl3URypaf0t6AJ+lVfIKwdWNMQ95j3k5bX5T6WubL2gW5webaFj2IkDWVr7epSiScv3KK4IMLkjfia5aYLiT9jOidef4pOYnrQ0kZUGMFB5G/q7moi5kx1/7dPIarEV3DSqIb4eM6v8h/S6HDpO7QLbHe8WJ7C6BZY3GsK5xWVmiINwobMWK6n2yNHKRh1BVOWHGAYNA1YbN4LA8fICsI90BJjhghQmYUBqyIMVae/MAJ1kXNV7zJqV+Hpwg4WIPAVFXB1/7932MLSAqtYmG5eEjkOluJ0VtxK5Ezil5EC5kqXmIIiUtRQLtX1J/VquwcUQKP7k198tkb8u0R08Z+w7jrw01pCtlDpCBjWgo5zrxGi5kRJbUWO0LKUXr/JpjlmKpVHk5jrnHgzVkeBX7/s+b37xXHNagrB8y3EYESaYBCxsyXqJBTHuoUk5gyIgfxsANkTTyIOdZdFmpji217GQxfQ2B4M00QmaeycBGNKSYzjEED1ki7JsZWHfRYibgQ2sZ24ErDutDNr9IAk+n0wVoOq2i+B8upYwN441t13EX41yYgBWxceZgoUKG3vuiTImJKtI1bnMSthP3Gw7W17vXqH6dbYfYCFl1S7qAKSyoca/XeloLFLKkbzJPSHcpAbEv3tmN5Q4HDjp698tG2O+z7f2OEbIoay07fdK1EbHQR6iQMcP1wHxDzJNNLr54j0SedeCo0+XybF7pbImnpNw1mPCiDbKsnV2sAZI8JUjoI2DIzEKGH7gEjKzNFY3wCGnkUwf7pVArGe2m8GXXRgSRi9BH4JBxrJCZdj6lwnwxBIVBMnOpZyNk+68WZEmcse7daIAMC32ED5laebmS5OAb6gNsbOkUmw9L+RiUgbu4VwoPsqzJCosQyPDQx5MgIUshPoWKqsaOc9ZqGCEoLCkhSZoxZewrWKlBQxbcnIw0keERAhke+gh0TrZys30smtgQBa+vD2Oq/v0JV5727kHiY68UHGQUiIFpjgEZHvoIdxhNSk6Slccx1rKNFNj2tvFzLL0sUYHs4l4pvOyiAsQyYqY/8NBH2ImPdMUdcWbUJalPZbBqMTdHHtwHZZDC3yuFl8IvEwsq56k1YoWEPoKPVXF0sT1NKdFje2Xcgcmx3QNa1MMaHbhPtlfa4/tkSVYaF0KyFEl8GJBhoY/wIZPWIRnJ9FNRlsthRKy2ERN5SQvhbl6/7aTnb/dKj24763q0CyKsMRsV7pCJXAM2CMhKYgRSibTMHFVutN34Tevt9PDlbFRXhy/8v31dCoiBXCCDu2ODgQx25GCPEN/JLThZmewvttvbNSKG6GnkVRD3dYesthGHBFlmcSio0J4P19NCQRvoMGEg1vcPQbdh7HA2CtGLyKfSyYaQXdiIQ4OMdUoVTMJEXCfvZcUN0ijiA7h8i9PYWMd2tJYRVRkXGZcOkJXsDBGywiw3RbN6UQEUUq7cwonJdqXs6WwUrkOP/gdv3eSNxQjZGuYiMdu8uBMfpvV3rDxtpa1l2gswizbV2Cz26mHkTaodT6BihGz1AzMNC9axHyvCBKPdZ6d6TRURbahbs1F9ehl502TSdo75CFm/RJeSomu9S/QSC0CGSm4xK3s4G7WbkN3srt9ORshWfle6Vv6MvwXtfTA7eGJbFyzT/uadXwZkXz7PQB/hl1ep+Xy+5gvfz65Ih5Ev3TTe6UCMkP1l72xWFEaCOD4sIlHw4+JhXdAX2H2jXPoS6BfoJ8ghRhQCOYkoOQQMIQcR8ga+1+bflUoyiVlnRtmZyUzBjOmPdGeG/lnd1dWV/5T6OZdmAMYFH3h+wC/yQci2QjjMmBCh+T5ZJfaDQz8UYv2mirFQm7ay7kLW+4XsLmR/16weU6MOysJ4xJ3kcciUECKlyyPG+/tkCy4fkY0StnxTzUCIVkXbGch69RePDSjjF7K3abLeojHBmyPnIdvlw5BJkUlAwzx6P2R7IWLzEYnF+k2M4emCNqXZHche6i8em+v05Beyt63JhnWrR2/50NvVcbfxHMhE/FHI1o9C5nlvV3qtNHYIMkBVmd6Mc+h+IbtjXayfeuZAQu9+K63R7/eNV/4koydBJg5VyFzWGKty7VW1OsjVStYhkxvkS66wwyUJFwMTasTlwkZVNMG1uXtKMmTcEpX9Z28ufrO4u92mSqu7qhR8IcgGVc+6wZxjv/1C9qZ9siG9YeLPTGazf6ZIvc90MZjxfnXllYHPgsyuQHZQ+eJnT9nmZqswpzzn1khb33BCTTsrUMFeYmmVHiwhHJnlrpWucakMcUv4MlJZ5sHcZWAqh6jw1tS7Z1ISTe83G0uvEh2RkFVR6WSkZ7UyEGfznPWkjii71RvqHM1TkNWJJGUcA9SxtpKWnoEZZ6k0KwgTFKit+1UgwwSFZPEHD5Kp8QhkOJz2999/LyejTkLGqyZO1OReUGBjTkCx4mIZPxuyOPs5M2T6w+GiDQa5JUj2yD2JXGIsqEh2pp/dqqsdcZlLOe7TjAJbQNQJTOQq8yxYQBnfaR3pAVSuYI/omQ0fh6ylbfEA5q3eUCc5Cggt+CR1zd8lGVfUgiwLki8DWa85UPovH4cM2pBl1sVoVfTS2nbIFv17ty8ajEEmT4bsuhcwjzNkcY7ABvhovSCCkxeBoCylhPDdzVYDuIkzsJKtrw3x0GkoUxkTFw+KhPRgQaYd2zTwcRf4KapShysF3XO0c54lsVc8T3bTCdsMwDDWutVFE83eqI6KQrQUEaUq9K5xbke1UBwoYclQF+g/7fRVIANlbYy9H7LeuOtxF9kLnz0RF1M+yzJdzMfD0Tts9AM6IDOk0zCjJ0O2wVBtgQzqRrkmfUqtJfKRv6msyULSGu7B9HKNd4GqqEDG2gjDfkeq8wqNRXpO0HaA2uHzHmSJi09ONntDmYWWHDwyHpJUok0PaxFsO9fcUw+osP0ykJVg8MuyPg5Zb9754KbN82S9XN692zxHosffc/PnGj6umpFLC2Q2uIAo1AEfkcSwPpg1yK7U4Dpx+e5VFTJaZhELirTimrbIVqSVLJ0JZXkHsjR/mnNLbx4YxoVLldMgrO67W8Xs8BKgQ93D/utAhhf+TBmxPtIfhmze/QjCwGT50IpuyHCWLxI06PKZJvyrJimQtyHDNHEHSYTwURNKK8SIrkFWMR4cznuFu6uQbWiYB0hbDG5RdaWJ8KjRO5Bt8pXVsaU3r0jYRT/uJUoEN0R6qyiwUfCVIEMAxeHkrwlsyY9ANizCVo2Xi45CBjQW9yr1+294QeeIceWVHptVngXZAQrqJmQY+1XjgmvT5XpXg8ziJn2y99UhkwRZgnRAg19yVUC2KpTR9g5kMufn2NKbVxC/J55WcYAKDBnjiYIEuV8PMpZHIOOoTFNyPR8sOgnZy+y+slliGtj2JTSp6sRx9SgoL9meBBkthNavIVth4OoKia1lfyYbPqwOtH6qQhbkDcIqbzn+rg5ZzotdQiZtqnpohexKyTbIWnpjyHixleJ57eiKWSE1dKaKF10QX6NuQjYkxkaFRaWTkI3vB0icUpTum2vfWUGfgVRl982grPnzIHMt/kIvSDjQwFW0CGKREpw5VLcKWVI4QFoX6MH7kEVZ1WtO80Y/yaU2XTwh6dQhMxmylt48Ml7ynFJi/84FrQVkPgrLgribkM1r3sajTkLWv78oG7NCbwbjZt8aJqtfemflbY+fB5npM2R67PM6a1c1vUWONFcqcE2qFPB8rICsOo278khvhQwIhGxd3Omkw9PUPVtHULkVspbePN5E22lur6XyKxviejKn2u4eZDRbnPYqFbsIGdsr7u/wTxHMi9+MCKLAWD30w8ToGfpiyPsDT4TMtBmyc24dz40Jp3xmKB0kTwCAmLRZyxSQ8VYvzxpP/w1ZQCxIGyxobkVKSbb3BxL6pxWylt48gRQtHy2pzfubHMSAG2IyV2zy/46QkZ26FTKyT3b+xezzG6EV54vpbDmo8QPOZvPlcj6b3gx72iPwqHDW41njMyHbMWQrfWELpUCVHs4qvJwTzdFGZWWpFyp2EkFV22XIiInj1U/QSPTfkDlwjrqiYQBDM1Z7r5Dc5y1Za0uoVsiavTFkilsKyZBvp5fcy6OAjHayk/QS6x7dbwaZkQ0kDJplv/fDIRvWF06DGy8ZG7zFGWS0KMtGSNP/7ynnyQ7FakpsiROIuiakAdieKIIV8VJxsjrQ9cEvVjUbi7LiiLJYZ6jqiTUbiAJYLVFMrV0pHURIUrHmQwiHVORVfxUoXrj5zd4YssCnfId6pXYvlrZXJoULVsgFQdb2t4LMGFfGyvRHTxfpy8S4GR12Uc2e339prTEv8eToA8+A7Ei0QLYq2NHgS0SwP5i+cCpGeTuUZPbewvV2fcp1VCJEcDTdRF3Yx91RwnIOGQYqrRyJCXVZoDx8pipx0dQeVbHuo7t3jpUhJv2c4JWjVHKU0lYgwFdrssqHxC2aaPbGkJlXW4nEz58fWjiUpqew+33C7/LpkyMVfCfImpG82w0fk5qH//Sla7J89Vca9N2yIJLqr/HgjcOh0fKfHc8Ws/GgtISMHoDsvSLN/080ZA8IIPuu58k+GMm73YRf+t4ZHG6uazIANr0qctM+v2SsX1d7Ria9N/+bQWk3o1XVILusboLQzN39EMgwqJrSHo140uM3t5Lja+ek5hzFfyMomz9oURn+DMhSYd2qlIhrLccRxx8BGbMzHQ/7w3krZKzKIPPlPEOso4qMVM6iV/dlJH+N3gPvi8HtXYXsxAG02Hv3hirbsTWxFCXW5XmyDkM2LM4i3vWWWqKAhS3THZRK+Jw+X7LH1V2WBgOjVZGNX7oKGY5ZvwqItWvWcZXwG7pta7Inx7HDkM2IMU4aizbIQNmPYKwIBFdz0ljcde/t0ab0YtKsNtBtdhYyBOC4B5np+fWcVSj5/t23DaRzXwyaK/bqmq3dz7yUcTcZq4Y0HZVTx0HTQb91Y2xmNM/OgtbuQsZSQnZfOhKt6q1mj3HD2b51Rw3FHB6mqzIiSyLzNu8RQXe2uQxmjMBsTMqnxmdDdoid2KMtq1iaXhwjoMBx60tkRb5ppttoxUomcrYpLuQl1UI3erHjHHUdGafmZXtmVYSWnO2pDllEOavtxjRPsdT1ztusaX3pZdmQXZQ9WHch6zciMS7aIYP0+pPlcjnuGy8dlnHBRJ+MQpNlLQbRaDgZDnrNjcTZhN6qtGy+rHP48smQRWUwG0uEIRLpKoCHhtT2vY2DLKLCVxzUZi8gebgQSqgUNYTy2IukOIQibPcVZCehJJkRHbiD+eDbEhBb8pqM/TucHwTZtJt7zO83uc6Zt2Z8lMGMQ+3V1N+wmHGP6pPF2csnQ3YWJKF2f0wExLIF5Ez2QT5JqZHjgY8afB0LEksCWWpDmhwFTsv6FWR+7g+lsrt3GnBXlcyaGWsVt6+oq5CNaA3RzPjZMuCvngpl035jacqLL84cN5xGyiZGnwyZVEKlMlXQLRKgnEOKxkjHSU7ISq82YNJkhfIQAJbNKQzDPDqUEtbB3GSFVwIuWSu7jP4dyR2cDKuQASwwC44PuAbqWxdHZRKGTLv/yqsSyu0oZC/TWgyreWf3v94jxEW/EgZvuix4GjYNrHz8+WakkD4R+8mQnUhVRKAFkKUaDEsChATFRcw3ZGmNlNItxRnJDRDSVUNk4WYpqYJL1BzAaAkZAEpoPrjJIYuRoV1+GbJLhh25/vpdhWz5+sDzuLOOHB+JcD7gA2ODUe+1O+N0km/dT6o3GI34HkCOpgafDRlGPusWQOZq4LYmEoEmx86reVA3JySINXKkh7VjrZMHzV6Mmwu5FMc1g1eQbXVHNsgiyDzrkis+mUMWo0dNsNNVyEZsjzcwmIpI3j9ejAV99zRlAmaMRuScZQllv/EO4YXx6ZDZQrhSSleIPbiySMGEGiWLFZ1eRfmaNJlJIBK+N+R2vNjiWMRnztNNnXDHWqgSMlKGKbqLGDKI669BeQ5Zdr3Cgymx7ipk5QJjilMuv4qshKOFshnTxJckQ5o8sp2jX9k8Q6VPhywRLFtt+AAZxIkiyIiZC3hyuCpptxCfRJijKgG/L1VPKhaLIeOV4BZtegVkUocJrkCGJMm+s5A1wiligPxKPs2bNvGAYqqANaxuMM5HeKctK7iCsf7L50MWFBQcKpD5Fch8nveVZnt1omDcgIZt7esjQ+bdgEyFVcigp5KsUJkMmRvgEeL1DciU113Iestfxv5l73xWWwWiOOzCioYk5nLJxoUuur9v0UfobjbdCL7APIELY1AodCWhoQshJbgoBd8g73U9czxWq8mFornWzrcobcaGLPIxZ37zrxONMsXLkjVLAjzXm141VvjHCCTzi6osKgjxBAO/LdmesbJHC+AgcAA9ofxjU4jwFn6MyZ4bc3BP9B8kGU0cRNlDQJJB27aQKWiUi4n4YJOdJxPMVvW8TNaKZyYRmwe80ThM61rauWy+wRgkCyDhA5Jzku0YwyoQGk6olSc0yTzqyHKYTm5LhkM5IAoryUjMFGIUkozjnpaqJ6s9nXhTlkzRzeogC9mNtfaMO2orj7U+Ckq944Ads34NwUwZhWQYkYMzaadkOEryXHDxBD4InWIWcaoLUQe6qKkpWVI6mvAtPVeVqVy8M0oWYmDpQQWKkoGfKfahr5OWDFDn8/lUV/x+ERpS2UYrj7UMVTdXFNUTurm2bcvU8bl1WXyPQ7KoSOpDEfe9nZPMj7yA5od5Iu4WjGF85udAAl6l4BGIQpIRmVCxWKX1WbIjxifUk8HsGr54QsnAOzcSZ/LsJy+ZpAt93d5wgB3UP65UVE1sN5SRSAZffTeGOzNDkgzruEqyMho5lJcuxQHMT4cPFZt3iCZFvuh+lgzk5QG05aIpaVw9tifJxNAww1vP3lAynNaOdzAVJyX7mZQ1n621kqKLDhlrWnY1GsnokspceLXDkOMkCjpf/J6/fOToAS0wrEn2jEEgzwtdy1UcNY40PyCaQlbhgnLYlabgHOAnHLs1H885FTxNOviQXEJbtbb2iEIRE/tOFla14248kjFvn3G+w/tmOdgVZj6uuD8IyR43W+6+UpLhc+6LRVRBCRxmGnC+S1j0ErPiR8Aa5FvOfSHKxq03HfiRCYIXsPI9gwPpWOo+o2RAmnEOmePXuVck3xrdae2gU2eO5ZjG5Tt/bUPpjV9sUFAydl0wBekDKdkE0OzWEaZtSD86XdhUlf6Ys/7575Il/Un2R5F8d1QoEAWOpl54TKuGa46u9ModG5brS3YIcF9NL/xWJN8foRlimUaHaLom9kQjzkLpmRs2LAcINq4Kx4ixB2RHNhnUWf0QD2c504zFQtcXhqGZS6vWtlrqSv/cskF5hETwqmQPeNFSD9zPFclUMBzozi5jaaoyCLceG5I4Zddlc9wdI9YHd9KxSaFqjn1esBWM2Abj5s5jkhb3t4rkL7t2k4IwDARQOAsFW1pRpOBCcNG9Id0kaekud3Cby3hCLyQKguAfoZ2F9X13eDAzzOSU+b5aPfVVLfNSSdvUEg7nk7DjrhaynitM1GxWZm27vWmzcvHjX5/WREHGKuDvaR+lmJ6VCbjSIYpwzHPAXSOQmdcKwENmPo7KkRgguJuZnkEReKXoTRxBZzl3AG81bmBnxjUKwCeFDRQGCCusNzFZR2FACt2HhNCMt1wTgXTauu57X8ERGDCEvrRjxzYAg0AQBBtwLy9fAgi5/7YsERMQEM70sMnm62O+m7rm6C1ePVzyVCVpS5ISFwAAAAAAAAAAAAAAAAAAAAAAAAAAAHDsB6vcib1HD44WAAAAAElFTkSuQmCC;" vertex="1" parent="1">
          <mxGeometry x="250" y="-840" width="518.68" height="830" as="geometry" />
        </mxCell>
      </root>
    </mxGraphModel>
  </diagram>
  <diagram id="wTa-4OKeVLAIysGYyLYo" name="contexto">
    <mxGraphModel dx="1320" dy="970" grid="1" gridSize="10" guides="1" tooltips="1" connect="1" arrows="1" fold="1" page="1" pageScale="1" pageWidth="1100" pageHeight="850" math="0" shadow="0">
      <root>
        <mxCell id="0" />
        <mxCell id="1" parent="0" />
        <mxCell id="KKPNqsH0oOLvjZzzXBHj-1" value="" style="shape=image;verticalLabelPosition=bottom;labelBackgroundColor=default;verticalAlign=top;aspect=fixed;imageAspect=0;image=data:image/svg+xml,PHN2ZyB4bWxucz0iaHR0cDovL3d3dy53My5vcmcvMjAwMC9zdmciIGlkPSJzdmcyMzUiIHZlcnNpb249IjEuMSIgdmlld0JveD0iMjU2IC0xMSA4MDAgNDIzIiBoZWlnaHQ9IjIyY20iIHdpZHRoPSI0MGNtIj4mI3hhOyAgPGRlZnMgaWQ9ImRlZnMyMzkiLz4mI3hhOyAgJiN4YTsgIDxnIGlkPSJCYWNrZ3JvdW5kIj4mI3hhOyAgICA8ZyBpZD0iZzEwIj4mI3hhOyAgICAgIDxlbGxpcHNlIGlkPSJlbGxpcHNlMiIgcnk9IjM0LjUzMzYiIHJ4PSIxMTAuNTY3IiBjeT0iNjQuNDY2NCIgY3g9IjM2OC40MzMiIHN0eWxlPSJmaWxsOiAjZmZmZmZmOyBmaWxsLW9wYWNpdHk6IDA7IHN0cm9rZS1vcGFjaXR5OiAxOyBzdHJva2Utd2lkdGg6IDI7IHN0cm9rZTogIzFlOTBmZiIvPiYjeGE7ICAgICAgPHRleHQgaWQ9InRleHQ4IiB5PSI2MC4zNjY0IiB4PSIzNjguNDMzIiBzdHlsZT0iZmlsbDogIzFlOTBmZjsgZmlsbC1vcGFjaXR5OiAxOyBzdHJva2U6IG5vbmU7dGV4dC1hbmNob3I6bWlkZGxlO2ZvbnQtZmFtaWx5OnNhbnMtc2VyaWY7Zm9udC1zdHlsZTpub3JtYWw7Zm9udC13ZWlnaHQ6NzAwIiBmb250LXNpemU9IjEyLjgiPjx0c3BhbiBpZD0idHNwYW40IiB5PSI2MC4zNjY0IiB4PSIzNjguNDMzIj5Gb3JvIEVjb27Ds21pY29vPC90c3Bhbj48dHNwYW4gaWQ9InRzcGFuNiIgeT0iNzYuMzY2NCIgeD0iMzY4LjQzMyI+TXVuZGlhbDwvdHNwYW4+PC90ZXh0PiYjeGE7ICAgIDwvZz4mI3hhOyAgICA8ZyBpZD0iZzIyIj4mI3hhOyAgICAgIDxlbGxpcHNlIGlkPSJlbGxpcHNlMTIiIHJ5PSIzNy44NTE2IiByeD0iMTA1LjU0IiBjeT0iMTU4LjQ5OSIgY3g9IjQ4Ny41MyIgc3R5bGU9ImZpbGw6ICNmZmZmZmY7IGZpbGwtb3BhY2l0eTogMDsgc3Ryb2tlLW9wYWNpdHk6IDE7IHN0cm9rZS13aWR0aDogMjsgc3Ryb2tlOiAjODAwMDgwIi8+JiN4YTsgICAgICA8dGV4dCBpZD0idGV4dDIwIiB5PSIxNDYuMzk5IiB4PSI0ODcuNTMiIHN0eWxlPSJmaWxsOiAjODAwMDgwOyBmaWxsLW9wYWNpdHk6IDE7IHN0cm9rZTogbm9uZTt0ZXh0LWFuY2hvcjptaWRkbGU7Zm9udC1mYW1pbHk6c2Fucy1zZXJpZjtmb250LXN0eWxlOm5vcm1hbDtmb250LXdlaWdodDo3MDAiIGZvbnQtc2l6ZT0iMTIuOCI+PHRzcGFuIGlkPSJ0c3BhbjE0IiB5PSIxNDYuMzk5IiB4PSI0ODcuNTMiPkVjb25vbcOtYSBkZWwgPC90c3Bhbj48dHNwYW4gaWQ9InRzcGFuMTYiIHk9IjE2Mi4zOTkiIHg9IjQ4Ny41MyI+Q29ub2NpbWllbnRvPC90c3Bhbj48dHNwYW4gaWQ9InRzcGFuMTgiIHk9IjE3OC4zOTkiIHg9IjQ4Ny41MyI+NCBSSTwvdHNwYW4+PC90ZXh0PiYjeGE7ICAgIDwvZz4mI3hhOyAgICA8dGV4dCBpZD0idGV4dDI2IiB5PSIyOS45MzI4IiB4PSIzNjguNDMyIiBzdHlsZT0iZmlsbDogIzFlOTBmZjsgZmlsbC1vcGFjaXR5OiAxOyBzdHJva2U6IG5vbmU7dGV4dC1hbmNob3I6c3RhcnQ7Zm9udC1mYW1pbHk6c2Fucy1zZXJpZjtmb250LXN0eWxlOm5vcm1hbDtmb250LXdlaWdodDo3MDAiIGZvbnQtc2l6ZT0iMTIuOCI+PHRzcGFuIGlkPSJ0c3BhbjI0IiB5PSIyOS45MzI4IiB4PSIzNjguNDMyIj5EYXZvcyAyMDE2PC90c3Bhbj48L3RleHQ+JiN4YTsgICAgPGcgaWQ9ImczNCI+JiN4YTsgICAgICA8ZWxsaXBzZSBpZD0iZWxsaXBzZTI4IiByeT0iMjIuODc1IiByeD0iODIuMDAwMyIgY3k9IjEzLjEyNSIgY3g9IjYzMCIgc3R5bGU9ImZpbGw6ICNmZmZmZmY7IGZpbGwtb3BhY2l0eTogMDsgc3Ryb2tlLW9wYWNpdHk6IDE7IHN0cm9rZS13aWR0aDogMjsgc3Ryb2tlOiAjMDA4MDAwIi8+JiN4YTsgICAgICA8dGV4dCBpZD0idGV4dDMyIiB5PSIxNy4wMjUiIHg9IjYzMCIgc3R5bGU9ImZpbGw6ICMwMDgwMDA7IGZpbGwtb3BhY2l0eTogMTsgc3Ryb2tlOiBub25lO3RleHQtYW5jaG9yOm1pZGRsZTtmb250LWZhbWlseTpzYW5zLXNlcmlmO2ZvbnQtc3R5bGU6bm9ybWFsO2ZvbnQtd2VpZ2h0OjcwMCIgZm9udC1zaXplPSIxMi44Ij48dHNwYW4gaWQ9InRzcGFuMzAiIHk9IjE3LjAyNSIgeD0iNjMwIj5Tb2NpZWRhZDwvdHNwYW4+PC90ZXh0PiYjeGE7ICAgIDwvZz4mI3hhOyAgICA8ZyBpZD0iZzQyIj4mI3hhOyAgICAgIDxlbGxpcHNlIGlkPSJlbGxpcHNlMzYiIHJ5PSIyOS4wMzM2IiByeD0iODUuNTY3MyIgY3k9IjgwLjk2NjQiIGN4PSI4MTguNDMzIiBzdHlsZT0iZmlsbDogI2ZmZmZmZjsgZmlsbC1vcGFjaXR5OiAwOyBzdHJva2Utb3BhY2l0eTogMTsgc3Ryb2tlLXdpZHRoOiAyOyBzdHJva2U6ICMxZTkwZmYiLz4mI3hhOyAgICAgIDx0ZXh0IGlkPSJ0ZXh0NDAiIHk9Ijg0Ljg2NjQiIHg9IjgxOC40MzMiIHN0eWxlPSJmaWxsOiAjMWU5MGZmOyBmaWxsLW9wYWNpdHk6IDE7IHN0cm9rZTogbm9uZTt0ZXh0LWFuY2hvcjptaWRkbGU7Zm9udC1mYW1pbHk6c2Fucy1zZXJpZjtmb250LXN0eWxlOm5vcm1hbDtmb250LXdlaWdodDo3MDAiIGZvbnQtc2l6ZT0iMTIuOCI+PHRzcGFuIGlkPSJ0c3BhbjM4IiB5PSI4NC44NjY0IiB4PSI4MTguNDMzIj5DYXBpdGFsIEh1bWFubzwvdHNwYW4+PC90ZXh0PiYjeGE7ICAgIDwvZz4mI3hhOyAgICA8ZyBpZD0iZzQ4Ij4mI3hhOyAgICAgIDxsaW5lIGlkPSJsaW5lNDQiIHkyPSIxMTguODgyIiB4Mj0iNTI2LjM1NiIgeTE9IjM1Ljg3NTIiIHgxPSI2MDcuNzA1IiBzdHlsZT0iZmlsbDogbm9uZTsgc3Ryb2tlLW9wYWNpdHk6IDE7IHN0cm9rZS13aWR0aDogMjsgc3Ryb2tlOiAjMWU5MGZmIi8+JiN4YTsgICAgICA8cG9seWxpbmUgaWQ9InBvbHlsaW5lNDYiIHBvaW50cz0iNTI4LjIxOSwxMDkuODM3IDUyNC43OTEsMTIwLjQ3OSA1MzUuMzYxLDExNi44MzYiIHN0eWxlPSJmaWxsOiBub25lOyBzdHJva2Utb3BhY2l0eTogMTsgc3Ryb2tlLXdpZHRoOiAyOyBzdHJva2U6ICMxZTkwZmYiLz4mI3hhOyAgICA8L2c+JiN4YTsgICAgPGcgaWQ9Imc1NCI+JiN4YTsgICAgICA8bGluZSBpZD0ibGluZTUwIiB5Mj0iMTIwLjY0NCIgeDI9IjQzOS41ODQiIHkxPSI5Ny4xODA1IiB4MT0iNDA5Ljg2NyIgc3R5bGU9ImZpbGw6IG5vbmU7IHN0cm9rZS1vcGFjaXR5OiAxOyBzdHJva2Utd2lkdGg6IDI7IHN0cm9rZTogIzFlOTBmZiIvPiYjeGE7ICAgICAgPHBvbHlsaW5lIGlkPSJwb2x5bGluZTUyIiBwb2ludHM9IjQzMC4zOTIsMTE5Ljc1NyA0NDEuMzM5LDEyMi4wMjkgNDM2LjU4OSwxMTEuOTA4IiBzdHlsZT0iZmlsbDogbm9uZTsgc3Ryb2tlLW9wYWNpdHk6IDE7IHN0cm9rZS13aWR0aDogMjsgc3Ryb2tlOiAjMWU5MGZmIi8+JiN4YTsgICAgPC9nPiYjeGE7ICAgIDx0ZXh0IGlkPSJ0ZXh0NTgiIHk9Ijc4Ljk3NTYiIHg9IjU2NS40NjQiIHN0eWxlPSJmaWxsOiAjMWU5MGZmOyBmaWxsLW9wYWNpdHk6IDE7IHN0cm9rZTogbm9uZTt0ZXh0LWFuY2hvcjpzdGFydDtmb250LWZhbWlseTpzYW5zLXNlcmlmO2ZvbnQtc3R5bGU6bm9ybWFsO2ZvbnQtd2VpZ2h0OjcwMCIgZm9udC1zaXplPSIxMi44Ij48dHNwYW4gaWQ9InRzcGFuNTYiIHk9Ijc4Ljk3NTYiIHg9IjU2NS40NjQiPsK/UHJlcGFyYWRhPzwvdHNwYW4+PC90ZXh0PiYjeGE7ICAgIDxnIGlkPSJnNjQiPiYjeGE7ICAgICAgPGxpbmUgaWQ9ImxpbmU2MCIgeTI9IjU3Ljk4MTkiIHgyPSI3NTQuNTkzIiB5MT0iMzEuNTQ3MSIgeDE9IjY4MS4xNjgiIHN0eWxlPSJmaWxsOiBub25lOyBzdHJva2Utb3BhY2l0eTogMTsgc3Ryb2tlLXdpZHRoOiAyOyBzdHJva2U6ICMxZTkwZmYiLz4mI3hhOyAgICAgIDxwb2x5bGluZSBpZD0icG9seWxpbmU2MiIgcG9pbnRzPSI3NDUuNTk0LDYwLjA1NjQgNzU2LjY5Nyw1OC43Mzk0IDc0OC45ODEsNTAuNjQ3NiIgc3R5bGU9ImZpbGw6IG5vbmU7IHN0cm9rZS1vcGFjaXR5OiAxOyBzdHJva2Utd2lkdGg6IDI7IHN0cm9rZTogIzFlOTBmZiIvPiYjeGE7ICAgIDwvZz4mI3hhOyAgICA8dGV4dCBpZD0idGV4dDY4IiB5PSI0NS41MjIiIHg9IjcxOS45ODQiIHN0eWxlPSJmaWxsOiAjMDA4MDAwOyBmaWxsLW9wYWNpdHk6IDE7IHN0cm9rZTogbm9uZTt0ZXh0LWFuY2hvcjpzdGFydDtmb250LWZhbWlseTpzYW5zLXNlcmlmO2ZvbnQtc3R5bGU6bm9ybWFsO2ZvbnQtd2VpZ2h0OjcwMCIgZm9udC1zaXplPSIxMi44Ij48dHNwYW4gaWQ9InRzcGFuNjYiIHk9IjQ1LjUyMiIgeD0iNzE5Ljk4NCI+Q29uZm9ybWFkYSBwb3I8L3RzcGFuPjwvdGV4dD4mI3hhOyAgICA8ZyBpZD0iZzg2Ij4mI3hhOyAgICAgIDxlbGxpcHNlIGlkPSJlbGxpcHNlNzAiIHJ5PSI2OS44ODIiIHJ4PSI5Ny42MTgiIGN5PSIzMjcuMiIgY3g9IjM5MC44IiBzdHlsZT0iZmlsbDogI2ZmZmZmZjsgZmlsbC1vcGFjaXR5OiAwOyBzdHJva2Utb3BhY2l0eTogMTsgc3Ryb2tlLXdpZHRoOiAyOyBzdHJva2U6ICMxZTkwZmYiLz4mI3hhOyAgICAgIDx0ZXh0IGlkPSJ0ZXh0ODQiIHk9IjI5MS4xIiB4PSIzOTAuOCIgc3R5bGU9ImZpbGw6ICMxZTkwZmY7IGZpbGwtb3BhY2l0eTogMTsgc3Ryb2tlOiBub25lO3RleHQtYW5jaG9yOm1pZGRsZTtmb250LWZhbWlseTpzYW5zLXNlcmlmO2ZvbnQtc3R5bGU6bm9ybWFsO2ZvbnQtd2VpZ2h0OjcwMCIgZm9udC1zaXplPSIxMi44Ij48dHNwYW4gaWQ9InRzcGFuNzIiIHk9IjI5MS4xIiB4PSIzOTAuOCI+UGFyYWRpZ21hczwvdHNwYW4+PHRzcGFuIGlkPSJ0c3Bhbjc0IiB5PSIzMDcuMSIgeD0iMzkwLjgiPi0gRWR1Y2FjacOzbjwvdHNwYW4+PHRzcGFuIGlkPSJ0c3Bhbjc2IiB5PSIzMjMuMSIgeD0iMzkwLjgiPi0gRW1wbGVvPC90c3Bhbj48dHNwYW4gaWQ9InRzcGFuNzgiIHk9IjMzOS4xIiB4PSIzOTAuOCI+LUludmVzdGlnYWNpw7NuPC90c3Bhbj48dHNwYW4gaWQ9InRzcGFuODAiIHk9IjM1NS4xIiB4PSIzOTAuOCI+LSBEZXNhcnJvbGxvPC90c3Bhbj48dHNwYW4gaWQ9InRzcGFuODIiIHk9IjM3MS4xIiB4PSIzOTAuOCI+LSBJbm5vdmFjacOzbjwvdHNwYW4+PC90ZXh0PiYjeGE7ICAgIDwvZz4mI3hhOyAgICA8ZyBpZD0iZzkyIj4mI3hhOyAgICAgIDxsaW5lIGlkPSJsaW5lODgiIHkyPSIyNTcuODEzIiB4Mj0iNDMwLjU4NSIgeTE9IjE5Ni40NDIiIHgxPSI0NjUuNzc0IiBzdHlsZT0iZmlsbDogbm9uZTsgc3Ryb2tlLW9wYWNpdHk6IDE7IHN0cm9rZS13aWR0aDogMjsgc3Ryb2tlOiAjMWU5MGZmIi8+JiN4YTsgICAgICA8cG9seWxpbmUgaWQ9InBvbHlsaW5lOTAiIHBvaW50cz0iNDMwLjExLDI0OC41OTEgNDI5LjQ3MywyNTkuNzUzIDQzOC43ODUsMjUzLjU2NSIgc3R5bGU9ImZpbGw6IG5vbmU7IHN0cm9rZS1vcGFjaXR5OiAxOyBzdHJva2Utd2lkdGg6IDI7IHN0cm9rZTogIzFlOTBmZiIvPiYjeGE7ICAgIDwvZz4mI3hhOyAgICA8dGV4dCBpZD0idGV4dDk2IiB5PSIyMjkuMDY4IiB4PSI0NDcuMDY4IiBzdHlsZT0iZmlsbDogIzgwMDA4MDsgZmlsbC1vcGFjaXR5OiAxOyBzdHJva2U6IG5vbmU7dGV4dC1hbmNob3I6c3RhcnQ7Zm9udC1mYW1pbHk6c2Fucy1zZXJpZjtmb250LXN0eWxlOm5vcm1hbDtmb250LXdlaWdodDo3MDAiIGZvbnQtc2l6ZT0iMTIuOCI+PHRzcGFuIGlkPSJ0c3Bhbjk0IiB5PSIyMjkuMDY4IiB4PSI0NDcuMDY4Ij5OdWV2b3M8L3RzcGFuPjwvdGV4dD4mI3hhOyAgICA8ZyBpZD0iZzEwNCI+JiN4YTsgICAgICA8ZWxsaXBzZSBpZD0iZWxsaXBzZTk4IiByeT0iMjMuMTMxNCIgcng9IjkyLjUyNTciIGN5PSIxODkuMzc1IiBjeD0iODQ1LjY2MiIgc3R5bGU9ImZpbGw6ICNmZmZmZmY7IGZpbGwtb3BhY2l0eTogMDsgc3Ryb2tlLW9wYWNpdHk6IDE7IHN0cm9rZS13aWR0aDogMjsgc3Ryb2tlOiAjZmZhNTAwIi8+JiN4YTsgICAgICA8dGV4dCBpZD0idGV4dDEwMiIgeT0iMTkzLjI3NSIgeD0iODQ1LjY2MiIgc3R5bGU9ImZpbGw6ICNmZmE1MDA7IGZpbGwtb3BhY2l0eTogMTsgc3Ryb2tlOiBub25lO3RleHQtYW5jaG9yOm1pZGRsZTtmb250LWZhbWlseTpzYW5zLXNlcmlmO2ZvbnQtc3R5bGU6bm9ybWFsO2ZvbnQtd2VpZ2h0OjcwMCIgZm9udC1zaXplPSIxMi44Ij48dHNwYW4gaWQ9InRzcGFuMTAwIiB5PSIxOTMuMjc1IiB4PSI4NDUuNjYyIj5FZHVjYWNpw7NuIEFjdGl2YTwvdHNwYW4+PC90ZXh0PiYjeGE7ICAgIDwvZz4mI3hhOyAgICA8ZyBpZD0iZzExMCI+JiN4YTsgICAgICA8bGluZSBpZD0ibGluZTEwNiIgeTI9IjE2MC45OTIiIHgyPSI4MzguNTMzIiB5MT0iMTEwLjg0OCIgeDE9IjgyNS45MzgiIHN0eWxlPSJmaWxsOiBub25lOyBzdHJva2Utb3BhY2l0eTogMTsgc3Ryb2tlLXdpZHRoOiAyOyBzdHJva2U6ICMxZTkwZmYiLz4mI3hhOyAgICAgIDxwb2x5bGluZSBpZD0icG9seWxpbmUxMDgiIHBvaW50cz0iODMxLjc5MiwxNTQuNjggODM5LjA3OCwxNjMuMTYxIDg0MS40OTEsMTUyLjI0NCIgc3R5bGU9ImZpbGw6IG5vbmU7IHN0cm9rZS1vcGFjaXR5OiAxOyBzdHJva2Utd2lkdGg6IDI7IHN0cm9rZTogIzFlOTBmZiIvPiYjeGE7ICAgIDwvZz4mI3hhOyAgICA8dGV4dCBpZD0idGV4dDExNiIgeT0iMTM4LjA4OSIgeD0iODMyLjc4IiBzdHlsZT0iZmlsbDogIzAwODAwMDsgZmlsbC1vcGFjaXR5OiAxOyBzdHJva2U6IG5vbmU7dGV4dC1hbmNob3I6c3RhcnQ7Zm9udC1mYW1pbHk6c2Fucy1zZXJpZjtmb250LXN0eWxlOm5vcm1hbDtmb250LXdlaWdodDo3MDAiIGZvbnQtc2l6ZT0iMTIuOCI+PHRzcGFuIGlkPSJ0c3BhbjExMiIgeT0iMTM4LjA4OSIgeD0iODMyLjc4Ij5DYXBhY2l0YXJzZTwvdHNwYW4+PHRzcGFuIGlkPSJ0c3BhbjExNCIgeT0iMTU0LjA4OSIgeD0iODMyLjc4Ij5BIHBhcnRpciBkZTwvdHNwYW4+PC90ZXh0PiYjeGE7ICAgIDx0ZXh0IGlkPSJ0ZXh0MTIwIiB5PSIyMzYuNTQ2IiB4PSI4NzMuODUyIiBzdHlsZT0iZmlsbDogIzFlOTBmZjsgZmlsbC1vcGFjaXR5OiAxOyBzdHJva2U6IG5vbmU7dGV4dC1hbmNob3I6c3RhcnQ7Zm9udC1mYW1pbHk6c2Fucy1zZXJpZjtmb250LXN0eWxlOm5vcm1hbDtmb250LXdlaWdodDo3MDAiIGZvbnQtc2l6ZT0iMTIuOCI+PHRzcGFuIGlkPSJ0c3BhbjExOCIgeT0iMjM2LjU0NiIgeD0iODczLjg1MiI+QXBveWFkYTwvdHNwYW4+PC90ZXh0PiYjeGE7ICAgIDxnIGlkPSJnMTM4Ij4mI3hhOyAgICAgIDxlbGxpcHNlIGlkPSJlbGxpcHNlMTIyIiByeT0iNzcuNTAwNCIgcng9IjEyMy41MzUiIGN5PSIzMzMuNDA2IiBjeD0iOTMxLjczNyIgc3R5bGU9ImZpbGw6ICNmZmZmZmY7IGZpbGwtb3BhY2l0eTogMDsgc3Ryb2tlLW9wYWNpdHk6IDE7IHN0cm9rZS13aWR0aDogMjsgc3Ryb2tlOiAjMWU5MGZmIi8+JiN4YTsgICAgICA8dGV4dCBpZD0idGV4dDEzNiIgeT0iMjk3LjMwNiIgeD0iOTMxLjczNyIgc3R5bGU9ImZpbGw6ICMxZTkwZmY7IGZpbGwtb3BhY2l0eTogMTsgc3Ryb2tlOiBub25lO3RleHQtYW5jaG9yOm1pZGRsZTtmb250LWZhbWlseTpzYW5zLXNlcmlmO2ZvbnQtc3R5bGU6bm9ybWFsO2ZvbnQtd2VpZ2h0OjcwMCIgZm9udC1zaXplPSIxMi44Ij48dHNwYW4gaWQ9InRzcGFuMTI0IiB5PSIyOTcuMzA2IiB4PSI5MzEuNzM3Ij5IZXJyYW1pZW50YXM8L3RzcGFuPjx0c3BhbiBpZD0idHNwYW4xMjYiIHk9IjMxMy4zMDYiIHg9IjkzMS43MzciPjQgUkk8L3RzcGFuPjx0c3BhbiBpZD0idHNwYW4xMjgiIHk9IjMyOS4zMDYiIHg9IjkzMS43MzciPi0gQmlnIERhdGE8L3RzcGFuPjx0c3BhbiBpZD0idHNwYW4xMzAiIHk9IjM0NS4zMDYiIHg9IjkzMS43MzciPi0gUm9iw7N0aWNhPC90c3Bhbj48dHNwYW4gaWQ9InRzcGFuMTMyIiB5PSIzNjEuMzA2IiB4PSI5MzEuNzM3Ij4tSW50ZWxpZ2VuY2lhIEFydGlmaWNpYWw8L3RzcGFuPjx0c3BhbiBpZD0idHNwYW4xMzQiIHk9IjM3Ny4zMDYiIHg9IjkzMS43MzciPi0gQmxvY2sgQ2hhaW48L3RzcGFuPjwvdGV4dD4mI3hhOyAgICA8L2c+JiN4YTsgICAgPGcgaWQ9ImcxNDQiPiYjeGE7ICAgICAgPGxpbmUgaWQ9ImxpbmUxNDAiIHkyPSIyMTYuOTU0IiB4Mj0iODYyLjE0MyIgeTE9IjI1OS45NzUiIHgxPSI4ODcuODUzIiBzdHlsZT0iZmlsbDogbm9uZTsgc3Ryb2tlLW9wYWNpdHk6IDE7IHN0cm9rZS13aWR0aDogMjsgc3Ryb2tlOiAjMWU5MGZmIi8+JiN4YTsgICAgICA8cG9seWxpbmUgaWQ9InBvbHlsaW5lMTQyIiBwb2ludHM9Ijg3MC40MTgsMjIxLjA1MyA4NjAuOTk2LDIxNS4wMzQgODYxLjgzNCwyMjYuMTgzIiBzdHlsZT0iZmlsbDogbm9uZTsgc3Ryb2tlLW9wYWNpdHk6IDE7IHN0cm9rZS13aWR0aDogMjsgc3Ryb2tlOiAjMWU5MGZmIi8+JiN4YTsgICAgPC9nPiYjeGE7ICAgIDxnIGlkPSJnMTU0Ij4mI3hhOyAgICAgIDxlbGxpcHNlIGlkPSJlbGxpcHNlMTQ2IiByeT0iMzQuMTc1MyIgcng9IjcyLjYxOTYiIGN5PSIyNjcuNjI3IiBjeD0iNjg3LjYwMiIgc3R5bGU9ImZpbGw6ICNmZmZmZmY7IGZpbGwtb3BhY2l0eTogMDsgc3Ryb2tlLW9wYWNpdHk6IDE7IHN0cm9rZS13aWR0aDogMjsgc3Ryb2tlOiAjMWU5MGZmIi8+JiN4YTsgICAgICA8dGV4dCBpZD0idGV4dDE1MiIgeT0iMjYzLjUyNyIgeD0iNjg3LjYwMiIgc3R5bGU9ImZpbGw6ICMxZTkwZmY7IGZpbGwtb3BhY2l0eTogMTsgc3Ryb2tlOiBub25lO3RleHQtYW5jaG9yOm1pZGRsZTtmb250LWZhbWlseTpzYW5zLXNlcmlmO2ZvbnQtc3R5bGU6bm9ybWFsO2ZvbnQtd2VpZ2h0OjcwMCIgZm9udC1zaXplPSIxMi44Ij48dHNwYW4gaWQ9InRzcGFuMTQ4IiB5PSIyNjMuNTI3IiB4PSI2ODcuNjAyIj5IYWJpbGlkYWRlcyA8L3RzcGFuPjx0c3BhbiBpZD0idHNwYW4xNTAiIHk9IjI3OS41MjciIHg9IjY4Ny42MDIiPlhYSTwvdHNwYW4+PC90ZXh0PiYjeGE7ICAgIDwvZz4mI3hhOyAgICA8ZyBpZD0iZzE2MCI+JiN4YTsgICAgICA8bGluZSBpZD0ibGluZTE1NiIgeTI9IjE4OC4wMjciIHgyPSI1NjUuNjc1IiB5MT0iMjQzLjQ2MiIgeDE9IjYzNi4yNTIiIHN0eWxlPSJmaWxsOiBub25lOyBzdHJva2Utb3BhY2l0eTogMTsgc3Ryb2tlLXdpZHRoOiAyOyBzdHJva2U6ICMxZTkwZmYiLz4mI3hhOyAgICAgIDxwb2x5bGluZSBpZD0icG9seWxpbmUxNTgiIHBvaW50cz0iNTc0Ljg2OSwxODguODkgNTYzLjkxNiwxODYuNjQ2IDU2OC42OTIsMTk2Ljc1NSIgc3R5bGU9ImZpbGw6IG5vbmU7IHN0cm9rZS1vcGFjaXR5OiAxOyBzdHJva2Utd2lkdGg6IDI7IHN0cm9rZTogIzFlOTBmZiIvPiYjeGE7ICAgIDwvZz4mI3hhOyAgICA8ZyBpZD0iZzE2NiI+JiN4YTsgICAgICA8bGluZSBpZD0ibGluZTE2MiIgeTI9IjI0MC41MDEiIHgyPSI3NDIuMzkyIiB5MT0iMjEwLjQ2OSIgeDE9IjgwMy4wNTUiIHN0eWxlPSJmaWxsOiBub25lOyBzdHJva2Utb3BhY2l0eTogMTsgc3Ryb2tlLXdpZHRoOiAyOyBzdHJva2U6ICMxZTkwZmYiLz4mI3hhOyAgICAgIDxwb2x5bGluZSBpZD0icG9seWxpbmUxNjQiIHBvaW50cz0iNzQ3LjEzMiwyMzIuNTc2IDc0MC4zODksMjQxLjQ5NCA3NTEuNTY5LDI0MS41MzgiIHN0eWxlPSJmaWxsOiBub25lOyBzdHJva2Utb3BhY2l0eTogMTsgc3Ryb2tlLXdpZHRoOiAyOyBzdHJva2U6ICMxZTkwZmYiLz4mI3hhOyAgICA8L2c+JiN4YTsgICAgPGcgaWQ9ImcxNzIiPiYjeGE7ICAgICAgPGxpbmUgaWQ9ImxpbmUxNjgiIHkyPSIzMDcuMjU4IiB4Mj0iNDkwLjE1NCIgeTE9IjI4MS4yMyIgeDE9IjYxOS44MzIiIHN0eWxlPSJmaWxsOiBub25lOyBzdHJva2Utb3BhY2l0eTogMTsgc3Ryb2tlLXdpZHRoOiAyOyBzdHJva2U6ICMxZTkwZmYiLz4mI3hhOyAgICAgIDxwb2x5bGluZSBpZD0icG9seWxpbmUxNzAiIHBvaW50cz0iNDk2Ljc4MiwzMDAuODI4IDQ4Ny45NjIsMzA3LjY5OCA0OTguNzUsMzEwLjYzMiIgc3R5bGU9ImZpbGw6IG5vbmU7IHN0cm9rZS1vcGFjaXR5OiAxOyBzdHJva2Utd2lkdGg6IDI7IHN0cm9rZTogIzFlOTBmZiIvPiYjeGE7ICAgIDwvZz4mI3hhOyAgICA8dGV4dCBpZD0idGV4dDE3OCIgeT0iMjE0LjM2NCIgeD0iNTk5LjIwNiIgc3R5bGU9ImZpbGw6ICMxZTkwZmY7IGZpbGwtb3BhY2l0eTogMTsgc3Ryb2tlOiBub25lO3RleHQtYW5jaG9yOnN0YXJ0O2ZvbnQtZmFtaWx5OnNhbnMtc2VyaWY7Zm9udC1zdHlsZTpub3JtYWw7Zm9udC13ZWlnaHQ6NzAwIiBmb250LXNpemU9IjEyLjgiPjx0c3BhbiBpZD0idHNwYW4xNzQiIHk9IjIxNC4zNjQiIHg9IjU5OS4yMDYiPlJlcXVpZXJlPC90c3Bhbj48dHNwYW4gaWQ9InRzcGFuMTc2IiB5PSIyMzAuMzY0IiB4PSI1OTkuMjA2Ij5udWV2YXM8L3RzcGFuPjwvdGV4dD4mI3hhOyAgICA8dGV4dCBpZD0idGV4dDE4NCIgeT0iMjI2LjQ3OCIgeD0iNzcwLjcyIiBzdHlsZT0iZmlsbDogI2ZmYTUwMDsgZmlsbC1vcGFjaXR5OiAxOyBzdHJva2U6IG5vbmU7dGV4dC1hbmNob3I6c3RhcnQ7Zm9udC1mYW1pbHk6c2Fucy1zZXJpZjtmb250LXN0eWxlOm5vcm1hbDtmb250LXdlaWdodDo3MDAiIGZvbnQtc2l6ZT0iMTIuOCI+PHRzcGFuIGlkPSJ0c3BhbjE4MCIgeT0iMjI2LjQ3OCIgeD0iNzcwLjcyIi8+PHRzcGFuIGlkPSJ0c3BhbjE4MiIgeT0iMjQyLjQ3OCIgeD0iNzcwLjcyIj5BcHJlbmRpemFqZTwvdHNwYW4+PC90ZXh0PiYjeGE7ICAgIDx0ZXh0IGlkPSJ0ZXh0MTkyIiB5PSIyOTQuNjg0IiB4PSI1NTIuOCIgc3R5bGU9ImZpbGw6ICNmZmE1MDA7IGZpbGwtb3BhY2l0eTogMTsgc3Ryb2tlOiBub25lO3RleHQtYW5jaG9yOnN0YXJ0O2ZvbnQtZmFtaWx5OnNhbnMtc2VyaWY7Zm9udC1zdHlsZTpub3JtYWw7Zm9udC13ZWlnaHQ6NzAwIiBmb250LXNpemU9IjEyLjgiPjx0c3BhbiBpZD0idHNwYW4xODYiIHk9IjI5NC42ODQiIHg9IjU1Mi44Ii8+PHRzcGFuIGlkPSJ0c3BhbjE4OCIgeT0iMzEwLjY4NCIgeD0iNTUyLjgiPkNhcGFjaWRhZDwvdHNwYW4+PHRzcGFuIGlkPSJ0c3BhbjE5MCIgeT0iMzI2LjY4NCIgeD0iNTUyLjgiPkFkYXB0YWNpw7NuPC90c3Bhbj48L3RleHQ+JiN4YTsgICAgPGcgaWQ9ImcyMDQiPiYjeGE7ICAgICAgPHBhdGggaWQ9InBhdGgxOTQiIGQ9Ik0gOTMyLjQxNiA3Ny4xMjUyIEwgMTAzNi45Nyw3Ny4xMjUyIEwgMTAzNi45NywxMzEuMTI1IEwgOTg0LjY5MSwxNDQuNjI1IEwgOTMyLjQxNiwxMzEuMTI1IEwgOTMyLjQxNiw3Ny4xMjUyeiIgZmlsbC1ydWxlPSJldmVub2RkIiBzdHlsZT0iZmlsbDogI2ZmZmZmZjsgZmlsbC1vcGFjaXR5OiAwOyBzdHJva2Utb3BhY2l0eTogMTsgc3Ryb2tlLXdpZHRoOiAyOyBzdHJva2U6ICMxZTkwZmYiLz4mI3hhOyAgICAgIDx0ZXh0IGlkPSJ0ZXh0MjAyIiB5PSI5Mi4xMjUxOTgiIHg9Ijk4NC42OTA5OCIgc3R5bGU9ImZvbnQtc3R5bGU6bm9ybWFsO2ZvbnQtd2VpZ2h0OjcwMDtmb250LWZhbWlseTpzYW5zLXNlcmlmO3RleHQtYW5jaG9yOm1pZGRsZTtmaWxsOiMxZTkwZmY7ZmlsbC1vcGFjaXR5OjE7c3Ryb2tlOm5vbmUiIGZvbnQtc2l6ZT0iMTIuOHB4Ij48dHNwYW4gaWQ9InRzcGFuMTk2IiB5PSI5Mi4xMjUxOTgiIHg9Ijk4NC42OTA5OCI+RWR1Y2FjacOzbjwvdHNwYW4+PHRzcGFuIGlkPSJ0c3BhbjE5OCIgeT0iMTA4LjEyNSIgeD0iOTg0LjY5MDk4Ij5BcHJlbmRpemVqZTwvdHNwYW4+PHRzcGFuIGlkPSJ0c3BhbjIwMCIgeT0iMTI0LjEyNSIgeD0iOTg0LjY5MDk4Ij5Db25vY2ltaWVudG88L3RzcGFuPjwvdGV4dD4mI3hhOyAgICA8L2c+JiN4YTsgICAgPGcgaWQ9ImcyMTIiPiYjeGE7ICAgICAgPGVsbGlwc2UgaWQ9ImVsbGlwc2UyMDYiIHJ5PSIxOS40OTg0IiByeD0iMzguOTk2NyIgY3k9IjEzNy42NyIgY3g9IjY3NC40MjEiIHN0eWxlPSJmaWxsOiAjZmZmZmZmOyBmaWxsLW9wYWNpdHk6IDA7IHN0cm9rZS1vcGFjaXR5OiAxOyBzdHJva2Utd2lkdGg6IDI7IHN0cm9rZTogIzFlOTBmZiIvPiYjeGE7ICAgICAgPHRleHQgaWQ9InRleHQyMTAiIHk9IjE0MS41NyIgeD0iNjc0LjQyMSIgc3R5bGU9ImZpbGw6ICMxZTkwZmY7IGZpbGwtb3BhY2l0eTogMTsgc3Ryb2tlOiBub25lO3RleHQtYW5jaG9yOm1pZGRsZTtmb250LWZhbWlseTpzYW5zLXNlcmlmO2ZvbnQtc3R5bGU6bm9ybWFsO2ZvbnQtd2VpZ2h0OjcwMCIgZm9udC1zaXplPSIxMi44Ij48dHNwYW4gaWQ9InRzcGFuMjA4IiB5PSIxNDEuNTciIHg9IjY3NC40MjEiPk9EUzwvdHNwYW4+PC90ZXh0PiYjeGE7ICAgIDwvZz4mI3hhOyAgICA8ZyBpZD0iZzIxOCI+JiN4YTsgICAgICA8bGluZSBpZD0ibGluZTIxNCIgeTI9IjE3NS42MDYiIHgyPSI3NTAuMzQiIHkxPSIxNTEuOTA0IiB4MT0iNzAyLjkwNiIgc3R5bGU9ImZpbGw6IG5vbmU7IHN0cm9rZS1vcGFjaXR5OiAxOyBzdHJva2Utd2lkdGg6IDI7IHN0cm9rZTogIzFlOTBmZiIvPiYjeGE7ICAgICAgPHBvbHlnb24gaWQ9InBvbHlnb24yMTYiIHBvaW50cz0iNzQ4LjEwNSwxODAuMDc5IDc1OS4yODUsMTgwLjA3NiA3NTIuNTc1LDE3MS4xMzMiIGZpbGwtcnVsZT0iZXZlbm9kZCIgc3R5bGU9ImZpbGw6ICMxZTkwZmY7IGZpbGwtb3BhY2l0eTogMTsgc3Ryb2tlLW9wYWNpdHk6IDE7IHN0cm9rZS13aWR0aDogMjsgc3Ryb2tlOiAjMWU5MGZmIi8+JiN4YTsgICAgPC9nPiYjeGE7ICAgIDx0ZXh0IGlkPSJ0ZXh0MjIyIiB5PSItOTUuNzUiIHg9IjIzNyIgc3R5bGU9ImZpbGw6ICMxZTkwZmY7IGZpbGwtb3BhY2l0eTogMTsgc3Ryb2tlOiBub25lO3RleHQtYW5jaG9yOnN0YXJ0O2ZvbnQtZmFtaWx5OnNhbnMtc2VyaWY7Zm9udC1zdHlsZTpub3JtYWw7Zm9udC13ZWlnaHQ6NzAwIiBmb250LXNpemU9IjEyLjgiPjx0c3BhbiBpZD0idHNwYW4yMjAiIHk9Ii05NS43NSIgeD0iMjM3Ii8+PC90ZXh0PiYjeGE7ICAgIDx0ZXh0IGlkPSJ0ZXh0MjI2IiB5PSIxNjYuMjEzIiB4PSI3MzEuNTQyIiBzdHlsZT0iZmlsbDogIzFlOTBmZjsgZmlsbC1vcGFjaXR5OiAxOyBzdHJva2U6IG5vbmU7dGV4dC1hbmNob3I6c3RhcnQ7Zm9udC1mYW1pbHk6c2Fucy1zZXJpZjtmb250LXN0eWxlOm5vcm1hbDtmb250LXdlaWdodDo3MDAiIGZvbnQtc2l6ZT0iMTIuOCI+PHRzcGFuIGlkPSJ0c3BhbjIyNCIgeT0iMTY2LjIxMyIgeD0iNzMxLjU0MiI+Q29udGV4dG88L3RzcGFuPjwvdGV4dD4mI3hhOyAgICA8ZyBpZD0iZzIzMiI+JiN4YTsgICAgICA8bGluZSBpZD0ibGluZTIyOCIgeTI9IjE0MS42MzciIHgyPSI5NTYuMTM2IiB5MT0iMTgwLjUyMyIgeDE9IjkzMS4xNDQiIHN0eWxlPSJmaWxsOiBub25lOyBzdHJva2Utb3BhY2l0eTogMTsgc3Ryb2tlLXdpZHRoOiAyOyBzdHJva2U6ICMxZTkwZmYiLz4mI3hhOyAgICAgIDxwb2x5bGluZSBpZD0icG9seWxpbmUyMzAiIHBvaW50cz0iOTU2LjE0NSwxNTAuODcyIDk1Ny4zNDUsMTM5Ljc1NiA5NDcuNzMyLDE0NS40NjUiIHN0eWxlPSJmaWxsOiBub25lOyBzdHJva2Utb3BhY2l0eTogMTsgc3Ryb2tlLXdpZHRoOiAyOyBzdHJva2U6ICMxZTkwZmYiLz4mI3hhOyAgICA8L2c+JiN4YTsgIDwvZz4mI3hhOzwvc3ZnPg==;" vertex="1" parent="1">
          <mxGeometry x="130" y="425" width="745.45" height="410" as="geometry" />
        </mxCell>
        <mxCell id="KKPNqsH0oOLvjZzzXBHj-2" style="edgeStyle=orthogonalEdgeStyle;rounded=0;orthogonalLoop=1;jettySize=auto;html=1;exitX=0.5;exitY=1;exitDx=0;exitDy=0;entryX=0.5;entryY=0;entryDx=0;entryDy=0;endArrow=none;endFill=0;" edge="1" parent="1" source="KKPNqsH0oOLvjZzzXBHj-7" target="KKPNqsH0oOLvjZzzXBHj-20">
          <mxGeometry relative="1" as="geometry" />
        </mxCell>
        <mxCell id="KKPNqsH0oOLvjZzzXBHj-3" style="edgeStyle=orthogonalEdgeStyle;rounded=0;orthogonalLoop=1;jettySize=auto;html=1;exitX=1;exitY=0.5;exitDx=0;exitDy=0;entryX=0;entryY=0.5;entryDx=0;entryDy=0;" edge="1" parent="1" source="KKPNqsH0oOLvjZzzXBHj-7" target="KKPNqsH0oOLvjZzzXBHj-11">
          <mxGeometry relative="1" as="geometry" />
        </mxCell>
        <mxCell id="KKPNqsH0oOLvjZzzXBHj-4" value="Genera nuevas&lt;br&gt;herramientas&lt;br&gt;tecnológicas" style="edgeLabel;html=1;align=center;verticalAlign=middle;resizable=0;points=[];" vertex="1" connectable="0" parent="KKPNqsH0oOLvjZzzXBHj-3">
          <mxGeometry x="-0.04" y="-3" relative="1" as="geometry">
            <mxPoint as="offset" />
          </mxGeometry>
        </mxCell>
        <mxCell id="KKPNqsH0oOLvjZzzXBHj-5" style="edgeStyle=orthogonalEdgeStyle;rounded=0;orthogonalLoop=1;jettySize=auto;html=1;exitX=0.5;exitY=0;exitDx=0;exitDy=0;entryX=1;entryY=0;entryDx=0;entryDy=0;" edge="1" parent="1" source="KKPNqsH0oOLvjZzzXBHj-7" target="KKPNqsH0oOLvjZzzXBHj-17">
          <mxGeometry relative="1" as="geometry">
            <Array as="points">
              <mxPoint x="100" y="30" />
              <mxPoint x="662" y="30" />
            </Array>
          </mxGeometry>
        </mxCell>
        <mxCell id="KKPNqsH0oOLvjZzzXBHj-6" value="Puede alfabetiza a la sociedad sobre&lt;br&gt;nuevos conocimientos" style="edgeLabel;html=1;align=center;verticalAlign=middle;resizable=0;points=[];" vertex="1" connectable="0" parent="KKPNqsH0oOLvjZzzXBHj-5">
          <mxGeometry x="-0.0254" y="-1" relative="1" as="geometry">
            <mxPoint as="offset" />
          </mxGeometry>
        </mxCell>
        <mxCell id="KKPNqsH0oOLvjZzzXBHj-7" value="Ciencia" style="ellipse;whiteSpace=wrap;html=1;" vertex="1" parent="1">
          <mxGeometry x="40" y="120" width="120" height="80" as="geometry" />
        </mxCell>
        <mxCell id="KKPNqsH0oOLvjZzzXBHj-8" style="edgeStyle=orthogonalEdgeStyle;rounded=0;orthogonalLoop=1;jettySize=auto;html=1;exitX=0.5;exitY=1;exitDx=0;exitDy=0;entryX=0.5;entryY=0;entryDx=0;entryDy=0;endArrow=none;endFill=0;" edge="1" parent="1" source="KKPNqsH0oOLvjZzzXBHj-11" target="KKPNqsH0oOLvjZzzXBHj-19">
          <mxGeometry relative="1" as="geometry" />
        </mxCell>
        <mxCell id="KKPNqsH0oOLvjZzzXBHj-9" style="edgeStyle=orthogonalEdgeStyle;rounded=0;orthogonalLoop=1;jettySize=auto;html=1;exitX=1;exitY=1;exitDx=0;exitDy=0;entryX=0;entryY=1;entryDx=0;entryDy=0;" edge="1" parent="1" source="KKPNqsH0oOLvjZzzXBHj-11" target="KKPNqsH0oOLvjZzzXBHj-17">
          <mxGeometry relative="1" as="geometry" />
        </mxCell>
        <mxCell id="KKPNqsH0oOLvjZzzXBHj-10" value="Trasforma la manera&lt;br&gt;de actuar frente al&lt;br&gt;entorno" style="edgeLabel;html=1;align=center;verticalAlign=middle;resizable=0;points=[];" vertex="1" connectable="0" parent="KKPNqsH0oOLvjZzzXBHj-9">
          <mxGeometry x="-0.0121" y="-2" relative="1" as="geometry">
            <mxPoint as="offset" />
          </mxGeometry>
        </mxCell>
        <mxCell id="KKPNqsH0oOLvjZzzXBHj-11" value="Tecnología" style="ellipse;whiteSpace=wrap;html=1;" vertex="1" parent="1">
          <mxGeometry x="310" y="120" width="120" height="80" as="geometry" />
        </mxCell>
        <mxCell id="KKPNqsH0oOLvjZzzXBHj-12" style="edgeStyle=orthogonalEdgeStyle;rounded=0;orthogonalLoop=1;jettySize=auto;html=1;exitX=0.5;exitY=1;exitDx=0;exitDy=0;entryX=0.5;entryY=0;entryDx=0;entryDy=0;endArrow=none;endFill=0;" edge="1" parent="1" source="KKPNqsH0oOLvjZzzXBHj-17" target="KKPNqsH0oOLvjZzzXBHj-18">
          <mxGeometry relative="1" as="geometry" />
        </mxCell>
        <mxCell id="KKPNqsH0oOLvjZzzXBHj-13" style="edgeStyle=orthogonalEdgeStyle;rounded=0;orthogonalLoop=1;jettySize=auto;html=1;exitX=0;exitY=0;exitDx=0;exitDy=0;entryX=1;entryY=0;entryDx=0;entryDy=0;" edge="1" parent="1" source="KKPNqsH0oOLvjZzzXBHj-17" target="KKPNqsH0oOLvjZzzXBHj-11">
          <mxGeometry relative="1" as="geometry" />
        </mxCell>
        <mxCell id="KKPNqsH0oOLvjZzzXBHj-14" value="Puede redefinir el uso de&lt;br&gt;una técnología como&lt;br&gt;también rechazarla" style="edgeLabel;html=1;align=center;verticalAlign=middle;resizable=0;points=[];" vertex="1" connectable="0" parent="KKPNqsH0oOLvjZzzXBHj-13">
          <mxGeometry x="-0.0606" relative="1" as="geometry">
            <mxPoint as="offset" />
          </mxGeometry>
        </mxCell>
        <mxCell id="KKPNqsH0oOLvjZzzXBHj-15" style="edgeStyle=orthogonalEdgeStyle;rounded=0;orthogonalLoop=1;jettySize=auto;html=1;exitX=0.5;exitY=0;exitDx=0;exitDy=0;entryX=1;entryY=0;entryDx=0;entryDy=0;" edge="1" parent="1" source="KKPNqsH0oOLvjZzzXBHj-17" target="KKPNqsH0oOLvjZzzXBHj-7">
          <mxGeometry relative="1" as="geometry">
            <Array as="points">
              <mxPoint x="620" y="80" />
              <mxPoint x="142" y="80" />
            </Array>
          </mxGeometry>
        </mxCell>
        <mxCell id="KKPNqsH0oOLvjZzzXBHj-16" value="Le da un sentido no neutro a la &lt;br&gt;investigación como también conocimiento a través&lt;br&gt;de experiecias locales" style="edgeLabel;html=1;align=center;verticalAlign=middle;resizable=0;points=[];" vertex="1" connectable="0" parent="KKPNqsH0oOLvjZzzXBHj-15">
          <mxGeometry y="1" relative="1" as="geometry">
            <mxPoint as="offset" />
          </mxGeometry>
        </mxCell>
        <mxCell id="KKPNqsH0oOLvjZzzXBHj-17" value="Sociedad" style="ellipse;whiteSpace=wrap;html=1;fontStyle=1" vertex="1" parent="1">
          <mxGeometry x="560" y="120" width="120" height="80" as="geometry" />
        </mxCell>
        <mxCell id="KKPNqsH0oOLvjZzzXBHj-18" value="* Saberes locales&lt;div&gt;* Métodos propios de adquisición de conocimiento&lt;br&gt;&lt;div&gt;* Necesidades del entorno&lt;br&gt;* Herramientas criollas&lt;br&gt;* Ética y moral&lt;br&gt;* Políticas públicas&lt;/div&gt;&lt;/div&gt;" style="rounded=1;whiteSpace=wrap;html=1;align=left;" vertex="1" parent="1">
          <mxGeometry x="535" y="240" width="170" height="110" as="geometry" />
        </mxCell>
        <mxCell id="KKPNqsH0oOLvjZzzXBHj-19" value="* Obsolescencia programada&lt;br&gt;* Obsolescencia dinámica&lt;br&gt;* Obsolescencia tecnológica" style="rounded=1;whiteSpace=wrap;html=1;align=left;" vertex="1" parent="1">
          <mxGeometry x="290" y="240" width="160" height="60" as="geometry" />
        </mxCell>
        <mxCell id="KKPNqsH0oOLvjZzzXBHj-20" value="* Método científico occidental.&lt;br&gt;* De caracter &quot;Neutro&quot;" style="rounded=1;whiteSpace=wrap;html=1;align=left;" vertex="1" parent="1">
          <mxGeometry x="40" y="240" width="120" height="60" as="geometry" />
        </mxCell>
        <mxCell id="KKPNqsH0oOLvjZzzXBHj-21" value="El conocimiento no se adquiere o se construye desde una perspectiva top down, en ese sentido, no solo la ciencia aporta a la construcción del conocimiento, es la sociedad la responsable de darle sentido siendo paso fundamental para la innovación." style="text;html=1;align=left;verticalAlign=middle;whiteSpace=wrap;rounded=0;" vertex="1" parent="1">
          <mxGeometry x="10" y="310" width="320" height="90" as="geometry" />
        </mxCell>
        <mxCell id="KKPNqsH0oOLvjZzzXBHj-22" value="&lt;h1 style=&quot;margin-top: 0px;&quot;&gt;&lt;font style=&quot;font-size: 15px;&quot;&gt;¿Cuáles son las condiciones necesarias para desarrollar experiencias de aprendizaje pertinentes?&lt;/font&gt;&lt;/h1&gt;&lt;p&gt;&lt;/p&gt;&lt;ul&gt;&lt;li&gt;&amp;nbsp; &amp;nbsp; Adaptación y contingencia del entorno para el desarrollo de actividades.&lt;/li&gt;&lt;li&gt;&amp;nbsp; &amp;nbsp; Herramientas para propiciar el auto-aprendizaje.&lt;/li&gt;&lt;li&gt;&amp;nbsp; &amp;nbsp; Transferencia tecnológica.&lt;/li&gt;&lt;li&gt;&amp;nbsp; &amp;nbsp; El conocimiento desde una experiencia vivida.&lt;/li&gt;&lt;li&gt;&lt;span style=&quot;background-color: initial;&quot;&gt;&amp;nbsp; &amp;nbsp; Compartir y/o generar nuevo conocimiento desde las actividades desarrolladas.&lt;/span&gt;&lt;/li&gt;&lt;/ul&gt;" style="text;html=1;whiteSpace=wrap;overflow=hidden;rounded=0;" vertex="1" parent="1">
          <mxGeometry x="705" y="30" width="390" height="200" as="geometry" />
        </mxCell>
      </root>
    </mxGraphModel>
  </diagram>
  <diagram id="v8Fl4ZhQhdbQ7x6BYvSI" name="diseño">
    <mxGraphModel dx="1320" dy="970" grid="1" gridSize="10" guides="1" tooltips="1" connect="1" arrows="1" fold="1" page="1" pageScale="1" pageWidth="1100" pageHeight="850" math="0" shadow="0">
      <root>
        <mxCell id="0" />
        <mxCell id="1" parent="0" />
        <mxCell id="TPeBQLi52136BxDJtOGv-1" style="edgeStyle=orthogonalEdgeStyle;rounded=0;orthogonalLoop=1;jettySize=auto;html=1;entryX=0.5;entryY=0;entryDx=0;entryDy=0;exitX=0.5;exitY=1;exitDx=0;exitDy=0;exitPerimeter=0;strokeWidth=2;" edge="1" parent="1" source="TPeBQLi52136BxDJtOGv-29" target="TPeBQLi52136BxDJtOGv-3">
          <mxGeometry relative="1" as="geometry">
            <Array as="points">
              <mxPoint x="650" y="110" />
              <mxPoint x="410" y="110" />
            </Array>
          </mxGeometry>
        </mxCell>
        <mxCell id="TPeBQLi52136BxDJtOGv-2" style="edgeStyle=orthogonalEdgeStyle;rounded=0;orthogonalLoop=1;jettySize=auto;html=1;exitX=0.5;exitY=1;exitDx=0;exitDy=0;entryX=0.5;entryY=0;entryDx=0;entryDy=0;" edge="1" parent="1" source="TPeBQLi52136BxDJtOGv-3" target="TPeBQLi52136BxDJtOGv-5">
          <mxGeometry relative="1" as="geometry" />
        </mxCell>
        <mxCell id="TPeBQLi52136BxDJtOGv-3" value="Requerimientos funcionales / no funcionales" style="rounded=1;whiteSpace=wrap;html=1;fontSize=15;fontStyle=1;strokeWidth=2;" vertex="1" parent="1">
          <mxGeometry x="315" y="140" width="190" height="55" as="geometry" />
        </mxCell>
        <mxCell id="TPeBQLi52136BxDJtOGv-4" style="edgeStyle=orthogonalEdgeStyle;rounded=0;orthogonalLoop=1;jettySize=auto;html=1;exitX=0.5;exitY=1;exitDx=0;exitDy=0;entryX=0.5;entryY=0;entryDx=0;entryDy=0;" edge="1" parent="1" source="TPeBQLi52136BxDJtOGv-5" target="TPeBQLi52136BxDJtOGv-7">
          <mxGeometry relative="1" as="geometry" />
        </mxCell>
        <mxCell id="TPeBQLi52136BxDJtOGv-5" value="Diagrama de flujo" style="rounded=1;whiteSpace=wrap;html=1;fontSize=15;fontStyle=1;strokeWidth=2;" vertex="1" parent="1">
          <mxGeometry x="350" y="223.75" width="120" height="40" as="geometry" />
        </mxCell>
        <mxCell id="TPeBQLi52136BxDJtOGv-6" style="edgeStyle=orthogonalEdgeStyle;rounded=0;orthogonalLoop=1;jettySize=auto;html=1;exitX=0.5;exitY=1;exitDx=0;exitDy=0;entryX=0.5;entryY=0;entryDx=0;entryDy=0;" edge="1" parent="1" source="TPeBQLi52136BxDJtOGv-7" target="TPeBQLi52136BxDJtOGv-11">
          <mxGeometry relative="1" as="geometry" />
        </mxCell>
        <mxCell id="TPeBQLi52136BxDJtOGv-7" value="Diagrama de Caja&lt;br style=&quot;font-size: 15px;&quot;&gt;Negra" style="rounded=1;whiteSpace=wrap;html=1;fontSize=15;fontStyle=1;strokeWidth=2;" vertex="1" parent="1">
          <mxGeometry x="350" y="310" width="120" height="60" as="geometry" />
        </mxCell>
        <mxCell id="TPeBQLi52136BxDJtOGv-8" style="edgeStyle=orthogonalEdgeStyle;rounded=0;orthogonalLoop=1;jettySize=auto;html=1;entryX=0.5;entryY=0;entryDx=0;entryDy=0;strokeWidth=2;" edge="1" parent="1" source="TPeBQLi52136BxDJtOGv-11" target="TPeBQLi52136BxDJtOGv-17">
          <mxGeometry relative="1" as="geometry" />
        </mxCell>
        <mxCell id="TPeBQLi52136BxDJtOGv-9" style="edgeStyle=orthogonalEdgeStyle;rounded=0;orthogonalLoop=1;jettySize=auto;html=1;entryX=0.5;entryY=0;entryDx=0;entryDy=0;strokeWidth=2;" edge="1" parent="1" source="TPeBQLi52136BxDJtOGv-11" target="TPeBQLi52136BxDJtOGv-21">
          <mxGeometry relative="1" as="geometry">
            <Array as="points">
              <mxPoint x="410" y="500" />
              <mxPoint x="550" y="500" />
            </Array>
          </mxGeometry>
        </mxCell>
        <mxCell id="TPeBQLi52136BxDJtOGv-10" style="edgeStyle=orthogonalEdgeStyle;rounded=0;orthogonalLoop=1;jettySize=auto;html=1;exitX=0.5;exitY=1;exitDx=0;exitDy=0;strokeWidth=2;" edge="1" parent="1" source="TPeBQLi52136BxDJtOGv-11" target="TPeBQLi52136BxDJtOGv-19">
          <mxGeometry relative="1" as="geometry">
            <Array as="points">
              <mxPoint x="410" y="500" />
              <mxPoint x="270" y="500" />
            </Array>
          </mxGeometry>
        </mxCell>
        <mxCell id="TPeBQLi52136BxDJtOGv-11" value="Diagrama tecnológico" style="rounded=1;whiteSpace=wrap;html=1;fontSize=15;fontStyle=1;strokeWidth=2;" vertex="1" parent="1">
          <mxGeometry x="350" y="410" width="120" height="60" as="geometry" />
        </mxCell>
        <mxCell id="TPeBQLi52136BxDJtOGv-12" style="edgeStyle=orthogonalEdgeStyle;rounded=0;orthogonalLoop=1;jettySize=auto;html=1;entryX=0;entryY=0.5;entryDx=0;entryDy=0;exitX=0;exitY=0.5;exitDx=0;exitDy=0;strokeWidth=2;" edge="1" parent="1" source="TPeBQLi52136BxDJtOGv-15" target="TPeBQLi52136BxDJtOGv-3">
          <mxGeometry relative="1" as="geometry">
            <Array as="points">
              <mxPoint x="30" y="670" />
              <mxPoint x="30" y="168" />
            </Array>
            <mxPoint x="350" y="660" as="sourcePoint" />
            <mxPoint x="280" y="190" as="targetPoint" />
          </mxGeometry>
        </mxCell>
        <mxCell id="TPeBQLi52136BxDJtOGv-13" value="Nueva iteración del proceso" style="edgeLabel;html=1;align=center;verticalAlign=middle;resizable=0;points=[];fontStyle=1;fontSize=15;" vertex="1" connectable="0" parent="TPeBQLi52136BxDJtOGv-12">
          <mxGeometry x="-0.8" y="3" relative="1" as="geometry">
            <mxPoint x="-82" y="-3" as="offset" />
          </mxGeometry>
        </mxCell>
        <mxCell id="TPeBQLi52136BxDJtOGv-14" style="edgeStyle=orthogonalEdgeStyle;rounded=0;orthogonalLoop=1;jettySize=auto;html=1;exitX=0.5;exitY=1;exitDx=0;exitDy=0;entryX=0.5;entryY=0;entryDx=0;entryDy=0;entryPerimeter=0;strokeWidth=2;" edge="1" parent="1" source="TPeBQLi52136BxDJtOGv-15" target="TPeBQLi52136BxDJtOGv-28">
          <mxGeometry relative="1" as="geometry">
            <mxPoint x="410" y="740" as="targetPoint" />
          </mxGeometry>
        </mxCell>
        <mxCell id="TPeBQLi52136BxDJtOGv-15" value="Evaluar los requerimientos" style="rounded=1;whiteSpace=wrap;html=1;fontSize=15;fontStyle=1;strokeWidth=2;" vertex="1" parent="1">
          <mxGeometry x="350" y="640" width="120" height="60" as="geometry" />
        </mxCell>
        <mxCell id="TPeBQLi52136BxDJtOGv-16" style="edgeStyle=orthogonalEdgeStyle;rounded=0;orthogonalLoop=1;jettySize=auto;html=1;entryX=0.5;entryY=0;entryDx=0;entryDy=0;strokeWidth=2;" edge="1" parent="1" source="TPeBQLi52136BxDJtOGv-17" target="TPeBQLi52136BxDJtOGv-15">
          <mxGeometry relative="1" as="geometry" />
        </mxCell>
        <mxCell id="TPeBQLi52136BxDJtOGv-17" value="Hardware" style="rounded=1;whiteSpace=wrap;html=1;fillColor=#f8cecc;strokeColor=#b85450;fontSize=15;fontStyle=1;strokeWidth=2;" vertex="1" parent="1">
          <mxGeometry x="350" y="530" width="120" height="60" as="geometry" />
        </mxCell>
        <mxCell id="TPeBQLi52136BxDJtOGv-18" style="edgeStyle=orthogonalEdgeStyle;rounded=0;orthogonalLoop=1;jettySize=auto;html=1;exitX=0.5;exitY=1;exitDx=0;exitDy=0;entryX=0.5;entryY=0;entryDx=0;entryDy=0;strokeWidth=2;" edge="1" parent="1" source="TPeBQLi52136BxDJtOGv-19" target="TPeBQLi52136BxDJtOGv-15">
          <mxGeometry relative="1" as="geometry">
            <Array as="points">
              <mxPoint x="270" y="620" />
              <mxPoint x="410" y="620" />
            </Array>
          </mxGeometry>
        </mxCell>
        <mxCell id="TPeBQLi52136BxDJtOGv-19" value="Case&lt;div style=&quot;font-size: 15px;&quot;&gt;Contenedor&lt;/div&gt;" style="rounded=1;whiteSpace=wrap;html=1;fillColor=#e1d5e7;strokeColor=#9673a6;fontSize=15;fontStyle=1;strokeWidth=2;" vertex="1" parent="1">
          <mxGeometry x="210" y="530" width="120" height="60" as="geometry" />
        </mxCell>
        <mxCell id="TPeBQLi52136BxDJtOGv-20" style="edgeStyle=orthogonalEdgeStyle;rounded=0;orthogonalLoop=1;jettySize=auto;html=1;entryX=0.5;entryY=0;entryDx=0;entryDy=0;strokeWidth=2;" edge="1" parent="1" source="TPeBQLi52136BxDJtOGv-21" target="TPeBQLi52136BxDJtOGv-15">
          <mxGeometry relative="1" as="geometry">
            <Array as="points">
              <mxPoint x="550" y="620" />
              <mxPoint x="410" y="620" />
            </Array>
          </mxGeometry>
        </mxCell>
        <mxCell id="TPeBQLi52136BxDJtOGv-21" value="Software" style="rounded=1;whiteSpace=wrap;html=1;fillColor=#fff2cc;strokeColor=#d6b656;fontSize=15;fontStyle=1;strokeWidth=2;" vertex="1" parent="1">
          <mxGeometry x="490" y="530" width="120" height="60" as="geometry" />
        </mxCell>
        <mxCell id="TPeBQLi52136BxDJtOGv-22" value="Creación de tareas de software que se ajsuten a los requerimientos como a la experiencia de usuario.&lt;div&gt;&lt;br&gt;- Prioridad: baja&lt;div&gt;- Flexibilidad: alta&lt;/div&gt;&lt;div&gt;&lt;span style=&quot;background-color: initial;&quot;&gt;- Software embebido: Micropython&lt;/span&gt;&lt;br&gt;&lt;/div&gt;&lt;div&gt;- Software HMI: JS, HTML, Appinventor, Nodered, Python, entre otros.&lt;/div&gt;&lt;/div&gt;" style="whiteSpace=wrap;html=1;shape=mxgraph.basic.document;align=left;dashed=1;fillColor=#fff2cc;strokeColor=#d6b656;" vertex="1" parent="1">
          <mxGeometry x="640" y="570" width="210" height="146.25" as="geometry" />
        </mxCell>
        <mxCell id="TPeBQLi52136BxDJtOGv-23" value="" style="endArrow=classic;html=1;rounded=0;dashed=1;" edge="1" parent="1" source="TPeBQLi52136BxDJtOGv-22" target="TPeBQLi52136BxDJtOGv-21">
          <mxGeometry width="50" height="50" relative="1" as="geometry">
            <mxPoint x="330" y="510" as="sourcePoint" />
            <mxPoint x="380" y="460" as="targetPoint" />
          </mxGeometry>
        </mxCell>
        <mxCell id="TPeBQLi52136BxDJtOGv-24" value="Fabricación de la parte estructural del proyecto, la cual responda a la experiencia de usuario en función de los requerimientos.&lt;div&gt;&lt;br&gt;- Prioridad: Alta&lt;br&gt;- Flexibilidad: Baja&lt;br&gt;- Herramientas: Corte láser, impresión 3D, librerías libres.&lt;br&gt;- Software: LibreCAD, FreeCAD, entre otros.&lt;/div&gt;" style="whiteSpace=wrap;html=1;shape=mxgraph.basic.document;align=left;dashed=1;fillColor=#e1d5e7;strokeColor=#9673a6;" vertex="1" parent="1">
          <mxGeometry x="40" y="350" width="220" height="160" as="geometry" />
        </mxCell>
        <mxCell id="TPeBQLi52136BxDJtOGv-25" value="" style="endArrow=classic;html=1;rounded=0;dashed=1;" edge="1" parent="1" source="TPeBQLi52136BxDJtOGv-24" target="TPeBQLi52136BxDJtOGv-19">
          <mxGeometry width="50" height="50" relative="1" as="geometry">
            <mxPoint x="330" y="510" as="sourcePoint" />
            <mxPoint x="380" y="460" as="targetPoint" />
          </mxGeometry>
        </mxCell>
        <mxCell id="TPeBQLi52136BxDJtOGv-26" value="&lt;div&gt;Creación de un circuito impreso PCB ajustado a la medida de las necesidades funcionales.&lt;/div&gt;&lt;div&gt;&lt;br&gt;&lt;/div&gt;- Prioridad: Media&lt;br&gt;- Flexibilidad: Media&lt;br&gt;- Herramientas: KiCAD, Fritzing, CircuitJS, Qucs, Kits de laboratorio de electrónica." style="whiteSpace=wrap;html=1;shape=mxgraph.basic.document;align=left;dashed=1;fillColor=#f8cecc;strokeColor=#b85450;" vertex="1" parent="1">
          <mxGeometry x="90" y="222.5" width="240" height="122.5" as="geometry" />
        </mxCell>
        <mxCell id="TPeBQLi52136BxDJtOGv-27" value="" style="endArrow=classic;html=1;rounded=0;dashed=1;" edge="1" parent="1" source="TPeBQLi52136BxDJtOGv-26" target="TPeBQLi52136BxDJtOGv-17">
          <mxGeometry width="50" height="50" relative="1" as="geometry">
            <mxPoint x="700" y="532" as="sourcePoint" />
            <mxPoint x="660" y="547" as="targetPoint" />
          </mxGeometry>
        </mxCell>
        <mxCell id="TPeBQLi52136BxDJtOGv-28" value="Prototipo&lt;br style=&quot;font-size: 15px;&quot;&gt;Finalizado" style="strokeWidth=2;html=1;shape=mxgraph.flowchart.terminator;whiteSpace=wrap;fontStyle=1;fontSize=15;" vertex="1" parent="1">
          <mxGeometry x="590" y="760" width="100" height="60" as="geometry" />
        </mxCell>
        <mxCell id="TPeBQLi52136BxDJtOGv-29" value="Inicio de&lt;div&gt;Prototipo&lt;br&gt;&lt;/div&gt;" style="strokeWidth=2;html=1;shape=mxgraph.flowchart.terminator;whiteSpace=wrap;fontStyle=1;fontSize=15;" vertex="1" parent="1">
          <mxGeometry x="600" y="30" width="100" height="60" as="geometry" />
        </mxCell>
        <mxCell id="TPeBQLi52136BxDJtOGv-30" value="&lt;div&gt;&lt;span style=&quot;background-color: initial;&quot;&gt;Objetivos a alcanzar en función de la situación abordada en contexto&lt;/span&gt;&lt;span style=&quot;background-color: initial;&quot;&gt;.&lt;/span&gt;&lt;/div&gt;&lt;div&gt;&lt;span style=&quot;background-color: initial;&quot;&gt;- Producto mínimo viable&lt;/span&gt;&lt;br&gt;&lt;/div&gt;&lt;div&gt;- The business model canvas&lt;/div&gt;" style="whiteSpace=wrap;html=1;shape=mxgraph.basic.document;align=left;dashed=1;" vertex="1" parent="1">
          <mxGeometry x="535" y="120" width="190" height="69.37" as="geometry" />
        </mxCell>
        <mxCell id="TPeBQLi52136BxDJtOGv-31" value="" style="endArrow=classic;html=1;rounded=0;dashed=1;" edge="1" parent="1" source="TPeBQLi52136BxDJtOGv-30" target="TPeBQLi52136BxDJtOGv-3">
          <mxGeometry width="50" height="50" relative="1" as="geometry">
            <mxPoint x="700" y="611" as="sourcePoint" />
            <mxPoint x="660" y="594" as="targetPoint" />
          </mxGeometry>
        </mxCell>
        <mxCell id="TPeBQLi52136BxDJtOGv-32" value="Diagramas DFD, de niveles contextuales, de alto nivel (abstractos), donde se comprende cómo el usuario interactúa con el producto." style="whiteSpace=wrap;html=1;shape=mxgraph.basic.document;align=left;dashed=1;" vertex="1" parent="1">
          <mxGeometry x="535" y="210" width="220" height="67.5" as="geometry" />
        </mxCell>
        <mxCell id="TPeBQLi52136BxDJtOGv-33" value="" style="endArrow=classic;html=1;rounded=0;dashed=1;" edge="1" parent="1" source="TPeBQLi52136BxDJtOGv-32" target="TPeBQLi52136BxDJtOGv-5">
          <mxGeometry width="50" height="50" relative="1" as="geometry">
            <mxPoint x="560" y="202" as="sourcePoint" />
            <mxPoint x="515" y="203" as="targetPoint" />
          </mxGeometry>
        </mxCell>
        <mxCell id="TPeBQLi52136BxDJtOGv-34" value="El dispositivo a diseñar es representado como una caja negra donde se reconocen, los recursos, los temas asociados a energía y flujo de la información (entradas, salidas, medios). En este punto no se define una tecnología." style="whiteSpace=wrap;html=1;shape=mxgraph.basic.document;align=left;dashed=1;" vertex="1" parent="1">
          <mxGeometry x="535" y="290" width="230" height="100" as="geometry" />
        </mxCell>
        <mxCell id="TPeBQLi52136BxDJtOGv-35" value="" style="endArrow=classic;html=1;rounded=0;dashed=1;entryX=1;entryY=0.5;entryDx=0;entryDy=0;" edge="1" parent="1" source="TPeBQLi52136BxDJtOGv-34" target="TPeBQLi52136BxDJtOGv-7">
          <mxGeometry width="50" height="50" relative="1" as="geometry">
            <mxPoint x="550" y="266" as="sourcePoint" />
            <mxPoint x="480" y="273" as="targetPoint" />
          </mxGeometry>
        </mxCell>
        <mxCell id="TPeBQLi52136BxDJtOGv-36" value="Selección de la tecnología de los diferentes componentes a usar (sensores, actuadores, controladores, protocolos) en función de costo-beneficio, datasheets, mercado, facilidad de adquisición." style="whiteSpace=wrap;html=1;shape=mxgraph.basic.document;align=left;dashed=1;" vertex="1" parent="1">
          <mxGeometry x="535" y="400" width="220" height="90" as="geometry" />
        </mxCell>
        <mxCell id="TPeBQLi52136BxDJtOGv-37" value="" style="endArrow=classic;html=1;rounded=0;dashed=1;" edge="1" parent="1" source="TPeBQLi52136BxDJtOGv-36" target="TPeBQLi52136BxDJtOGv-11">
          <mxGeometry width="50" height="50" relative="1" as="geometry">
            <mxPoint x="550" y="365" as="sourcePoint" />
            <mxPoint x="480" y="370" as="targetPoint" />
          </mxGeometry>
        </mxCell>
        <mxCell id="TPeBQLi52136BxDJtOGv-38" value="&lt;div style=&quot;&quot;&gt;&lt;b style=&quot;font-size: 15px; text-wrap: nowrap; background-color: initial;&quot;&gt;PROCESO DE DOCUMENTACIÓN&lt;/b&gt;&lt;/div&gt;&lt;div style=&quot;&quot;&gt;&lt;span style=&quot;font-size: 15px; text-wrap: nowrap;&quot;&gt;&lt;br&gt;&lt;/span&gt;&lt;/div&gt;&lt;span style=&quot;text-wrap: nowrap; font-size: 13px;&quot;&gt;&lt;font style=&quot;font-size: 13px;&quot;&gt;&lt;div style=&quot;&quot;&gt;&lt;span style=&quot;background-color: initial;&quot;&gt;Este proceso consiste en &lt;/span&gt;&lt;span style=&quot;background-color: initial;&quot;&gt;documentar&lt;/span&gt;&lt;/div&gt;&lt;div style=&quot;&quot;&gt;&lt;span style=&quot;background-color: initial;&quot;&gt;las fases de diseño &lt;/span&gt;&lt;span style=&quot;background-color: initial;&quot;&gt;e implementación del&amp;nbsp;&lt;/span&gt;&lt;/div&gt;&lt;div style=&quot;&quot;&gt;&lt;span style=&quot;background-color: initial;&quot;&gt;proyecto.&lt;/span&gt;&lt;/div&gt;&lt;/font&gt;&lt;/span&gt;&lt;div style=&quot;text-wrap: nowrap; font-size: 13px;&quot;&gt;&lt;font style=&quot;font-size: 13px;&quot;&gt;Los aprendizajes obtenidos a través de los&lt;/font&gt;&lt;/div&gt;&lt;div style=&quot;text-wrap: nowrap; font-size: 13px;&quot;&gt;&lt;font style=&quot;font-size: 13px;&quot;&gt;aciertos, desaciertos y descubrimientos.&lt;/font&gt;&lt;/div&gt;&lt;div style=&quot;text-wrap: nowrap; font-size: 13px;&quot;&gt;&lt;font style=&quot;font-size: 13px;&quot;&gt;&lt;br&gt;&lt;/font&gt;&lt;/div&gt;&lt;div style=&quot;text-wrap: nowrap; font-size: 13px;&quot;&gt;&lt;font style=&quot;font-size: 13px;&quot;&gt;Esta documentación se realiza&amp;nbsp; en una&lt;/font&gt;&lt;/div&gt;&lt;div style=&quot;text-wrap: nowrap; font-size: 13px;&quot;&gt;&lt;font style=&quot;font-size: 13px;&quot;&gt;herramienta de gestión de proyectos (git)&lt;/font&gt;&lt;/div&gt;&lt;div style=&quot;text-wrap: nowrap; font-size: 13px;&quot;&gt;&lt;font style=&quot;font-size: 13px;&quot;&gt;donde se aloja:&lt;/font&gt;&lt;/div&gt;&lt;div style=&quot;text-wrap: nowrap; font-size: 13px;&quot;&gt;&lt;ul style=&quot;&quot;&gt;&lt;li style=&quot;&quot;&gt;&lt;font style=&quot;font-size: 13px;&quot;&gt;&lt;span style=&quot;background-color: initial;&quot;&gt;Archivos fuentes&lt;/span&gt;&lt;br&gt;&lt;/font&gt;&lt;/li&gt;&lt;li style=&quot;&quot;&gt;&lt;font style=&quot;font-size: 13px;&quot;&gt;Wiki del proyecto&lt;/font&gt;&lt;/li&gt;&lt;li style=&quot;&quot;&gt;&lt;font style=&quot;font-size: 13px;&quot;&gt;Vídeo&lt;/font&gt;&lt;/li&gt;&lt;li style=&quot;&quot;&gt;&lt;font style=&quot;font-size: 13px;&quot;&gt;Póster&lt;/font&gt;&lt;/li&gt;&lt;/ul&gt;&lt;/div&gt;" style="html=1;shape=mxgraph.basic.document;align=left;whiteSpace=wrap;fillColor=#dae8fc;strokeColor=#6c8ebf;" vertex="1" parent="1">
          <mxGeometry x="790" y="210" width="255" height="300" as="geometry" />
        </mxCell>
        <mxCell id="TPeBQLi52136BxDJtOGv-39" style="edgeStyle=orthogonalEdgeStyle;rounded=0;orthogonalLoop=1;jettySize=auto;html=1;entryX=0.5;entryY=0;entryDx=0;entryDy=0;entryPerimeter=0;strokeWidth=2;" edge="1" parent="1" source="TPeBQLi52136BxDJtOGv-38" target="TPeBQLi52136BxDJtOGv-28">
          <mxGeometry relative="1" as="geometry">
            <Array as="points">
              <mxPoint x="900" y="730" />
              <mxPoint x="640" y="730" />
            </Array>
          </mxGeometry>
        </mxCell>
        <mxCell id="TPeBQLi52136BxDJtOGv-40" style="edgeStyle=orthogonalEdgeStyle;rounded=0;orthogonalLoop=1;jettySize=auto;html=1;exitX=0.5;exitY=1;exitDx=0;exitDy=0;exitPerimeter=0;entryX=0.5;entryY=0;entryDx=0;entryDy=0;entryPerimeter=0;strokeWidth=2;" edge="1" parent="1" source="TPeBQLi52136BxDJtOGv-29" target="TPeBQLi52136BxDJtOGv-38">
          <mxGeometry relative="1" as="geometry">
            <Array as="points">
              <mxPoint x="650" y="110" />
              <mxPoint x="918" y="110" />
            </Array>
          </mxGeometry>
        </mxCell>
      </root>
    </mxGraphModel>
  </diagram>
  <diagram id="YJVODHlK1g8uHRt-yAmJ" name="fases-implementacion">
    <mxGraphModel dx="1320" dy="970" grid="1" gridSize="10" guides="1" tooltips="1" connect="1" arrows="1" fold="1" page="1" pageScale="1" pageWidth="1100" pageHeight="850" math="0" shadow="0">
      <root>
        <mxCell id="0" />
        <mxCell id="1" parent="0" />
        <mxCell id="wSHC-vbHyu29C94zfDi1-1" style="edgeStyle=orthogonalEdgeStyle;rounded=0;orthogonalLoop=1;jettySize=auto;html=1;exitX=1;exitY=0.5;exitDx=0;exitDy=0;entryX=0;entryY=0.5;entryDx=0;entryDy=0;fontSize=12;fontStyle=1" edge="1" parent="1" source="wSHC-vbHyu29C94zfDi1-2" target="wSHC-vbHyu29C94zfDi1-26">
          <mxGeometry relative="1" as="geometry">
            <Array as="points">
              <mxPoint x="1060" y="95" />
              <mxPoint x="1060" y="155" />
            </Array>
          </mxGeometry>
        </mxCell>
        <mxCell id="wSHC-vbHyu29C94zfDi1-2" value="Experiencia&amp;nbsp; de usuario" style="rounded=1;whiteSpace=wrap;html=1;fillColor=none;strokeColor=#d79b00;verticalAlign=top;fontSize=12;fontStyle=1" vertex="1" parent="1">
          <mxGeometry x="440" y="40" width="600" height="110" as="geometry" />
        </mxCell>
        <mxCell id="wSHC-vbHyu29C94zfDi1-3" style="edgeStyle=orthogonalEdgeStyle;rounded=0;orthogonalLoop=1;jettySize=auto;html=1;exitX=1;exitY=0.5;exitDx=0;exitDy=0;entryX=0;entryY=0.5;entryDx=0;entryDy=0;fontSize=12;fontStyle=1" edge="1" parent="1" source="wSHC-vbHyu29C94zfDi1-4" target="wSHC-vbHyu29C94zfDi1-23">
          <mxGeometry relative="1" as="geometry" />
        </mxCell>
        <mxCell id="wSHC-vbHyu29C94zfDi1-4" value="Fabricación&lt;br style=&quot;font-size: 12px;&quot;&gt;de&lt;br style=&quot;font-size: 12px;&quot;&gt;PCB" style="rounded=1;whiteSpace=wrap;html=1;fillColor=#f5f5f5;strokeColor=#FF3333;fontColor=#FF3333;fontSize=12;fontStyle=1" vertex="1" parent="1">
          <mxGeometry x="595" y="330" width="100" height="60" as="geometry" />
        </mxCell>
        <mxCell id="wSHC-vbHyu29C94zfDi1-5" style="edgeStyle=orthogonalEdgeStyle;rounded=0;orthogonalLoop=1;jettySize=auto;html=1;exitX=1;exitY=0.5;exitDx=0;exitDy=0;entryX=0;entryY=0.5;entryDx=0;entryDy=0;fontSize=12;fontStyle=1" edge="1" parent="1" source="wSHC-vbHyu29C94zfDi1-6" target="wSHC-vbHyu29C94zfDi1-8">
          <mxGeometry relative="1" as="geometry" />
        </mxCell>
        <mxCell id="wSHC-vbHyu29C94zfDi1-6" value="Creación de&lt;br style=&quot;font-size: 12px;&quot;&gt;Esquemáticos" style="rounded=1;whiteSpace=wrap;html=1;fillColor=#f8cecc;strokeColor=#b85450;fontSize=12;fontStyle=1" vertex="1" parent="1">
          <mxGeometry x="320" y="330" width="100" height="60" as="geometry" />
        </mxCell>
        <mxCell id="wSHC-vbHyu29C94zfDi1-7" style="edgeStyle=orthogonalEdgeStyle;rounded=0;orthogonalLoop=1;jettySize=auto;html=1;exitX=1;exitY=0.5;exitDx=0;exitDy=0;entryX=0;entryY=0.5;entryDx=0;entryDy=0;fontSize=12;fontStyle=1" edge="1" parent="1" source="wSHC-vbHyu29C94zfDi1-8" target="wSHC-vbHyu29C94zfDi1-4">
          <mxGeometry relative="1" as="geometry" />
        </mxCell>
        <mxCell id="wSHC-vbHyu29C94zfDi1-8" value="Footprint&lt;br style=&quot;font-size: 12px;&quot;&gt;y ruteo" style="rounded=1;whiteSpace=wrap;html=1;fillColor=#f8cecc;strokeColor=#b85450;fontSize=12;fontStyle=1" vertex="1" parent="1">
          <mxGeometry x="472.5" y="330" width="70" height="60" as="geometry" />
        </mxCell>
        <mxCell id="wSHC-vbHyu29C94zfDi1-9" style="edgeStyle=orthogonalEdgeStyle;rounded=0;orthogonalLoop=1;jettySize=auto;html=1;exitX=1;exitY=0.5;exitDx=0;exitDy=0;entryX=0;entryY=0.5;entryDx=0;entryDy=0;fontSize=12;fontStyle=1" edge="1" parent="1" source="wSHC-vbHyu29C94zfDi1-10" target="wSHC-vbHyu29C94zfDi1-47">
          <mxGeometry relative="1" as="geometry" />
        </mxCell>
        <mxCell id="wSHC-vbHyu29C94zfDi1-10" value="Brochure o poster" style="rounded=1;whiteSpace=wrap;html=1;fillColor=#dae8fc;strokeColor=#6c8ebf;fontSize=12;fontStyle=1" vertex="1" parent="1">
          <mxGeometry x="1110" y="510" width="80" height="40" as="geometry" />
        </mxCell>
        <mxCell id="wSHC-vbHyu29C94zfDi1-11" style="edgeStyle=orthogonalEdgeStyle;rounded=0;orthogonalLoop=1;jettySize=auto;html=1;exitX=1;exitY=0.5;exitDx=0;exitDy=0;entryX=0;entryY=0.5;entryDx=0;entryDy=0;fontSize=12;fontStyle=1" edge="1" parent="1" source="wSHC-vbHyu29C94zfDi1-15" target="wSHC-vbHyu29C94zfDi1-6">
          <mxGeometry relative="1" as="geometry" />
        </mxCell>
        <mxCell id="wSHC-vbHyu29C94zfDi1-12" style="edgeStyle=orthogonalEdgeStyle;rounded=0;orthogonalLoop=1;jettySize=auto;html=1;exitX=1;exitY=0.5;exitDx=0;exitDy=0;entryX=0;entryY=0.5;entryDx=0;entryDy=0;fontSize=12;fontStyle=1" edge="1" parent="1" source="wSHC-vbHyu29C94zfDi1-15" target="wSHC-vbHyu29C94zfDi1-17">
          <mxGeometry relative="1" as="geometry">
            <Array as="points">
              <mxPoint x="260" y="360" />
              <mxPoint x="260" y="250" />
            </Array>
          </mxGeometry>
        </mxCell>
        <mxCell id="wSHC-vbHyu29C94zfDi1-13" style="edgeStyle=orthogonalEdgeStyle;rounded=0;orthogonalLoop=1;jettySize=auto;html=1;exitX=1;exitY=0.5;exitDx=0;exitDy=0;entryX=0;entryY=0.5;entryDx=0;entryDy=0;fontSize=12;fontStyle=1" edge="1" parent="1" source="wSHC-vbHyu29C94zfDi1-15" target="wSHC-vbHyu29C94zfDi1-28">
          <mxGeometry relative="1" as="geometry">
            <Array as="points">
              <mxPoint x="260" y="360" />
              <mxPoint x="260" y="490" />
            </Array>
          </mxGeometry>
        </mxCell>
        <mxCell id="wSHC-vbHyu29C94zfDi1-14" style="edgeStyle=orthogonalEdgeStyle;rounded=0;orthogonalLoop=1;jettySize=auto;html=1;exitX=1;exitY=0.5;exitDx=0;exitDy=0;entryX=0;entryY=0.5;entryDx=0;entryDy=0;fontSize=12;fontStyle=1" edge="1" parent="1" source="wSHC-vbHyu29C94zfDi1-15" target="wSHC-vbHyu29C94zfDi1-2">
          <mxGeometry relative="1" as="geometry">
            <Array as="points">
              <mxPoint x="260" y="360" />
              <mxPoint x="260" y="95" />
            </Array>
          </mxGeometry>
        </mxCell>
        <mxCell id="wSHC-vbHyu29C94zfDi1-15" value="Ideación&lt;br style=&quot;font-size: 12px;&quot;&gt;(Artefacto)&lt;br style=&quot;font-size: 12px;&quot;&gt;Diagrama&lt;br style=&quot;font-size: 12px;&quot;&gt;de bloques" style="rounded=1;whiteSpace=wrap;html=1;fillColor=#d5e8d4;strokeColor=#82b366;fontSize=12;fontStyle=1" vertex="1" parent="1">
          <mxGeometry x="150" y="330" width="90" height="60" as="geometry" />
        </mxCell>
        <mxCell id="wSHC-vbHyu29C94zfDi1-16" style="edgeStyle=orthogonalEdgeStyle;rounded=0;orthogonalLoop=1;jettySize=auto;html=1;exitX=1;exitY=0.5;exitDx=0;exitDy=0;entryX=0;entryY=0.5;entryDx=0;entryDy=0;fontSize=12;fontStyle=1" edge="1" parent="1" source="wSHC-vbHyu29C94zfDi1-17" target="wSHC-vbHyu29C94zfDi1-19">
          <mxGeometry relative="1" as="geometry" />
        </mxCell>
        <mxCell id="wSHC-vbHyu29C94zfDi1-17" value="Diseño de Caja" style="rounded=1;whiteSpace=wrap;html=1;fillColor=#e1d5e7;strokeColor=#9673a6;fontSize=12;fontStyle=1" vertex="1" parent="1">
          <mxGeometry x="505" y="220" width="120" height="60" as="geometry" />
        </mxCell>
        <mxCell id="wSHC-vbHyu29C94zfDi1-18" style="edgeStyle=orthogonalEdgeStyle;rounded=0;orthogonalLoop=1;jettySize=auto;html=1;exitX=1;exitY=0.5;exitDx=0;exitDy=0;entryX=0;entryY=0.5;entryDx=0;entryDy=0;fontSize=12;fontStyle=1" edge="1" parent="1" source="wSHC-vbHyu29C94zfDi1-19" target="wSHC-vbHyu29C94zfDi1-21">
          <mxGeometry relative="1" as="geometry" />
        </mxCell>
        <mxCell id="wSHC-vbHyu29C94zfDi1-19" value="Fabricación" style="rounded=1;whiteSpace=wrap;html=1;fillColor=#e1d5e7;strokeColor=#9673a6;fontSize=12;fontStyle=1" vertex="1" parent="1">
          <mxGeometry x="680" y="220" width="120" height="60" as="geometry" />
        </mxCell>
        <mxCell id="wSHC-vbHyu29C94zfDi1-20" style="edgeStyle=orthogonalEdgeStyle;rounded=0;orthogonalLoop=1;jettySize=auto;html=1;exitX=0.5;exitY=0;exitDx=0;exitDy=0;entryX=0;entryY=0.5;entryDx=0;entryDy=0;fontSize=12;fontStyle=1" edge="1" parent="1" source="wSHC-vbHyu29C94zfDi1-21" target="wSHC-vbHyu29C94zfDi1-26">
          <mxGeometry relative="1" as="geometry">
            <mxPoint x="1170" y="250" as="targetPoint" />
          </mxGeometry>
        </mxCell>
        <mxCell id="wSHC-vbHyu29C94zfDi1-21" value="Montaje" style="rounded=1;whiteSpace=wrap;html=1;fillColor=#e1d5e7;strokeColor=#9673a6;fontSize=12;fontStyle=1" vertex="1" parent="1">
          <mxGeometry x="1000" y="220" width="120" height="60" as="geometry" />
        </mxCell>
        <mxCell id="wSHC-vbHyu29C94zfDi1-22" style="edgeStyle=orthogonalEdgeStyle;rounded=0;orthogonalLoop=1;jettySize=auto;html=1;exitX=1;exitY=0.5;exitDx=0;exitDy=0;entryX=0;entryY=0.5;entryDx=0;entryDy=0;fontSize=12;fontStyle=1" edge="1" parent="1" source="wSHC-vbHyu29C94zfDi1-23" target="wSHC-vbHyu29C94zfDi1-34">
          <mxGeometry relative="1" as="geometry" />
        </mxCell>
        <mxCell id="wSHC-vbHyu29C94zfDi1-23" value="Montaje de&lt;br style=&quot;font-size: 12px;&quot;&gt;componentes&lt;br style=&quot;font-size: 12px;&quot;&gt;electricos en PCB" style="rounded=1;whiteSpace=wrap;html=1;fillColor=#f8cecc;strokeColor=#b85450;fontSize=12;fontStyle=1" vertex="1" parent="1">
          <mxGeometry x="750" y="330" width="100" height="60" as="geometry" />
        </mxCell>
        <mxCell id="wSHC-vbHyu29C94zfDi1-24" value="Documentación del proceso en GIT" style="rounded=1;whiteSpace=wrap;html=1;fillColor=#dae8fc;strokeColor=#6c8ebf;fontSize=12;fontStyle=1" vertex="1" parent="1">
          <mxGeometry x="30" y="590" width="1160" height="40" as="geometry" />
        </mxCell>
        <mxCell id="wSHC-vbHyu29C94zfDi1-25" style="edgeStyle=orthogonalEdgeStyle;rounded=0;orthogonalLoop=1;jettySize=auto;html=1;exitX=1;exitY=0.5;exitDx=0;exitDy=0;fontSize=12;fontStyle=1" edge="1" parent="1" source="wSHC-vbHyu29C94zfDi1-26" target="wSHC-vbHyu29C94zfDi1-47">
          <mxGeometry relative="1" as="geometry" />
        </mxCell>
        <mxCell id="wSHC-vbHyu29C94zfDi1-26" value="Demo" style="rounded=1;whiteSpace=wrap;html=1;fillColor=#d5e8d4;strokeColor=#82b366;fontSize=12;fontStyle=1" vertex="1" parent="1">
          <mxGeometry x="1110" y="125" width="80" height="60" as="geometry" />
        </mxCell>
        <mxCell id="wSHC-vbHyu29C94zfDi1-27" style="edgeStyle=orthogonalEdgeStyle;rounded=0;orthogonalLoop=1;jettySize=auto;html=1;exitX=1;exitY=0.5;exitDx=0;exitDy=0;entryX=0;entryY=0.5;entryDx=0;entryDy=0;fontSize=12;fontStyle=1" edge="1" parent="1" source="wSHC-vbHyu29C94zfDi1-28" target="wSHC-vbHyu29C94zfDi1-30">
          <mxGeometry relative="1" as="geometry" />
        </mxCell>
        <mxCell id="wSHC-vbHyu29C94zfDi1-28" value="Diagramas&lt;br style=&quot;font-size: 12px;&quot;&gt;de flujo&lt;br style=&quot;font-size: 12px;&quot;&gt;de tareas" style="rounded=1;whiteSpace=wrap;html=1;fillColor=#fff2cc;strokeColor=#d6b656;fontSize=12;fontStyle=1" vertex="1" parent="1">
          <mxGeometry x="280" y="460" width="100" height="60" as="geometry" />
        </mxCell>
        <mxCell id="wSHC-vbHyu29C94zfDi1-29" style="edgeStyle=orthogonalEdgeStyle;rounded=0;orthogonalLoop=1;jettySize=auto;html=1;exitX=1;exitY=0.5;exitDx=0;exitDy=0;entryX=0;entryY=0.5;entryDx=0;entryDy=0;fontSize=12;fontStyle=1" edge="1" parent="1" source="wSHC-vbHyu29C94zfDi1-30" target="wSHC-vbHyu29C94zfDi1-32">
          <mxGeometry relative="1" as="geometry" />
        </mxCell>
        <mxCell id="wSHC-vbHyu29C94zfDi1-30" value="&lt;span style=&quot;font-size: 12px;&quot;&gt;Repartición de&lt;/span&gt;&lt;br style=&quot;font-size: 12px;&quot;&gt;&lt;span style=&quot;font-size: 12px;&quot;&gt;tareas HW y SW&lt;/span&gt;" style="rounded=1;whiteSpace=wrap;html=1;fillColor=#fff2cc;strokeColor=#d6b656;fontSize=12;fontStyle=1" vertex="1" parent="1">
          <mxGeometry x="400" y="460" width="80" height="60" as="geometry" />
        </mxCell>
        <mxCell id="wSHC-vbHyu29C94zfDi1-31" style="edgeStyle=orthogonalEdgeStyle;rounded=0;orthogonalLoop=1;jettySize=auto;html=1;exitX=1;exitY=0.5;exitDx=0;exitDy=0;entryX=0;entryY=0.5;entryDx=0;entryDy=0;fontSize=12;fontStyle=1" edge="1" parent="1" source="wSHC-vbHyu29C94zfDi1-32" target="wSHC-vbHyu29C94zfDi1-43">
          <mxGeometry relative="1" as="geometry" />
        </mxCell>
        <mxCell id="wSHC-vbHyu29C94zfDi1-32" value="Selección del firmware" style="rounded=1;whiteSpace=wrap;html=1;fillColor=#fff2cc;strokeColor=#d6b656;fontSize=12;fontStyle=1" vertex="1" parent="1">
          <mxGeometry x="520" y="460" width="120" height="60" as="geometry" />
        </mxCell>
        <mxCell id="wSHC-vbHyu29C94zfDi1-33" style="edgeStyle=orthogonalEdgeStyle;rounded=0;orthogonalLoop=1;jettySize=auto;html=1;exitX=1;exitY=0.5;exitDx=0;exitDy=0;entryX=0;entryY=0.5;entryDx=0;entryDy=0;fontSize=12;fontStyle=1" edge="1" parent="1" source="wSHC-vbHyu29C94zfDi1-34" target="wSHC-vbHyu29C94zfDi1-38">
          <mxGeometry relative="1" as="geometry" />
        </mxCell>
        <mxCell id="wSHC-vbHyu29C94zfDi1-34" value="Pruebas&lt;br style=&quot;font-size: 12px;&quot;&gt;y correciones" style="rounded=1;whiteSpace=wrap;html=1;fillColor=#f8cecc;strokeColor=#b85450;fontSize=12;fontStyle=1" vertex="1" parent="1">
          <mxGeometry x="900" y="330" width="80" height="60" as="geometry" />
        </mxCell>
        <mxCell id="wSHC-vbHyu29C94zfDi1-35" style="edgeStyle=orthogonalEdgeStyle;rounded=0;orthogonalLoop=1;jettySize=auto;html=1;exitX=1;exitY=0.5;exitDx=0;exitDy=0;entryX=0;entryY=0.5;entryDx=0;entryDy=0;fontSize=12;fontStyle=1" edge="1" parent="1" source="wSHC-vbHyu29C94zfDi1-36" target="wSHC-vbHyu29C94zfDi1-47">
          <mxGeometry relative="1" as="geometry" />
        </mxCell>
        <mxCell id="wSHC-vbHyu29C94zfDi1-36" value="Vídeo" style="rounded=1;whiteSpace=wrap;html=1;fillColor=#dae8fc;strokeColor=#6c8ebf;fontSize=12;fontStyle=1" vertex="1" parent="1">
          <mxGeometry x="1110" y="550" width="80" height="40" as="geometry" />
        </mxCell>
        <mxCell id="wSHC-vbHyu29C94zfDi1-37" style="edgeStyle=orthogonalEdgeStyle;rounded=0;orthogonalLoop=1;jettySize=auto;html=1;exitX=0.5;exitY=0;exitDx=0;exitDy=0;entryX=0.5;entryY=1;entryDx=0;entryDy=0;fontSize=12;fontStyle=1" edge="1" parent="1" source="wSHC-vbHyu29C94zfDi1-38" target="wSHC-vbHyu29C94zfDi1-21">
          <mxGeometry relative="1" as="geometry" />
        </mxCell>
        <mxCell id="wSHC-vbHyu29C94zfDi1-38" value="Implementación de tareas en el sistema&lt;br style=&quot;font-size: 12px;&quot;&gt;(validación)" style="rounded=1;whiteSpace=wrap;html=1;fillColor=#f8cecc;strokeColor=#b85450;fontSize=12;fontStyle=1" vertex="1" parent="1">
          <mxGeometry x="1000" y="330" width="120" height="60" as="geometry" />
        </mxCell>
        <mxCell id="wSHC-vbHyu29C94zfDi1-39" style="edgeStyle=orthogonalEdgeStyle;rounded=0;orthogonalLoop=1;jettySize=auto;html=1;exitX=1;exitY=0.5;exitDx=0;exitDy=0;entryX=0.5;entryY=1;entryDx=0;entryDy=0;fontSize=12;fontStyle=1" edge="1" parent="1" source="wSHC-vbHyu29C94zfDi1-40" target="wSHC-vbHyu29C94zfDi1-38">
          <mxGeometry relative="1" as="geometry" />
        </mxCell>
        <mxCell id="wSHC-vbHyu29C94zfDi1-40" value="Simulaciones&lt;br style=&quot;font-size: 12px;&quot;&gt;e implementación de tareas en placas de desarrollo" style="rounded=1;whiteSpace=wrap;html=1;fillColor=#fff2cc;strokeColor=#d6b656;fontSize=12;fontStyle=1" vertex="1" parent="1">
          <mxGeometry x="920" y="460" width="120" height="60" as="geometry" />
        </mxCell>
        <mxCell id="wSHC-vbHyu29C94zfDi1-41" style="edgeStyle=orthogonalEdgeStyle;rounded=0;orthogonalLoop=1;jettySize=auto;html=1;exitX=1;exitY=0.5;exitDx=0;exitDy=0;entryX=0;entryY=0.5;entryDx=0;entryDy=0;fontSize=12;fontStyle=1" edge="1" parent="1" source="wSHC-vbHyu29C94zfDi1-43" target="wSHC-vbHyu29C94zfDi1-40">
          <mxGeometry relative="1" as="geometry" />
        </mxCell>
        <mxCell id="wSHC-vbHyu29C94zfDi1-42" style="edgeStyle=orthogonalEdgeStyle;rounded=0;orthogonalLoop=1;jettySize=auto;html=1;exitX=1;exitY=0.5;exitDx=0;exitDy=0;entryX=0.5;entryY=1;entryDx=0;entryDy=0;fontSize=12;fontStyle=1" edge="1" parent="1" source="wSHC-vbHyu29C94zfDi1-43" target="wSHC-vbHyu29C94zfDi1-38">
          <mxGeometry relative="1" as="geometry">
            <Array as="points">
              <mxPoint x="890" y="490" />
              <mxPoint x="890" y="430" />
              <mxPoint x="1060" y="430" />
            </Array>
          </mxGeometry>
        </mxCell>
        <mxCell id="wSHC-vbHyu29C94zfDi1-43" value="Creación de tareas&lt;br style=&quot;font-size: 12px;&quot;&gt;en el sistema seleccionado" style="rounded=1;whiteSpace=wrap;html=1;fillColor=#fff2cc;strokeColor=#d6b656;fontSize=12;fontStyle=1" vertex="1" parent="1">
          <mxGeometry x="685" y="460" width="120" height="60" as="geometry" />
        </mxCell>
        <mxCell id="wSHC-vbHyu29C94zfDi1-44" value="Aplicaciones cliente servidor" style="rounded=1;whiteSpace=wrap;html=1;fillColor=#ffe6cc;strokeColor=#d79b00;fontSize=12;fontStyle=1" vertex="1" parent="1">
          <mxGeometry x="505" y="65" width="120" height="60" as="geometry" />
        </mxCell>
        <mxCell id="wSHC-vbHyu29C94zfDi1-45" value="Aplicaciones M2M" style="rounded=1;whiteSpace=wrap;html=1;fillColor=#ffe6cc;strokeColor=#d79b00;fontSize=12;fontStyle=1" vertex="1" parent="1">
          <mxGeometry x="685" y="65" width="120" height="60" as="geometry" />
        </mxCell>
        <mxCell id="wSHC-vbHyu29C94zfDi1-46" value="HMI" style="rounded=1;whiteSpace=wrap;html=1;fillColor=#ffe6cc;strokeColor=#d79b00;fontSize=12;fontStyle=1" vertex="1" parent="1">
          <mxGeometry x="880" y="65" width="120" height="60" as="geometry" />
        </mxCell>
        <mxCell id="wSHC-vbHyu29C94zfDi1-47" value="Presentación&lt;br style=&quot;font-size: 12px;&quot;&gt;del&lt;br style=&quot;font-size: 12px;&quot;&gt;proyecto" style="rounded=1;whiteSpace=wrap;html=1;fillColor=#d5e8d4;strokeColor=#82b366;fontSize=12;fontStyle=1" vertex="1" parent="1">
          <mxGeometry x="1230" y="30" width="80" height="600" as="geometry" />
        </mxCell>
        <mxCell id="wSHC-vbHyu29C94zfDi1-48" style="edgeStyle=orthogonalEdgeStyle;rounded=0;orthogonalLoop=1;jettySize=auto;html=1;exitX=1;exitY=0.5;exitDx=0;exitDy=0;entryX=0;entryY=0.5;entryDx=0;entryDy=0;fontColor=#FF3333;fontSize=12;fontStyle=1" edge="1" parent="1" source="wSHC-vbHyu29C94zfDi1-49" target="wSHC-vbHyu29C94zfDi1-15">
          <mxGeometry relative="1" as="geometry" />
        </mxCell>
        <mxCell id="wSHC-vbHyu29C94zfDi1-49" value="Situación a enfrentar&lt;br style=&quot;font-size: 12px;&quot;&gt;(requerimientos&lt;br style=&quot;font-size: 12px;&quot;&gt;y alcance)" style="rounded=1;whiteSpace=wrap;html=1;fillColor=#d5e8d4;strokeColor=#82b366;fontSize=12;fontStyle=1" vertex="1" parent="1">
          <mxGeometry x="30" y="330" width="100" height="60" as="geometry" />
        </mxCell>
      </root>
    </mxGraphModel>
  </diagram>
  <diagram id="P9lqp1_RqJGvRRyz3NZt" name="Page-1">
    <mxGraphModel dx="1320" dy="970" grid="1" gridSize="10" guides="1" tooltips="1" connect="1" arrows="1" fold="1" page="1" pageScale="1" pageWidth="1100" pageHeight="850" math="0" shadow="0">
      <root>
        <mxCell id="0" />
        <mxCell id="1" parent="0" />
        <mxCell id="6OezE0QxkK3katlNgmw2-11" style="edgeStyle=orthogonalEdgeStyle;rounded=0;orthogonalLoop=1;jettySize=auto;html=1;exitX=0.5;exitY=1;exitDx=0;exitDy=0;" edge="1" parent="1" source="6OezE0QxkK3katlNgmw2-2" target="6OezE0QxkK3katlNgmw2-3">
          <mxGeometry relative="1" as="geometry" />
        </mxCell>
        <mxCell id="6OezE0QxkK3katlNgmw2-2" value="Propuesta del curso&lt;div&gt;&lt;ul&gt;&lt;li&gt;Metodología&lt;/li&gt;&lt;li&gt;El rol del profesor y del estudiante&lt;/li&gt;&lt;li&gt;Mecanismo de evaluación&lt;/li&gt;&lt;li&gt;Dinámica de la clase&lt;/li&gt;&lt;li&gt;Filosofía opensource&lt;/li&gt;&lt;li&gt;Encuentros síncronos y asíncronos&lt;/li&gt;&lt;/ul&gt;&lt;/div&gt;" style="rounded=1;whiteSpace=wrap;html=1;align=left;" vertex="1" parent="1">
          <mxGeometry x="40" y="40" width="240" height="140" as="geometry" />
        </mxCell>
        <mxCell id="6OezE0QxkK3katlNgmw2-3" value="Marco de referencia&lt;div&gt;&lt;ul&gt;&lt;li&gt;La tecnología como fenómeno&lt;/li&gt;&lt;li&gt;Esfuerzos de interés global&lt;/li&gt;&lt;li&gt;Paradigmas&lt;/li&gt;&lt;li&gt;El rol activo&lt;/li&gt;&lt;/ul&gt;&lt;/div&gt;" style="rounded=1;whiteSpace=wrap;html=1;align=left;" vertex="1" parent="1">
          <mxGeometry x="40" y="230" width="240" height="110" as="geometry" />
        </mxCell>
        <mxCell id="6OezE0QxkK3katlNgmw2-13" style="edgeStyle=orthogonalEdgeStyle;rounded=0;orthogonalLoop=1;jettySize=auto;html=1;exitX=0;exitY=0.5;exitDx=0;exitDy=0;entryX=1;entryY=0.5;entryDx=0;entryDy=0;" edge="1" parent="1" source="6OezE0QxkK3katlNgmw2-5" target="6OezE0QxkK3katlNgmw2-3">
          <mxGeometry relative="1" as="geometry" />
        </mxCell>
        <mxCell id="6OezE0QxkK3katlNgmw2-5" value="Temas para banco de actividades&lt;div&gt;&lt;ul&gt;&lt;li&gt;Obsolescencia programada&lt;/li&gt;&lt;li&gt;Tecnología criolla&lt;/li&gt;&lt;li&gt;Apropiación social CTS&lt;/li&gt;&lt;li&gt;STEAM es todo menos STEAM&lt;/li&gt;&lt;li&gt;Habilidades de comunicación&lt;/li&gt;&lt;/ul&gt;&lt;/div&gt;" style="rounded=1;whiteSpace=wrap;html=1;align=left;" vertex="1" parent="1">
          <mxGeometry x="330" y="230" width="240" height="110" as="geometry" />
        </mxCell>
        <mxCell id="6OezE0QxkK3katlNgmw2-6" value="Banco de herramientas&lt;div&gt;&lt;ul&gt;&lt;li&gt;Grafo&lt;/li&gt;&lt;li&gt;Discusión dialógica&lt;/li&gt;&lt;li&gt;El debate&lt;/li&gt;&lt;li&gt;Jigsaw&lt;/li&gt;&lt;li&gt;Pitch&lt;/li&gt;&lt;li&gt;Cadaver exquisito&lt;/li&gt;&lt;li&gt;Origami&lt;/li&gt;&lt;/ul&gt;&lt;/div&gt;" style="rounded=1;whiteSpace=wrap;html=1;align=left;" vertex="1" parent="1">
          <mxGeometry x="520" y="35" width="180" height="150" as="geometry" />
        </mxCell>
        <mxCell id="6OezE0QxkK3katlNgmw2-8" value="Presentación de ideas de proyectos&lt;div&gt;&lt;ul&gt;&lt;li&gt;Ideas de proyectos individuales&lt;/li&gt;&lt;li&gt;Creación de equipos&lt;/li&gt;&lt;li&gt;Abstracción Top Down&lt;/li&gt;&lt;/ul&gt;&lt;/div&gt;" style="rounded=1;whiteSpace=wrap;html=1;align=left;" vertex="1" parent="1">
          <mxGeometry x="50" y="370" width="240" height="110" as="geometry" />
        </mxCell>
        <mxCell id="6OezE0QxkK3katlNgmw2-14" style="edgeStyle=orthogonalEdgeStyle;rounded=0;orthogonalLoop=1;jettySize=auto;html=1;exitX=0;exitY=0.5;exitDx=0;exitDy=0;" edge="1" parent="1" source="6OezE0QxkK3katlNgmw2-10" target="6OezE0QxkK3katlNgmw2-8">
          <mxGeometry relative="1" as="geometry" />
        </mxCell>
        <mxCell id="6OezE0QxkK3katlNgmw2-10" value="Temas para banco de actividades&lt;div&gt;&lt;ul&gt;&lt;li&gt;Afinidad con proyectos individuales&lt;/li&gt;&lt;li&gt;Aport&lt;/li&gt;&lt;/ul&gt;&lt;/div&gt;" style="rounded=1;whiteSpace=wrap;html=1;align=left;" vertex="1" parent="1">
          <mxGeometry x="330" y="370" width="240" height="110" as="geometry" />
        </mxCell>
        <mxCell id="6OezE0QxkK3katlNgmw2-12" style="edgeStyle=orthogonalEdgeStyle;rounded=0;orthogonalLoop=1;jettySize=auto;html=1;exitX=0.5;exitY=1;exitDx=0;exitDy=0;entryX=0.465;entryY=0.002;entryDx=0;entryDy=0;entryPerimeter=0;" edge="1" parent="1" source="6OezE0QxkK3katlNgmw2-3" target="6OezE0QxkK3katlNgmw2-8">
          <mxGeometry relative="1" as="geometry" />
        </mxCell>
      </root>
    </mxGraphModel>
  </diagram>
</mxfile>
